<svg xmlns="http://www.w3.org/2000/svg" viewBox="0 0 128.8 119.09">
	<defs>
		<style>.cls-1{fill:#e49e31;} .cls-2{fill:#d5942e;} #SVG{cursor:pointer;}</style>
	</defs>
	<g id="SVG">
		<path class="cls-2" d="M62.72,64.8c0,15.95-3.81,23.32-14.93,23.61-3.6.09-6.74.37-9.88-5.15,8.23-.74,13.25-3.75,10.52-17.42-1.76-8.86,3.76-17.19,9.8-23C64.28,48.66,62.72,55.77,62.72,64.8Z"/>
		<path class="cls-1" d="M35.77,44.63c0,1.13.05,2.25.15,3.35a.13.13,0,0,1,0,.06,23.33,23.33,0,0,0,6-2.92c.36-.24.71-.49,1-.76,4-3.14,7.49-8.08,9.58-15.75,3.39,4.71,9,12.14,21.51,12.3l-4.36-6.85A58.69,58.69,0,0,0,87.45,45.79l1.13.42a17.9,17.9,0,0,0,5.57,1.16h.09c.07-.9.11-1.82.11-2.74a35.19,35.19,0,0,0-1.51-10.25C89.08,21.91,78.63,12.82,66.19,12.27l-1,0c-.4,0-.8,0-1.19,0l-1.15.07C51,13.37,41.2,22,37.43,33.88A35.11,35.11,0,0,0,35.77,44.63Z"/>
	</g>
</svg>