<svg xmlns="http://www.w3.org/2000/svg" viewBox="0 0 128.8 119.09">
	<defs>
		<style>.cls-1{fill:#333;} .cls-2{fill:#000;} #SVG{cursor:pointer;}</style>
	</defs>
	<g id="SVG">
		<path class="cls-2" d="M89.83,37.37a23.63,23.63,0,0,1-2.34,10.27c0-.48-2-1.12-2-1.61a20.93,20.93,0,0,0-1-6c-1.47.44-4.22-2-6.35-5.69a20.26,20.26,0,0,1-1.54-3.27H53.51A20.26,20.26,0,0,1,52,34.38c-2,3.46-4.54,5.82-6.06,5.74a1.35,1.35,0,0,1-.29,0,20.93,20.93,0,0,0-1,6c0,.49-2,1.13-2,1.61,0,0,0,0,0,0a0,0,0,0,0,0,0,24.25,24.25,0,0,1-1-2.35l0,0s0-.1,0-.14a31.89,31.89,0,0,1-1.28-7c0-.23,0-.47,0-.7s0-.2,0-.3a24.32,24.32,0,0,1,17.78-23,10.13,10.13,0,0,0-.28-3,25.08,25.08,0,0,1,3.85,1.27,11.6,11.6,0,0,0-1.4-3,33.89,33.89,0,0,1,5.55,1.71,6.28,6.28,0,0,0-1-2.47h0c12.45,2.92,18.7,10.51,22.37,17.85.21.42.41.83.6,1.25a1.67,1.67,0,0,1,.08.2,18,18,0,0,1,.69,1.82l.21.65h0a23.57,23.57,0,0,1,1,6.64C89.83,37.17,89.83,37.27,89.83,37.37Z"/>
		<path class="cls-1" d="M89.83,37.37a23.63,23.63,0,0,1-2.34,10.27c0-.48-2-1.12-2-1.61a20.93,20.93,0,0,0-1-6c-1.47.44-4.22-2-6.35-5.69a20.26,20.26,0,0,1-1.54-3.27H50.48a20.26,20.26,0,0,1-1.54,3.27c-2.13,3.69-4.88,6.13-6.35,5.69a22.65,22.65,0,0,0-.94,5.22l0,0s0-.08,0-.14a31.89,31.89,0,0,1-1.28-7c0-.23,0-.47,0-.7s0-.2,0-.3a24.32,24.32,0,0,1,17.78-23,10.13,10.13,0,0,0-.28-3,25.08,25.08,0,0,1,3.85,1.27,11.6,11.6,0,0,0-1.4-3,33.89,33.89,0,0,1,5.55,1.71,66.75,66.75,0,0,1,9,3.48c.51.28,1,.58,1.48.89A32.79,32.79,0,0,1,88.1,29c.21.42.41.83.6,1.25a1.34,1.34,0,0,1,.07.18h0a23.57,23.57,0,0,1,1,6.64C89.83,37.17,89.83,37.27,89.83,37.37Z"/>
	</g>
</svg>