<svg xmlns="http://www.w3.org/2000/svg" viewBox="0 0 128.8 119.09">
	<defs>
		<style>.cls-1{fill:#8a6f56;} .cls-2{fill:#725c48;} #SVG{cursor:pointer;}</style>
	</defs>
	<g id="SVG">
		<path class="cls-2" d="M89.91,27.38c-.08-.3-.19-.62-.31-1A22.59,22.59,0,0,0,85.9,20a25.5,25.5,0,0,0-7.16-6.07,26.36,26.36,0,0,0-27.4,0c-3,1.75-3.73,3.49-5.62,5.49a5.06,5.06,0,0,1-3.26,1.22c-1.73.13-5.17-1.54-5.17-1.54a10.1,10.1,0,0,0,3.22,7.29c-.12.35-.23.67-.31,1-.8,2.87-.56,15-.56,15s2.48-.88,4.29.33,2.41,4.53,2.41,4.53-.13-10.62.41-16.87a29.85,29.85,0,0,0,4.09.09,38.76,38.76,0,0,0,14.22-3.72c3.57-1.55,6.62-3.11,9.38-3.57,5.87-1,6.59,2.32,8,5.08a8.21,8.21,0,0,1,.5,2.12c.79,5.62.63,16.87.63,16.87s.86-3.31,2.66-4.53,4.29-.33,4.29-.33S90.71,30.25,89.91,27.38Z"/>
		<path class="cls-1" d="M90.47,42.4s-2.48-.88-4.29.33-2.66,4.53-2.66,4.53.16-11.25-.63-16.87a8.21,8.21,0,0,0-.5-2.12c-1.36-2.76-2.08-6.08-8-5.08-2.76.46-5.81,2-9.38,3.57a38.76,38.76,0,0,1-14.22,3.72,29.85,29.85,0,0,1-4.09-.09h0c-2.74-.27-4.52-2.19-6.19-4a10.1,10.1,0,0,1-3.22-7.29s3.44,1.67,5.17,1.54a5.06,5.06,0,0,0,3.26-1.22c1.89-2,2.57-3.74,5.62-5.49a26.36,26.36,0,0,1,27.4,0A25.5,25.5,0,0,1,85.9,20a22.59,22.59,0,0,1,3.7,6.41c.12.35.23.67.31,1C90.71,30.25,90.47,42.4,90.47,42.4Z"/>
	</g>
</svg>