<svg xmlns="http://www.w3.org/2000/svg" viewBox="0 0 128.8 119.09">
	<defs>
		<style>.cls-1{fill:#333;} .cls-2{fill:#000;} #SVG{cursor:pointer;}</style>
	</defs>
	<g id="SVG">
		<path class="cls-2" d="M92.47,34.76h0a2.58,2.58,0,0,0-1.09-2.12A2.67,2.67,0,0,0,92,31h0a2.61,2.61,0,0,0-1.57-2.4,2.59,2.59,0,0,0,.11-.74h0a2.63,2.63,0,0,0-2.19-2.59,2.56,2.56,0,0,0,.44-1.45h0a2.64,2.64,0,0,0-2.07-2.57c0-.1,0-.21,0-.32h0a2.64,2.64,0,0,0-2.64-2.64l-.32,0v0h0a2.63,2.63,0,0,0-2.63-2.63,2.53,2.53,0,0,0-.68.09v-.09h0A2.64,2.64,0,0,0,77.81,13a2.54,2.54,0,0,0-1.07.23,2.63,2.63,0,0,0-2.48-1.76,2.6,2.6,0,0,0-1.33.36,2.62,2.62,0,0,0-4.4-.48,2.6,2.6,0,0,0-2.41-1.59,2.65,2.65,0,0,0-2.08,1A2.64,2.64,0,0,0,62.2,10a2.57,2.57,0,0,0-1.1.27c-.08,0-.16.06-.23.1a2.63,2.63,0,0,0-.31.24,2.6,2.6,0,0,0-.23.19,2.62,2.62,0,0,0-.27.35c0,.06-.09.1-.12.16h0l-.07.1a2.63,2.63,0,0,0-4.14,1.38,2.64,2.64,0,0,0-4,1.45,2.49,2.49,0,0,0-.91-.17,2.64,2.64,0,0,0-2.63,2.64v.09a2.48,2.48,0,0,0-.68-.09,2.64,2.64,0,0,0-2.64,2.63,2.6,2.6,0,0,0,.06.56h-.06a2.64,2.64,0,0,0-2.63,2.64,2.6,2.6,0,0,0,.06.56,2.65,2.65,0,0,0-2,2.57,2.62,2.62,0,0,0,.41,1.41,2.63,2.63,0,0,0-.76,4.75,2.63,2.63,0,0,0-1.22,4.72,2.63,2.63,0,0,0,.46,4.49,2.56,2.56,0,0,0-.44,1.45,2.64,2.64,0,0,0,2.64,2.63l.3,0,0,0,.2,0,.07,0,.19,0A2.62,2.62,0,0,0,44,42a2.58,2.58,0,0,0-.58-1.23,1.86,1.86,0,0,0,.44-1.2,1.54,1.54,0,0,0-.06-.43A1.86,1.86,0,0,0,45.08,37a1.78,1.78,0,0,0-.4-.86,1.8,1.8,0,0,0,.32-.56h0a1.85,1.85,0,0,0,.12-.66,1.8,1.8,0,0,0-.15-.73c10.79.51,21.7.16,34.85-5.86a1.74,1.74,0,0,0,.88.93,1.47,1.47,0,0,0,0,.36,1.88,1.88,0,0,0,1.88,1.88.82.82,0,0,0,.22,0,1.66,1.66,0,0,0-.22.85,1.87,1.87,0,0,0,1.66,1.86,1.58,1.58,0,0,0,0,.38,1.85,1.85,0,0,0,1.65,1.85h0s0,0,0,0a1.82,1.82,0,0,0-.64,1.39,1.87,1.87,0,0,0,1.69,1.86,1.86,1.86,0,0,0,.53,3.07l.07,0a.5.5,0,0,0,0,.13,1.92,1.92,0,0,0-.13.72,2.16,2.16,0,0,0,1.93,2.14h.41a3.26,3.26,0,0,0,.45-.09,1.88,1.88,0,0,0,.39-.16A2.61,2.61,0,0,0,92,43.23h0a2.68,2.68,0,0,0-.76-1.86,2.59,2.59,0,0,0,1.25-2.23h0a2.63,2.63,0,0,0-1.18-2.19A2.63,2.63,0,0,0,92.47,34.76Z"/>
		<path class="cls-1" d="M89.24,42.66A2.68,2.68,0,0,1,90,44.52a2.6,2.6,0,0,1-.36,1.33h-.42a2.16,2.16,0,0,1-1.93-2.14,1.92,1.92,0,0,1,.13-.72.5.5,0,0,1,0-.13l-.07,0a1.86,1.86,0,0,1-.53-3.07,1.87,1.87,0,0,1-1.69-1.86,1.82,1.82,0,0,1,.64-1.39s0,0,0,0h0a1.85,1.85,0,0,1-1.65-1.85,1.58,1.58,0,0,1,0-.38,1.87,1.87,0,0,1-1.66-1.86,1.66,1.66,0,0,1,.22-.85.82.82,0,0,1-.22,0,1.88,1.88,0,0,1-1.88-1.88,1.47,1.47,0,0,1,0-.36,1.74,1.74,0,0,1-.88-.93c-13.15,6-24.06,6.37-34.85,5.86a1.8,1.8,0,0,1,.15.73,1.84,1.84,0,0,1-.12.66l-2-.08a1.8,1.8,0,0,1,.15.73,1.83,1.83,0,0,1-.44,1.2,1.8,1.8,0,0,1,.44,1.19,1.86,1.86,0,0,1-1.35,1.79,1.54,1.54,0,0,1,.06.43,1.86,1.86,0,0,1-.45,1.21A2.58,2.58,0,0,1,42,43.82a2.51,2.51,0,0,1-.35,1.3l-.31,0a2.64,2.64,0,0,1-2.64-2.63,2.56,2.56,0,0,1,.44-1.45,2.63,2.63,0,0,1-.46-4.49,2.63,2.63,0,0,1,1.22-4.72,2.63,2.63,0,0,1,.76-4.75,2.62,2.62,0,0,1-.41-1.41,2.65,2.65,0,0,1,2-2.57,2.6,2.6,0,0,1-.06-.56,2.64,2.64,0,0,1,2.63-2.64H45a2.6,2.6,0,0,1-.06-.56,2.64,2.64,0,0,1,2.64-2.63,2.48,2.48,0,0,1,.68.09v-.09a2.64,2.64,0,0,1,2.63-2.64,2.49,2.49,0,0,1,.91.17,2.64,2.64,0,0,1,4-1.45,2.63,2.63,0,0,1,4.14-1.38.47.47,0,0,1,.06-.09l.28,0a2.64,2.64,0,0,1,1.84.74,2.65,2.65,0,0,1,2.08-1,2.6,2.6,0,0,1,2.41,1.59,2.62,2.62,0,0,1,4.4.48,2.6,2.6,0,0,1,1.33-.36,2.63,2.63,0,0,1,2.48,1.76,2.54,2.54,0,0,1,1.07-.23,2.64,2.64,0,0,1,2.64,2.63V17a2.54,2.54,0,0,1,.68-.09,2.63,2.63,0,0,1,2.63,2.63v0l.32,0a2.64,2.64,0,0,1,2.64,2.64c0,.11,0,.22,0,.32a2.64,2.64,0,0,1,2.07,2.57,2.56,2.56,0,0,1-.44,1.45,2.63,2.63,0,0,1,2.19,2.59,2.6,2.6,0,0,1-.11.74A2.61,2.61,0,0,1,90,32.25a2.67,2.67,0,0,1-.6,1.68A2.58,2.58,0,0,1,90.49,36a2.63,2.63,0,0,1-1.18,2.19,2.63,2.63,0,0,1,1.18,2.19A2.59,2.59,0,0,1,89.24,42.66Z"/>
	</g>
</svg>