<svg xmlns="http://www.w3.org/2000/svg" viewBox="0 0 128.8 119.09">
	<defs>
		<style>.cls-1{fill:#b76718;} .cls-2{fill:#a95f15;} #SVG{cursor:pointer;}</style>
	</defs>
	<g id="SVG">
		<path class="cls-2" d="M93.27,77.58s-18.76,2.28-28.21,2.13c-9.45.15-28.21-2.13-28.21-2.13-3.37-13.8-4.65-25.75-2.09-37s6.83-21.76,12.66-25.32,13.37-4.12,17.64-4c4.27-.14,11.8.43,17.64,4S92.8,29.36,95.36,40.59,96.64,63.78,93.27,77.58Z"/>
		<path class="cls-1" d="M90.29,44.69l-1,0c-5.07,0-7.34-5-9.14-8.08a29.49,29.49,0,0,1-2-4.23h0c-1.61-4.27-2.82-7.66-2.82-7.66-3.23,3.33-8.65,7.63-15.27,13-9.25,7.5-21.17,8-21.17,8s0-18.94,10.66-27.31a17.83,17.83,0,0,1,5.1-2.89h0c2.78-1,6-1.32,10.41-1.59a41.13,41.13,0,0,1,9.76,1.38,16.38,16.38,0,0,1,5.77,3.11C87.28,23.95,88.82,30.77,90.29,44.69Z"/>
	</g>
</svg>