<svg xmlns="http://www.w3.org/2000/svg" viewBox="0 0 128.8 119.09">
	<defs>
		<style>.cls-1{fill:#8a6f56;} .cls-2{fill:#725c48;} #SVG{cursor:pointer;}</style>
	</defs>
	<g id="SVG">
		<path class="cls-1" id="hair_left" d="M46.8,46.8c0,0-0.6-3.3-2.4-4.5c-1.8-1.2-4.3-0.3-4.3-0.3s-0.7-12.3,0.6-15c3.4-7.4,7.9-5,9.2-4.2
			c1.4,1-1.2,1.5-2.5,5.2C45.5,33.3,46.8,46.8,46.8,46.8z"/>
		<path class="cls-1" id="hair_right" d="M83.2,46.7c0,0,0.6-3.3,2.4-4.5c1.8-1.2,4.3-0.3,4.3-0.3s0.7-12.3-0.6-15c-3.4-7.4-7.9-5-9.2-4.2
			c-1.4,1,1.2,1.5,2.5,5.2C84.4,33.2,83.2,46.7,83.2,46.7z"/>
	</g>
</svg>
