<svg width="524" height="524" viewBox="0 0 524 524" fill="none" xmlns="http://www.w3.org/2000/svg">
<path d="M99.009 261.772L180.39 120.815L343.153 120.815L424.534 261.772L343.153 402.728L180.39 402.728L99.009 261.772Z" stroke="white" stroke-width="50"/>
<g filter="url(#filter0_d)">
<!--<g clip-path="url(#clip0)">-->
<path d="M264.583 228.849H184.95C186.837 220.214 198.123 209.641 212.519 205.024C217.202 203.509 222.093 202.734 227.02 202.698C231.912 202.734 236.804 203.509 241.451 205.024C243.408 205.659 245.33 206.399 247.182 207.245C247.182 207.245 247.182 207.245 247.217 207.245C257.559 213.236 264.583 222.012 264.583 228.849Z" fill="#BFBABE"/>
<path d="M269.37 231.316H184.671C184.671 230.47 184.776 229.659 184.95 228.849H264.583C264.583 222.012 257.56 213.236 247.217 207.245C260.11 213.095 269.37 223.457 269.37 231.316Z" fill="#9D9C9D"/>
<path d="M241.451 205.024C240.193 207.174 234.707 215.703 226.671 215.703C218.634 215.703 213.638 207.209 212.484 205.06C217.167 203.544 222.059 202.769 226.985 202.734C231.912 202.734 236.804 203.509 241.451 205.024Z" fill="#9D9C9D"/>
<path d="M254.939 154.697C254.939 154.591 254.939 154.486 254.939 154.38C254.939 138.098 242.395 124.881 226.95 124.881C211.506 124.881 198.962 138.098 198.962 154.38C198.962 154.486 198.962 154.591 198.962 154.697C195.537 155.473 192.952 159.384 192.952 164.142C192.952 169.429 196.201 173.728 200.185 173.728C200.324 173.728 200.464 173.728 200.604 173.693C200.674 174.116 200.744 174.504 200.849 174.927C200.918 175.314 201.023 175.667 201.128 176.055C201.198 176.266 201.233 176.513 201.338 176.724C201.408 177.041 201.512 177.358 201.652 177.676C201.687 177.852 201.757 178.028 201.827 178.204C201.967 178.592 202.107 178.944 202.246 179.297C202.456 179.79 202.666 180.248 202.875 180.707C203.05 181.059 203.225 181.411 203.399 181.764C203.574 182.116 203.784 182.469 203.993 182.786C204.203 183.103 204.413 183.456 204.622 183.773C205.286 184.83 206.055 185.852 206.894 186.804C207.278 187.262 207.697 187.72 208.117 188.143C208.326 188.354 208.536 188.566 208.78 188.777C211.401 191.244 214.476 193.147 217.795 194.381V203.474C217.795 208.091 221.394 211.897 225.972 212.143C230.549 211.897 234.113 208.091 234.148 203.474V195.755C234.323 195.579 234.463 195.438 234.637 195.262C234.672 195.262 234.672 195.227 234.672 195.227C234.777 195.086 234.882 194.945 234.987 194.804C238.761 193.57 242.185 191.526 245.085 188.813C245.295 188.601 245.504 188.39 245.749 188.178C246.168 187.755 246.588 187.332 246.972 186.839C247.811 185.887 248.579 184.901 249.243 183.808C249.453 183.491 249.662 183.174 249.872 182.821C250.082 182.469 250.256 182.152 250.431 181.799C250.641 181.447 250.816 181.094 250.955 180.742C251.2 180.284 251.41 179.79 251.584 179.332C251.724 178.944 251.864 178.592 252.004 178.24C252.073 178.063 252.143 177.887 252.178 177.711C252.283 177.394 252.388 177.077 252.493 176.759C252.563 176.548 252.633 176.301 252.702 176.09C252.807 175.702 252.912 175.35 252.982 174.962C253.087 174.539 253.157 174.151 253.227 173.728C253.366 173.764 253.506 173.764 253.681 173.764C257.664 173.764 260.914 169.464 260.914 164.178C260.949 159.42 258.328 155.473 254.939 154.697Z" fill="#9B7152"/>
<path d="M192.952 164.142C192.952 169.429 196.201 173.728 200.185 173.728C200.324 173.728 200.464 173.728 200.639 173.693C200.639 173.623 200.604 173.552 200.604 173.482C197.354 172.565 194.874 168.724 194.874 164.107C194.874 163.12 194.978 162.133 195.223 161.182C195.712 158.856 197.04 156.812 198.962 155.472C198.962 155.226 198.927 154.944 198.927 154.662C196.236 155.296 194.07 157.834 193.266 161.182C193.091 162.169 192.952 163.155 192.952 164.142Z" fill="#925C3E"/>
<path d="M260.599 161.217C259.796 157.869 257.629 155.296 254.939 154.697C254.939 154.979 254.939 155.226 254.904 155.508C256.826 156.847 258.188 158.891 258.643 161.217C258.887 162.169 258.992 163.156 258.992 164.142C258.992 168.759 256.546 172.601 253.261 173.517C253.296 173.306 253.331 173.094 253.366 172.918C253.401 172.706 253.436 172.53 253.436 172.319C253.506 171.755 253.576 171.191 253.576 170.627C253.611 170.38 253.611 170.134 253.611 169.887C253.646 169.57 253.646 169.217 253.646 168.9C253.646 168.583 253.646 168.231 253.646 167.913C253.611 167.42 253.611 166.891 253.541 166.398C253.471 165.764 253.401 165.129 253.296 164.495V164.354V164.283C254.24 161.464 254.799 158.503 254.904 155.508C254.904 155.261 254.939 154.979 254.939 154.697V154.38C254.939 148.53 253.296 142.785 250.152 137.851C251.095 141.728 250.606 147.155 250.606 154.38V154.697C250.606 154.979 250.606 155.226 250.571 155.508C250.466 158.503 249.942 161.464 248.964 164.283V164.354V164.495C249.068 165.129 249.138 165.764 249.208 166.398C249.243 166.891 249.278 167.385 249.313 167.913C249.313 168.231 249.313 168.548 249.313 168.9C249.313 169.217 249.313 169.57 249.278 169.887C249.278 170.134 249.278 170.38 249.243 170.627C249.208 171.191 249.173 171.79 249.103 172.319C249.068 172.53 249.034 172.706 249.034 172.918C249.034 173.129 248.964 173.341 248.929 173.552L248.894 173.764C248.824 174.187 248.754 174.574 248.649 174.997C248.579 175.385 248.474 175.737 248.37 176.125C248.3 176.336 248.23 176.583 248.16 176.795C248.09 177.112 247.985 177.429 247.845 177.746C247.811 177.922 247.741 178.099 247.671 178.275C247.531 178.663 247.391 179.015 247.251 179.367C247.042 179.861 246.832 180.319 246.623 180.777C246.448 181.13 246.273 181.482 246.098 181.834C245.924 182.187 245.714 182.539 245.539 182.856C245.33 183.174 245.12 183.526 244.91 183.843C244.246 184.901 243.478 185.923 242.639 186.874C242.255 187.332 241.835 187.79 241.416 188.213C241.207 188.425 240.997 188.636 240.752 188.848C237.887 191.561 234.428 193.641 230.654 194.839C230.549 194.98 230.444 195.121 230.34 195.262L230.305 195.297C229.885 195.791 229.431 196.214 228.907 196.601C228.767 196.707 228.593 196.813 228.453 196.918C227.439 197.553 226.321 198.046 225.133 198.293L224.819 198.363H224.854C225.343 198.469 225.832 198.54 226.321 198.575C226.531 198.575 226.741 198.61 226.985 198.61C227.23 198.61 227.404 198.61 227.649 198.575C228.138 198.54 228.627 198.469 229.117 198.363C229.256 198.328 229.361 198.328 229.501 198.293C230.689 198.011 231.807 197.553 232.82 196.918C232.995 196.813 233.135 196.707 233.275 196.601C233.589 196.355 233.904 196.108 234.183 195.791V203.509C234.183 208.126 230.584 211.932 226.007 212.179C226.147 212.214 226.286 212.214 226.426 212.214H227.579C232.331 212.214 236.175 208.302 236.21 203.509V194.346C239.494 193.077 242.534 191.209 245.085 188.777C245.295 188.566 245.504 188.354 245.749 188.143C246.168 187.72 246.588 187.297 246.972 186.804C247.811 185.852 248.579 184.865 249.243 183.773C249.453 183.456 249.662 183.138 249.872 182.786C250.082 182.434 250.256 182.116 250.431 181.764C250.641 181.411 250.816 181.059 250.955 180.707C251.2 180.248 251.41 179.755 251.584 179.297C251.724 178.909 251.864 178.557 252.004 178.204C252.073 178.028 252.143 177.852 252.178 177.676C252.283 177.359 252.388 177.041 252.493 176.724C252.563 176.513 252.633 176.266 252.702 176.055C252.807 175.667 252.912 175.314 252.982 174.927C253.087 174.504 253.157 174.116 253.227 173.693C253.366 173.728 253.506 173.728 253.681 173.728C257.664 173.728 260.914 169.429 260.914 164.142C260.949 163.156 260.809 162.169 260.599 161.217Z" fill="#925C3E"/>
<path d="M223.351 171.508C225.238 173.517 228.418 173.588 230.409 171.684C230.479 171.614 230.514 171.579 230.584 171.508" fill="#925C3E"/>
<path d="M254.345 153.041C254.345 153.041 245.539 135.419 227.3 135.208C209.06 135.419 200.255 153.041 200.255 153.041C200.185 154.627 200.185 156.213 200.22 157.693C202.107 154.38 210.842 140.776 226.88 140.565C245.12 140.776 253.926 158.398 253.926 158.398C254.065 161.393 253.995 164.283 253.856 166.715C254.135 164.142 254.589 158.821 254.345 153.041Z" fill="#2B5376"/>
<path d="M263.535 150.82C263.045 136.653 255.183 124 248.055 119.63C240.927 115.26 231.737 114.555 226.496 114.731C221.29 114.555 212.065 115.26 204.937 119.63C197.809 124 190.436 136.653 189.458 150.82C187.815 175.42 203.19 204.284 187.815 222.47C187.815 222.47 214.93 224.69 226.496 224.514C238.027 224.69 266.155 222.293 266.155 222.293C251.864 204.073 264.583 181.729 263.535 150.82ZM253.891 166.68C253.646 170.874 253.227 173.728 253.227 173.728C253.157 174.151 253.052 174.539 252.982 174.962C252.912 175.35 252.807 175.702 252.703 176.09C252.633 176.301 252.563 176.548 252.493 176.759C252.423 177.077 252.318 177.394 252.178 177.711C252.143 177.887 252.074 178.063 252.004 178.24C251.864 178.627 251.724 178.98 251.584 179.367C251.375 179.861 251.165 180.319 250.955 180.777C250.781 181.129 250.606 181.482 250.431 181.834C250.257 182.187 250.047 182.539 249.872 182.856C249.663 183.174 249.453 183.526 249.243 183.843C248.544 184.901 247.811 185.923 246.972 186.839C246.588 187.297 246.168 187.755 245.749 188.143C245.539 188.354 245.33 188.566 245.085 188.777C242.465 191.244 239.39 193.147 236.07 194.416L235.301 194.698L234.079 195.755C233.799 196.037 233.485 196.319 233.135 196.566C232.995 196.672 232.821 196.777 232.681 196.883C231.668 197.518 230.549 198.011 229.361 198.258C229.222 198.293 229.117 198.328 228.977 198.328C228.488 198.434 227.999 198.504 227.509 198.54C227.335 198.54 227.16 198.575 226.95 198.575C226.776 198.575 226.601 198.575 226.391 198.54C225.902 198.504 225.413 198.434 224.924 198.328C224.784 198.293 224.679 198.293 224.539 198.258C223.351 197.976 222.233 197.518 221.22 196.883C221.045 196.777 220.905 196.672 220.766 196.566C220.451 196.319 220.137 196.073 219.822 195.755L218.599 194.698L217.831 194.416C214.476 193.183 211.401 191.244 208.816 188.777C208.606 188.566 208.396 188.354 208.152 188.143C207.732 187.72 207.313 187.262 206.929 186.839C206.09 185.887 205.321 184.901 204.657 183.843C204.448 183.526 204.238 183.174 204.028 182.856C203.819 182.539 203.644 182.187 203.469 181.834C203.295 181.482 203.085 181.129 202.945 180.777C202.701 180.319 202.491 179.826 202.316 179.367C202.142 178.98 202.037 178.627 201.897 178.24C201.827 178.063 201.757 177.887 201.722 177.711C201.617 177.394 201.513 177.077 201.408 176.759C201.338 176.548 201.268 176.301 201.198 176.09C201.093 175.702 200.989 175.35 200.919 174.962C200.814 174.539 200.744 174.151 200.674 173.728C200.674 173.728 199.591 166.504 199.94 158.327C199.94 158.327 200.08 158.08 200.325 157.622C200.29 156.142 200.325 154.591 200.36 152.97C200.36 152.97 209.165 135.349 227.405 135.137C245.644 135.349 254.45 152.97 254.45 152.97C254.659 158.75 254.205 164.072 253.891 166.68Z" fill="#366893"/>
<!--</g>-->
</g>
<g filter="url(#filter1_d)">
<path d="M334.388 264.619C335.37 261.565 335.991 258.357 336.146 255.097C336.146 254.735 336.198 254.321 336.198 253.958C336.198 253.803 336.198 253.648 336.198 253.493C336.198 230.258 313.603 211.37 285.684 211.37C257.764 211.37 235.17 230.206 235.17 253.493C235.17 253.648 235.17 253.803 235.17 253.958C235.17 254.321 235.17 254.735 235.221 255.097C235.376 258.409 235.997 261.617 237.031 264.722C231.085 265.55 226.587 269.276 226.587 273.674C226.587 278.539 231.912 282.472 238.685 282.834C238.84 283.351 238.996 283.869 239.151 284.438C239.254 284.748 239.357 285.059 239.513 285.369C239.668 285.835 239.875 286.249 240.081 286.715C240.185 286.974 240.288 287.232 240.392 287.491C240.65 288.009 240.857 288.526 241.167 289.095C241.529 289.768 241.891 290.441 242.305 291.113C242.615 291.631 242.925 292.097 243.287 292.614C243.597 293.08 243.959 293.597 244.321 294.063C244.683 294.529 245.045 294.995 245.407 295.46C246.648 297.013 248.044 298.462 249.491 299.755C250.215 300.428 250.939 301.049 251.715 301.618C252.077 301.929 252.49 302.239 252.852 302.498C258.333 306.483 264.485 309.432 271.052 311.088C271.155 311.192 271.258 311.295 271.362 311.399V313.624C270.535 313.882 269.656 314.141 268.88 314.4C253.576 319.937 241.529 332.615 239.513 343.016H324.461C324.461 334.789 316.964 324.284 305.951 317.091C305.951 317.091 305.951 317.091 305.9 317.091C304.659 316.47 303.366 315.901 302.022 315.331V311.036C302.022 310.881 301.97 310.726 301.97 310.622C307.864 308.915 313.448 306.172 318.412 302.55C318.774 302.291 319.187 301.98 319.549 301.67C320.325 301.049 321.049 300.428 321.772 299.807C323.272 298.462 324.616 297.064 325.857 295.512C326.219 295.046 326.633 294.581 326.943 294.115C327.305 293.649 327.615 293.132 327.977 292.666C328.339 292.148 328.649 291.683 328.959 291.165C329.373 290.492 329.735 289.82 330.097 289.147C330.407 288.63 330.614 288.112 330.872 287.543C331.027 287.284 331.131 287.025 331.182 286.767C331.389 286.353 331.596 285.887 331.751 285.421C331.906 285.111 332.01 284.8 332.113 284.49C332.268 283.972 332.475 283.455 332.578 282.937C332.578 282.937 332.578 282.937 332.63 282.937C332.992 282.937 333.406 282.937 333.768 282.886C334.13 282.886 334.543 282.834 334.853 282.782C341.006 282.058 345.711 278.28 345.711 273.726C345.763 269.069 340.799 265.188 334.388 264.619Z" fill="#723F1A"/>
<path d="M329.528 346.07H239.202C239.202 345.087 239.306 344.103 239.512 343.12H324.461C324.461 334.892 316.964 324.388 305.951 317.195C319.704 324.181 329.528 336.6 329.528 346.07Z" fill="#573319"/>
<path d="M226.535 273.726C226.535 278.798 232.377 282.937 239.616 282.937C239.874 282.937 240.133 282.937 240.391 282.937C240.391 282.886 240.34 282.834 240.34 282.73C234.446 281.851 229.999 278.177 229.999 273.778C229.999 272.795 230.206 271.863 230.62 270.984C232.016 268.293 234.497 266.326 237.393 265.498C237.393 265.24 237.341 264.981 237.341 264.722C232.481 265.291 228.551 267.775 227.155 270.984C226.793 271.812 226.535 272.743 226.535 273.726Z" fill="#573319"/>
<path d="M285.684 284.438C285.58 284.438 285.528 284.438 285.425 284.438C282.737 284.386 280.306 283.3 278.445 281.333L279.841 279.988C281.341 281.54 283.305 282.42 285.477 282.472C287.597 282.524 289.665 281.747 291.216 280.247C291.319 280.143 291.423 280.091 291.474 279.988L292.87 281.333C292.767 281.437 292.664 281.592 292.508 281.696C290.699 283.507 288.269 284.438 285.684 284.438Z" fill="#573319"/>
<path d="M327.305 233.26C328.908 238.486 328.08 245.886 328.08 255.718C328.08 255.873 328.08 256.029 328.08 256.132C328.08 256.494 328.08 256.857 328.029 257.219C327.874 261.307 326.943 265.343 325.34 269.173C325.34 269.224 325.34 269.224 325.34 269.276C325.34 269.328 325.34 269.38 325.34 269.431C325.547 270.259 325.65 271.139 325.754 272.019C325.857 272.692 325.857 273.364 325.909 274.089C325.909 274.503 325.909 274.968 325.909 275.434C325.909 275.9 325.909 276.314 325.857 276.78C325.857 277.09 325.857 277.452 325.805 277.763C325.754 278.539 325.65 279.315 325.547 280.091C325.495 280.402 325.443 280.609 325.392 280.919C325.34 281.23 325.288 281.489 325.237 281.747C325.237 281.799 325.185 281.954 325.185 282.006C325.082 282.575 324.926 283.145 324.771 283.662C324.668 284.18 324.461 284.697 324.306 285.214C324.203 285.525 324.099 285.835 323.996 286.094C323.841 286.508 323.686 286.974 323.479 287.388C323.375 287.647 323.272 287.905 323.169 288.112C322.962 288.63 322.703 289.096 322.445 289.613C322.134 290.286 321.773 290.907 321.359 291.528C321.049 291.993 320.738 292.459 320.428 292.977C320.118 293.442 319.808 293.908 319.446 294.374C319.136 294.84 318.774 295.254 318.412 295.719C317.223 297.168 315.982 298.565 314.586 299.807C313.914 300.428 313.242 301.049 312.518 301.619C312.156 301.929 311.794 302.188 311.432 302.498C308.485 304.672 305.331 306.535 301.97 308.035V310.623C308.019 309.019 313.759 306.276 318.774 302.55C319.136 302.291 319.498 301.981 319.86 301.67C320.583 301.101 321.256 300.48 321.928 299.859C323.324 298.617 324.616 297.22 325.754 295.771C326.116 295.305 326.478 294.891 326.788 294.426C327.098 293.96 327.408 293.494 327.77 293.028C328.08 292.563 328.391 292.097 328.701 291.579C329.114 290.958 329.425 290.286 329.787 289.665C330.045 289.147 330.304 288.682 330.51 288.164C330.614 287.905 330.717 287.698 330.821 287.44C331.027 287.026 331.183 286.612 331.338 286.146C331.441 285.835 331.544 285.525 331.648 285.266C331.803 284.749 331.958 284.283 332.113 283.714C332.268 283.145 332.423 282.627 332.527 282.058C332.527 281.954 332.579 281.851 332.579 281.799C332.63 281.489 332.682 281.23 332.734 280.971C332.785 280.712 332.837 280.454 332.889 280.143C333.044 279.367 333.096 278.591 333.147 277.815C333.199 277.504 333.199 277.142 333.199 276.831C333.251 276.366 333.251 275.9 333.251 275.486C333.251 275.02 333.251 274.606 333.251 274.14C333.199 273.468 333.147 272.743 333.096 272.071C332.992 271.191 332.889 270.363 332.682 269.483C332.682 269.431 332.682 269.38 332.682 269.328C332.682 269.276 332.682 269.276 332.682 269.224C334.285 265.447 335.164 261.41 335.371 257.322C335.371 256.96 335.422 256.598 335.422 256.236C335.422 256.08 335.422 255.925 335.422 255.822C335.371 247.49 332.475 239.573 327.305 233.26Z" fill="#573319"/>
<path d="M278.807 211.267C281.134 210.336 283.305 208.887 284.96 207.024C285.787 206.092 286.459 205.057 286.924 203.919C287.39 202.832 287.7 201.538 287.855 200.296C288.01 199.054 287.958 197.813 287.545 196.829C287.338 196.312 287.028 195.898 286.614 195.536C286.201 195.173 285.684 194.966 285.115 194.811C283.977 194.501 282.736 194.604 281.651 195.018C280.513 195.432 279.583 196.26 279.169 197.295C278.704 198.382 278.755 199.675 279.117 200.814C279.479 202.004 280.203 203.091 281.237 203.764C282.271 204.488 283.512 204.85 284.805 204.954C286.097 205.057 287.39 204.954 288.682 204.643C291.216 204.022 293.646 202.625 295.249 200.555C296.851 198.434 297.524 195.691 297.42 193C297.627 195.691 297.11 198.485 295.507 200.762C293.904 202.987 291.474 204.54 288.837 205.316C287.493 205.678 286.149 205.885 284.753 205.833C283.357 205.782 281.961 205.419 280.72 204.643C280.1 204.281 279.531 203.764 279.117 203.194C278.652 202.625 278.342 201.952 278.083 201.28C277.566 199.934 277.463 198.382 277.98 196.933C278.238 196.208 278.704 195.536 279.221 195.018C279.789 194.501 280.41 194.087 281.082 193.776C282.478 193.155 283.977 193 285.477 193.31C286.201 193.466 286.976 193.776 287.597 194.242C288.269 194.708 288.786 195.38 289.096 196.105C289.458 196.829 289.613 197.606 289.716 198.33C289.82 199.054 289.82 199.831 289.716 200.555C289.613 202.004 289.303 203.35 288.786 204.747C288.269 206.144 287.493 207.386 286.614 208.524C285.684 209.663 284.649 210.646 283.46 211.474C282.323 212.302 281.082 213.078 279.789 213.647C279.117 213.958 278.393 213.647 278.083 213.026C277.773 212.405 278.135 211.577 278.807 211.267C278.755 211.267 278.807 211.267 278.807 211.267Z" fill="black"/>
<path d="M252.128 220.996C253.524 218.926 254.507 216.494 254.869 214.061C255.024 212.819 255.024 211.577 254.765 210.387C254.507 209.197 254.093 207.955 253.524 206.868C252.955 205.782 252.232 204.747 251.301 204.178C250.836 203.867 250.319 203.712 249.802 203.66C249.285 203.608 248.716 203.712 248.147 203.867C247.061 204.229 246.079 205.005 245.407 205.989C244.735 206.972 244.424 208.162 244.631 209.301C244.838 210.439 245.614 211.474 246.544 212.25C247.527 212.975 248.716 213.492 249.957 213.492C251.198 213.492 252.438 213.078 253.576 212.457C254.713 211.836 255.747 211.008 256.626 210.025C258.384 208.11 259.625 205.575 259.78 202.936C259.935 200.296 258.953 197.606 257.402 195.484C259.056 197.606 260.194 200.245 260.142 202.987C260.039 205.73 258.901 208.369 257.143 210.491C256.264 211.526 255.23 212.457 253.99 213.182C252.8 213.906 251.456 214.424 249.957 214.475C249.233 214.475 248.509 214.424 247.785 214.165C247.113 213.906 246.441 213.596 245.872 213.182C244.683 212.354 243.701 211.112 243.339 209.611C243.184 208.887 243.184 208.059 243.287 207.334C243.442 206.558 243.752 205.885 244.166 205.264C244.993 204.022 246.131 202.987 247.578 202.418C248.302 202.159 249.078 201.952 249.905 202.004C250.732 202.056 251.508 202.315 252.232 202.729C252.904 203.143 253.524 203.66 253.99 204.229C254.455 204.798 254.869 205.419 255.23 206.04C255.954 207.334 256.42 208.576 256.782 210.025C257.143 211.474 257.195 212.923 257.092 214.372C256.937 215.821 256.626 217.218 256.109 218.563C255.644 219.909 255.024 221.203 254.248 222.445C253.886 223.065 253.059 223.221 252.49 222.858C251.87 222.445 251.715 221.668 252.128 220.996C252.077 221.047 252.077 220.996 252.128 220.996Z" fill="black"/>
<path d="M238.892 239.573C238.737 237.089 238.117 234.553 236.876 232.38C236.255 231.293 235.48 230.31 234.601 229.534C233.722 228.758 232.584 227.981 231.499 227.464C230.413 226.947 229.172 226.533 228.086 226.636C227.569 226.688 227.052 226.843 226.587 227.102C226.121 227.361 225.759 227.774 225.398 228.292C224.777 229.223 224.415 230.465 224.467 231.656C224.519 232.846 224.984 233.984 225.811 234.76C226.69 235.537 227.879 235.951 229.12 235.951C230.361 236.002 231.602 235.64 232.584 234.916C233.567 234.191 234.342 233.105 234.859 231.914C235.376 230.724 235.686 229.43 235.842 228.137C236.1 225.549 235.531 222.807 234.084 220.582C232.636 218.356 230.206 216.856 227.672 216.079C230.258 216.752 232.739 218.149 234.342 220.426C235.945 222.651 236.617 225.498 236.462 228.24C236.41 229.637 236.1 230.983 235.583 232.277C235.066 233.57 234.291 234.812 233.153 235.744C232.584 236.209 231.912 236.572 231.24 236.779C230.568 236.986 229.844 237.141 229.12 237.141C227.672 237.193 226.173 236.779 224.984 235.795C224.415 235.33 223.898 234.657 223.588 233.984C223.226 233.312 223.071 232.535 223.019 231.811C222.916 230.31 223.226 228.809 224.053 227.464C224.467 226.791 224.984 226.222 225.656 225.756C226.328 225.291 227.104 225.032 227.931 224.928C228.707 224.825 229.482 224.877 230.258 225.084C230.981 225.239 231.705 225.498 232.326 225.756C233.67 226.326 234.808 227.05 235.997 227.981C237.134 228.913 238.065 230.051 238.84 231.293C239.616 232.535 240.185 233.881 240.598 235.226C241.012 236.572 241.322 238.021 241.477 239.418C241.529 240.142 241.012 240.763 240.34 240.815C239.616 240.867 238.996 240.349 238.944 239.677C238.892 239.573 238.892 239.573 238.892 239.573Z" fill="black"/>
<path d="M310.553 216.183C313.035 216.287 315.62 215.873 317.895 214.889C319.032 214.372 320.066 213.699 320.945 212.871C321.824 212.043 322.651 211.008 323.324 209.973C323.944 208.938 324.461 207.748 324.461 206.662C324.461 206.092 324.358 205.575 324.151 205.109C323.892 204.643 323.53 204.178 323.117 203.815C322.238 203.091 321.049 202.625 319.859 202.573C318.67 202.47 317.481 202.832 316.654 203.66C315.775 204.436 315.31 205.627 315.154 206.869C314.999 208.11 315.206 209.352 315.878 210.439C316.499 211.474 317.533 212.354 318.619 212.975C319.756 213.596 320.997 214.061 322.29 214.32C324.875 214.838 327.615 214.527 329.993 213.337C332.32 212.095 334.078 209.87 335.112 207.386C334.181 209.922 332.527 212.25 330.148 213.647C327.77 214.993 324.926 215.459 322.186 214.993C320.842 214.786 319.498 214.372 318.257 213.751C317.016 213.13 315.878 212.199 315.051 211.008C314.637 210.387 314.327 209.715 314.172 208.99C314.017 208.266 313.965 207.541 314.017 206.817C314.12 205.368 314.637 203.919 315.723 202.78C316.24 202.211 316.912 201.797 317.636 201.539C318.36 201.28 319.136 201.176 319.859 201.176C321.359 201.176 322.858 201.694 324.047 202.573C324.668 203.039 325.185 203.608 325.599 204.333C326.012 205.057 326.167 205.885 326.219 206.662C326.219 207.438 326.116 208.214 325.857 208.938C325.65 209.663 325.34 210.336 324.978 210.957C324.254 212.199 323.427 213.337 322.393 214.424C321.359 215.459 320.118 216.287 318.825 216.959C317.533 217.58 316.137 218.046 314.741 218.357C313.345 218.667 311.897 218.822 310.501 218.822C309.777 218.822 309.209 218.253 309.209 217.529C309.209 216.804 309.777 216.235 310.553 216.183C310.501 216.183 310.553 216.183 310.553 216.183Z" fill="black"/>
<path d="M329.993 234.191C332.216 235.33 334.75 236.054 337.18 236.054C338.421 236.054 339.662 235.899 340.799 235.537C341.937 235.174 343.126 234.553 344.16 233.881C345.194 233.208 346.125 232.328 346.59 231.345C346.848 230.828 346.952 230.31 346.952 229.793C346.952 229.275 346.797 228.706 346.538 228.189C346.021 227.154 345.142 226.222 344.108 225.705C343.074 225.135 341.833 224.98 340.747 225.342C339.662 225.705 338.679 226.584 338.059 227.619C337.387 228.654 337.077 229.896 337.232 231.138C337.387 232.38 337.904 233.57 338.679 234.605C339.455 235.64 340.386 236.572 341.471 237.348C343.591 238.9 346.228 239.78 348.865 239.677C351.502 239.521 354.035 238.228 356 236.416C354.139 238.331 351.657 239.728 348.917 240.039C346.176 240.297 343.384 239.47 341.109 237.917C339.972 237.141 338.938 236.209 338.059 235.123C337.232 234.036 336.508 232.742 336.301 231.293C336.198 230.569 336.198 229.844 336.353 229.12C336.508 228.395 336.766 227.723 337.128 227.102C337.852 225.86 338.938 224.721 340.386 224.204C341.109 223.945 341.885 223.842 342.661 223.893C343.436 223.945 344.16 224.204 344.832 224.514C346.176 225.187 347.314 226.222 348.038 227.568C348.4 228.24 348.658 229.016 348.71 229.793C348.761 230.621 348.606 231.449 348.296 232.173C347.986 232.898 347.521 233.57 347.004 234.088C346.487 234.657 345.918 235.123 345.349 235.537C344.16 236.365 342.971 237.037 341.575 237.555C340.179 238.072 338.731 238.331 337.283 238.383C335.836 238.435 334.388 238.228 332.992 237.917C331.596 237.607 330.252 237.141 328.907 236.52C328.235 236.209 327.977 235.433 328.287 234.812C328.597 234.191 329.321 233.881 329.993 234.191C329.993 234.14 329.993 234.191 329.993 234.191Z" fill="black"/>
</g>
<g filter="url(#filter2_d)">
<!--<g clip-path="url(#clip1)">-->
<path d="M390.875 188.039H319.683C321.37 180.32 331.46 170.867 344.33 166.74C348.516 165.385 352.89 164.692 357.294 164.66C361.667 164.692 366.041 165.385 370.195 166.74C371.945 167.307 373.663 167.969 375.318 168.725C375.318 168.725 375.318 168.725 375.35 168.725C384.596 174.081 390.875 181.926 390.875 188.039Z" fill="#890724"/>
<path d="M395.155 190.244H319.434C319.434 189.488 319.527 188.764 319.683 188.039H390.875C390.875 181.926 384.596 174.081 375.35 168.725C386.877 173.955 395.155 183.218 395.155 190.244Z" fill="#6E061D"/>
<path d="M370.195 166.74C369.071 168.662 364.166 176.287 356.982 176.287C349.797 176.287 345.33 168.693 344.299 166.771C348.485 165.417 352.858 164.723 357.263 164.692C361.667 164.692 366.041 165.385 370.195 166.74Z" fill="#6E061D"/>
<path d="M382.253 121.747C382.253 121.653 382.253 121.558 382.253 121.464C382.253 106.907 371.039 95.092 357.232 95.092C343.424 95.092 332.21 106.907 332.21 121.464C332.21 121.558 332.21 121.653 332.21 121.747C329.149 122.44 326.837 125.938 326.837 130.191C326.837 134.917 329.742 138.761 333.303 138.761C333.428 138.761 333.553 138.761 333.678 138.73C333.741 139.108 333.803 139.454 333.897 139.833C333.959 140.179 334.053 140.494 334.147 140.841C334.209 141.03 334.24 141.25 334.334 141.439C334.397 141.723 334.49 142.007 334.615 142.29C334.646 142.448 334.709 142.605 334.771 142.763C334.896 143.109 335.021 143.424 335.146 143.739C335.334 144.181 335.521 144.59 335.709 145C335.865 145.315 336.021 145.63 336.177 145.945C336.333 146.26 336.521 146.575 336.708 146.859C336.896 147.142 337.083 147.457 337.27 147.741C337.864 148.686 338.551 149.6 339.301 150.451C339.645 150.86 340.019 151.27 340.394 151.648C340.582 151.837 340.769 152.026 340.988 152.215C343.331 154.42 346.08 156.122 349.047 157.225V165.354C349.047 169.481 352.265 172.884 356.357 173.104C360.449 172.884 363.635 169.481 363.667 165.354V158.453C363.823 158.296 363.948 158.17 364.104 158.012C364.135 158.012 364.135 157.981 364.135 157.981C364.229 157.855 364.323 157.729 364.416 157.603C367.79 156.5 370.851 154.673 373.444 152.246C373.632 152.057 373.819 151.868 374.038 151.679C374.413 151.301 374.787 150.923 375.131 150.482C375.881 149.631 376.568 148.749 377.162 147.772C377.349 147.489 377.536 147.205 377.724 146.89C377.911 146.575 378.067 146.292 378.224 145.976C378.411 145.661 378.567 145.346 378.692 145.031C378.911 144.622 379.098 144.181 379.254 143.771C379.379 143.424 379.504 143.109 379.629 142.794C379.692 142.637 379.754 142.479 379.786 142.322C379.879 142.038 379.973 141.754 380.067 141.471C380.129 141.282 380.192 141.061 380.254 140.872C380.348 140.526 380.442 140.211 380.504 139.864C380.598 139.486 380.66 139.139 380.723 138.761C380.848 138.793 380.973 138.793 381.129 138.793C384.69 138.793 387.595 134.949 387.595 130.223C387.626 125.969 385.283 122.44 382.253 121.747Z" fill="#E9B088"/>
<path d="M325.996 129.957C325.996 134.329 328.901 137.885 332.463 137.885C332.588 137.885 332.713 137.885 332.869 137.855C332.869 137.797 332.837 137.739 332.837 137.681C329.932 136.923 327.714 133.746 327.714 129.928C327.714 129.112 327.808 128.296 328.027 127.509C328.464 125.586 329.651 123.895 331.369 122.788C331.369 122.584 331.338 122.351 331.338 122.117C328.933 122.642 326.996 124.74 326.277 127.509C326.121 128.325 325.996 129.141 325.996 129.957Z" fill="#B48767"/>
<path d="M387.419 127.637C386.662 124.656 384.622 122.366 382.089 121.833C382.089 122.084 382.089 122.303 382.056 122.554C383.865 123.746 385.149 125.566 385.576 127.637C385.807 128.484 385.905 129.362 385.905 130.24C385.905 134.35 383.602 137.77 380.509 138.586C380.542 138.397 380.575 138.209 380.608 138.052C380.641 137.864 380.674 137.707 380.674 137.519C380.74 137.017 380.806 136.515 380.806 136.013C380.838 135.793 380.838 135.574 380.838 135.354C380.871 135.072 380.871 134.758 380.871 134.476C380.871 134.193 380.871 133.88 380.871 133.597C380.838 133.158 380.838 132.688 380.773 132.248C380.707 131.684 380.641 131.119 380.542 130.554V130.429V130.366C381.431 127.856 381.957 125.221 382.056 122.554C382.056 122.335 382.089 122.084 382.089 121.833V121.55C382.089 116.342 380.542 111.229 377.581 106.836C378.469 110.287 378.009 115.119 378.009 121.55V121.833C378.009 122.084 378.009 122.303 377.976 122.554C377.877 125.221 377.384 127.856 376.462 130.366V130.429V130.554C376.561 131.119 376.627 131.684 376.693 132.248C376.726 132.688 376.759 133.127 376.791 133.597C376.791 133.88 376.791 134.162 376.791 134.476C376.791 134.758 376.791 135.072 376.759 135.354C376.759 135.574 376.759 135.793 376.726 136.013C376.693 136.515 376.66 137.048 376.594 137.519C376.561 137.707 376.528 137.864 376.528 138.052C376.528 138.24 376.462 138.429 376.43 138.617L376.397 138.805C376.331 139.182 376.265 139.527 376.166 139.903C376.101 140.248 376.002 140.562 375.903 140.907C375.837 141.095 375.772 141.315 375.706 141.503C375.64 141.786 375.541 142.068 375.41 142.35C375.377 142.507 375.311 142.664 375.245 142.821C375.113 143.166 374.982 143.48 374.85 143.793C374.653 144.233 374.455 144.641 374.258 145.048C374.094 145.362 373.929 145.676 373.765 145.99C373.6 146.303 373.403 146.617 373.238 146.899C373.041 147.182 372.843 147.495 372.646 147.778C372.021 148.719 371.297 149.629 370.507 150.476C370.145 150.884 369.75 151.292 369.356 151.668C369.158 151.856 368.961 152.044 368.731 152.233C366.033 154.648 362.775 156.499 359.222 157.566C359.123 157.692 359.024 157.817 358.926 157.943L358.893 157.974C358.498 158.413 358.07 158.79 357.577 159.135C357.445 159.229 357.281 159.323 357.149 159.417C356.195 159.982 355.142 160.421 354.023 160.641L353.727 160.703H353.76C354.221 160.797 354.681 160.86 355.142 160.892C355.339 160.892 355.537 160.923 355.767 160.923C355.997 160.923 356.162 160.923 356.392 160.892C356.853 160.86 357.314 160.797 357.774 160.703C357.906 160.672 358.004 160.672 358.136 160.641C359.255 160.39 360.308 159.982 361.262 159.417C361.426 159.323 361.558 159.229 361.689 159.135C361.986 158.915 362.282 158.695 362.545 158.413V165.284C362.545 169.394 359.156 172.782 354.846 173.001C354.978 173.033 355.109 173.033 355.241 173.033H356.326C360.801 173.033 364.42 169.55 364.453 165.284V157.127C367.546 155.997 370.409 154.335 372.81 152.17C373.008 151.982 373.205 151.793 373.435 151.605C373.83 151.229 374.225 150.852 374.587 150.413C375.377 149.566 376.101 148.688 376.726 147.715C376.923 147.433 377.12 147.15 377.318 146.837C377.515 146.523 377.68 146.241 377.844 145.927C378.042 145.613 378.206 145.299 378.338 144.986C378.568 144.578 378.766 144.139 378.93 143.731C379.062 143.386 379.193 143.072 379.325 142.758C379.391 142.601 379.457 142.444 379.489 142.288C379.588 142.005 379.687 141.723 379.786 141.44C379.851 141.252 379.917 141.033 379.983 140.844C380.082 140.499 380.18 140.186 380.246 139.84C380.345 139.464 380.411 139.119 380.476 138.742C380.608 138.774 380.74 138.774 380.904 138.774C384.655 138.774 387.715 134.946 387.715 130.24C387.748 129.362 387.616 128.484 387.419 127.637Z" fill="#B48767"/>
<path d="M353.174 136.048C354.86 137.71 357.703 137.768 359.484 136.194C359.546 136.136 359.577 136.107 359.64 136.048" fill="#B48767"/>
<path d="M365.885 103.473C365.447 103.378 347.423 100.07 336.521 112.295C326.118 123.984 315.904 121.275 314.748 120.928C314.717 120.928 314.717 120.928 314.717 120.928C314.717 120.928 326.65 126.788 337.677 114.375C348.704 101.992 367.04 105.552 367.04 105.552L365.885 103.473Z" fill="#C4BCA9"/>
<path d="M356.107 85.8289C356.107 85.8289 343.206 89.2002 334.24 105.143C325.275 121.086 314.654 120.897 314.654 120.897C314.654 120.897 325.494 124.677 336.521 112.295C347.548 99.9127 365.885 103.473 365.885 103.473L356.107 85.8289Z" fill="#EBDEBF"/>
<path d="M332.366 124.867C333.241 125.717 333.303 128.175 333.303 128.175C334.178 135.201 337.458 136.902 342.8 136.902C348.141 136.902 349.297 135.705 350.828 134.508C352.358 133.279 353.514 128.962 354.014 127.45C354.514 125.906 356.794 125.78 356.794 125.78C356.794 125.78 359.106 125.938 359.574 127.45C360.074 128.994 361.23 133.311 362.761 134.508C364.291 135.737 365.447 136.902 370.789 136.902C376.131 136.902 379.379 135.201 380.285 128.175C380.285 128.175 380.379 125.717 381.222 124.867C382.066 124.016 382.503 124.016 382.503 123.323C382.503 122.629 383.753 121.527 380.254 121.275C376.787 121.023 375.069 120.645 371.382 120.645C367.665 120.645 361.792 120.676 360.793 121.684C359.793 122.693 358.606 122.976 356.544 122.976C354.483 122.976 353.733 122.661 352.765 121.684C351.796 120.708 345.892 120.645 342.175 120.645C338.458 120.645 336.771 121.023 333.303 121.275C329.836 121.527 331.054 122.629 331.054 123.323C331.054 124.016 331.491 124.016 332.366 124.867ZM363.667 122.693C366.853 121.716 374.662 121.401 378.13 122.535C378.13 122.535 379.536 122.913 379.504 124.867C379.473 126.851 378.692 131.136 378.13 132.365C377.568 133.594 377.005 135.894 370.664 136.083C364.323 136.272 362.167 132.869 361.48 129.782C360.762 126.757 360.48 123.669 363.667 122.693ZM335.646 122.566C339.082 121.401 346.923 121.716 350.109 122.724C353.296 123.732 353.014 126.788 352.327 129.845C351.64 132.932 349.485 136.304 343.143 136.146C336.802 135.957 336.24 133.689 335.677 132.428C335.115 131.168 334.334 126.883 334.303 124.93C334.24 122.913 335.646 122.566 335.646 122.566Z" fill="black"/>
<path d="M373.007 148.812C369.321 151.459 363.073 151.49 361.355 148.938C360.824 148.15 360.793 147.205 360.887 146.418C360.324 146.481 358.762 146.512 357.2 146.512C355.639 146.512 354.045 146.481 353.514 146.418C353.608 147.174 353.546 148.024 353.077 148.781C351.359 151.427 344.362 151.774 341.082 148.56C337.052 144.622 336.646 133.374 335.49 129.404C335.459 129.341 335.427 129.183 335.396 129.183C334.678 129.12 332.397 146.481 336.271 151.018C336.771 151.805 339.926 156.878 343.674 159.273C343.799 158.831 343.362 158.516 343.518 158.107C345.299 160.785 347.079 161.856 350.172 163.432C349.859 162.707 350.172 163.432 349.953 162.707C351.421 165.196 356.982 166.645 357.232 166.614C357.482 166.645 363.042 165.196 364.51 162.707C364.291 163.432 364.635 162.707 364.291 163.432C367.384 161.856 369.133 160.785 370.914 158.107C371.07 158.516 370.633 158.831 370.758 159.273C374.506 156.847 377.349 152.215 378.161 151.018C382.285 146.197 379.973 133.468 379.379 130.569C379.379 130.538 379.317 130.254 379.223 130.223C378.474 130.16 379.629 144.023 373.007 148.812Z" fill="#EBDEBF"/>
<path d="M364.479 138.887C362.448 138.541 359.044 138.068 357.138 139.265C355.232 138.068 351.796 138.541 349.797 138.887C347.267 139.265 345.455 141.282 343.549 143.109C342.8 143.834 341.988 144.559 340.957 144.968C342.612 146.039 347.61 144.244 348.485 143.708C348.391 143.991 348.423 144.464 348.329 144.716C349.61 145.031 351.578 143.897 352.515 142.794C352.421 143.204 352.484 143.802 352.265 144.244C353.389 144.433 356.669 143.487 357.107 142.952C357.544 143.519 360.855 144.464 361.949 144.244C361.761 143.834 361.792 143.235 361.699 142.794C362.667 143.865 364.604 145.031 365.885 144.716C365.791 144.433 365.822 143.96 365.728 143.708C366.603 144.244 371.601 146.039 373.257 144.968C372.257 144.559 371.414 143.834 370.664 143.109C368.821 141.282 367.009 139.265 364.479 138.887Z" fill="#EBDEBF"/>
<!--</g>-->
</g>
<g filter="url(#filter3_d)">
<path d="M190.491 350.059H96.1564C98.3916 339.909 111.761 327.48 128.815 322.053C134.362 320.271 140.157 319.36 145.993 319.319C151.788 319.36 157.583 320.271 163.089 322.053C165.407 322.799 167.683 323.669 169.877 324.663C169.877 324.663 169.877 324.663 169.919 324.663C182.171 331.706 190.491 342.021 190.491 350.059Z" fill="#366893"/>
<path d="M196.162 352.959H95.8253C95.8253 351.964 95.9494 351.011 96.1564 350.059H190.491C190.491 342.021 182.171 331.706 169.919 324.663C185.192 331.54 196.162 343.72 196.162 352.959Z" fill="#2B5376"/>
<path d="M163.089 322.053C161.599 324.58 155.1 334.606 145.58 334.606C136.059 334.606 130.14 324.621 128.774 322.094C134.321 320.313 140.116 319.401 145.952 319.36C151.788 319.36 157.583 320.271 163.089 322.053Z" fill="#2B5376"/>
<path d="M179.066 262.893C179.066 262.769 179.066 262.644 179.066 262.52C179.066 243.38 164.206 227.844 145.911 227.844C127.615 227.844 112.755 243.38 112.755 262.52C112.755 262.644 112.755 262.769 112.755 262.893C108.698 263.804 105.635 268.403 105.635 273.996C105.635 280.21 109.485 285.264 114.204 285.264C114.369 285.264 114.535 285.264 114.7 285.223C114.783 285.72 114.866 286.176 114.99 286.673C115.073 287.129 115.197 287.543 115.321 287.999C115.404 288.247 115.445 288.537 115.57 288.786C115.652 289.159 115.777 289.531 115.942 289.904C115.984 290.111 116.066 290.319 116.149 290.526C116.315 290.981 116.48 291.396 116.646 291.81C116.894 292.39 117.143 292.929 117.391 293.467C117.598 293.882 117.805 294.296 118.012 294.71C118.219 295.124 118.467 295.539 118.715 295.911C118.964 296.284 119.212 296.699 119.461 297.072C120.247 298.314 121.158 299.516 122.151 300.634C122.606 301.173 123.103 301.712 123.6 302.209C123.848 302.457 124.097 302.706 124.386 302.954C127.491 305.854 131.133 308.092 135.066 309.542V320.23C135.066 325.657 139.329 330.132 144.752 330.422C150.174 330.132 154.396 325.657 154.438 320.23V311.157C154.644 310.95 154.81 310.784 155.017 310.577C155.058 310.577 155.058 310.536 155.058 310.536C155.183 310.37 155.307 310.204 155.431 310.039C159.901 308.589 163.958 306.186 167.394 302.996C167.642 302.747 167.89 302.499 168.18 302.25C168.677 301.753 169.173 301.256 169.629 300.676C170.622 299.557 171.533 298.397 172.319 297.113C172.568 296.74 172.816 296.367 173.064 295.953C173.313 295.539 173.52 295.166 173.727 294.752C173.975 294.337 174.182 293.923 174.348 293.509C174.637 292.97 174.886 292.39 175.093 291.852C175.258 291.396 175.424 290.982 175.589 290.567C175.672 290.36 175.755 290.153 175.796 289.946C175.92 289.573 176.045 289.2 176.169 288.827C176.252 288.579 176.334 288.289 176.417 288.04C176.541 287.584 176.666 287.17 176.748 286.714C176.872 286.217 176.955 285.762 177.038 285.264C177.204 285.306 177.369 285.306 177.576 285.306C182.295 285.306 186.144 280.251 186.144 274.037C186.186 268.444 183.081 263.804 179.066 262.893Z" fill="#C69B7C"/>
<path d="M105.635 273.996C105.635 280.21 109.485 285.264 114.204 285.264C114.369 285.264 114.535 285.264 114.742 285.223C114.742 285.14 114.7 285.057 114.7 284.974C110.851 283.897 107.912 279.381 107.912 273.954C107.912 272.794 108.036 271.634 108.326 270.516C108.905 267.781 110.478 265.378 112.755 263.804C112.755 263.514 112.713 263.183 112.713 262.851C109.526 263.597 106.96 266.58 106.008 270.516C105.801 271.676 105.635 272.836 105.635 273.996Z" fill="#9B6E50"/>
<path d="M185.772 270.557C184.82 266.621 182.254 263.597 179.066 262.893C179.066 263.224 179.066 263.514 179.025 263.846C181.302 265.42 182.916 267.823 183.454 270.557C183.744 271.676 183.868 272.836 183.868 273.996C183.868 279.423 180.97 283.939 177.079 285.016C177.121 284.767 177.162 284.519 177.204 284.311C177.245 284.063 177.286 283.856 177.286 283.607C177.369 282.944 177.452 282.281 177.452 281.619C177.493 281.329 177.493 281.039 177.493 280.749C177.535 280.376 177.535 279.961 177.535 279.589C177.535 279.216 177.535 278.801 177.535 278.429C177.493 277.849 177.493 277.227 177.411 276.647C177.328 275.901 177.245 275.156 177.121 274.41V274.244V274.161C178.238 270.847 178.901 267.367 179.025 263.846C179.025 263.556 179.066 263.224 179.066 262.893V262.52C179.066 255.643 177.121 248.89 173.395 243.09C174.513 247.647 173.934 254.027 173.934 262.52V262.893C173.934 263.224 173.934 263.514 173.892 263.846C173.768 267.367 173.147 270.847 171.988 274.161V274.244V274.41C172.112 275.156 172.195 275.901 172.278 276.647C172.319 277.227 172.361 277.807 172.402 278.429C172.402 278.801 172.402 279.174 172.402 279.589C172.402 279.961 172.402 280.376 172.361 280.749C172.361 281.039 172.361 281.329 172.319 281.619C172.278 282.281 172.236 282.986 172.154 283.607C172.112 283.856 172.071 284.063 172.071 284.311C172.071 284.56 171.988 284.809 171.947 285.057L171.905 285.306C171.823 285.803 171.74 286.259 171.616 286.756C171.533 287.211 171.409 287.626 171.284 288.081C171.202 288.33 171.119 288.62 171.036 288.869C170.953 289.241 170.829 289.614 170.664 289.987C170.622 290.194 170.539 290.401 170.457 290.609C170.291 291.064 170.125 291.479 169.96 291.893C169.712 292.473 169.463 293.011 169.215 293.55C169.008 293.964 168.801 294.379 168.594 294.793C168.387 295.207 168.139 295.621 167.932 295.994C167.683 296.367 167.435 296.781 167.187 297.154C166.4 298.397 165.489 299.599 164.496 300.717C164.041 301.256 163.544 301.794 163.047 302.291C162.799 302.54 162.551 302.789 162.261 303.037C158.867 306.227 154.769 308.671 150.298 310.08C150.174 310.246 150.05 310.411 149.926 310.577L149.884 310.619C149.388 311.199 148.849 311.696 148.229 312.151C148.063 312.276 147.856 312.4 147.69 312.524C146.49 313.27 145.166 313.85 143.758 314.14L143.386 314.223H143.427C144.007 314.347 144.586 314.43 145.166 314.471C145.414 314.471 145.662 314.513 145.952 314.513C146.242 314.513 146.449 314.513 146.738 314.471C147.318 314.43 147.897 314.347 148.477 314.223C148.643 314.181 148.767 314.181 148.932 314.14C150.34 313.809 151.664 313.27 152.865 312.524C153.072 312.4 153.237 312.276 153.403 312.151C153.775 311.861 154.148 311.571 154.479 311.199V320.271C154.479 325.699 150.215 330.173 144.793 330.463C144.959 330.504 145.124 330.504 145.29 330.504H146.656C152.285 330.504 156.838 325.906 156.88 320.271V309.5C160.771 308.009 164.372 305.813 167.394 302.954C167.642 302.706 167.89 302.457 168.18 302.209C168.677 301.711 169.173 301.214 169.629 300.634C170.622 299.516 171.533 298.356 172.319 297.071C172.568 296.699 172.816 296.326 173.064 295.911C173.313 295.497 173.52 295.124 173.727 294.71C173.975 294.296 174.182 293.881 174.348 293.467C174.637 292.929 174.886 292.349 175.093 291.81C175.258 291.354 175.424 290.94 175.589 290.526C175.672 290.319 175.755 290.111 175.796 289.904C175.92 289.531 176.045 289.159 176.169 288.786C176.252 288.537 176.334 288.247 176.417 287.999C176.541 287.543 176.666 287.129 176.748 286.673C176.872 286.176 176.955 285.72 177.038 285.223C177.204 285.264 177.369 285.264 177.576 285.264C182.295 285.264 186.145 280.21 186.145 273.996C186.186 272.836 186.02 271.676 185.772 270.557Z" fill="#9B6E50"/>
<path d="M141.647 282.654C143.882 285.016 147.649 285.099 150.009 282.861C150.091 282.779 150.133 282.737 150.215 282.654" fill="#9B6E50"/>
<path d="M103.566 268.568C102.903 267.864 102.49 266.953 102.655 265.71C102.655 265.668 102.655 265.586 102.696 265.544C103.11 263.597 104.932 262.976 106.712 262.354C108.491 261.733 110.23 261.236 110.685 259.496C111.141 257.714 109.857 256.388 108.574 254.938C107.953 254.234 107.291 253.488 106.96 252.701C106.587 251.914 106.463 251.044 106.836 250.091C107.208 249.138 107.912 248.6 108.698 248.268C109.526 247.937 110.478 247.854 111.43 247.771C112.382 247.688 113.334 247.647 114.162 247.398C114.99 247.191 115.652 246.777 116.108 245.99C116.563 245.203 116.563 244.416 116.315 243.587C116.108 242.758 115.652 241.93 115.239 241.06C114.825 240.19 114.411 239.32 114.286 238.45C114.162 237.58 114.245 236.668 114.949 235.881C116.232 234.224 118.26 234.638 120.081 235.053C120.992 235.26 121.944 235.55 122.772 235.633C123.186 235.674 123.6 235.633 123.972 235.55C124.345 235.426 124.717 235.301 125.049 235.011C125.38 234.721 125.628 234.39 125.752 234.058C125.918 233.686 126.001 233.313 126.042 232.898C126.125 232.07 126.042 231.117 125.959 230.164C125.876 229.211 125.876 228.258 126.125 227.388C126.332 226.518 126.829 225.731 127.781 225.276C129.643 224.281 131.34 225.441 132.83 226.601C133.203 226.891 133.576 227.181 133.948 227.471C134.321 227.761 134.693 228.01 135.066 228.217C135.811 228.631 136.556 228.797 137.384 228.59C139.081 228.217 139.578 226.353 140.281 224.571C140.943 222.79 141.771 220.926 143.841 220.801C145.911 220.594 146.987 222.334 147.939 223.991C148.436 224.82 148.85 225.648 149.429 226.27C150.009 226.933 150.671 227.388 151.581 227.43C152.492 227.471 153.237 227.14 153.858 226.56C154.479 225.98 155.058 225.234 155.638 224.447C156.217 223.66 156.797 222.914 157.501 222.376C158.204 221.837 159.032 221.547 160.026 221.713C161.019 221.92 161.681 222.458 162.178 223.204C162.675 223.95 162.965 224.861 163.213 225.814C163.461 226.726 163.71 227.637 164.123 228.383C164.496 229.17 165.034 229.75 165.862 229.998C167.518 230.578 168.966 229.377 170.498 228.258C172.03 227.14 173.727 226.104 175.589 227.14C176.5 227.72 176.955 228.466 177.121 229.377C177.286 230.288 177.204 231.2 177.079 232.153C176.955 233.106 176.79 234.058 176.79 234.887C176.79 235.301 176.831 235.716 176.955 236.047C177.079 236.42 177.286 236.71 177.576 237.041C178.156 237.663 178.901 237.828 179.687 237.87C180.515 237.911 181.467 237.746 182.419 237.663C183.371 237.58 184.365 237.497 185.234 237.746C185.648 237.87 186.062 238.036 186.476 238.284C186.848 238.533 187.138 238.906 187.428 239.403C187.676 239.858 187.8 240.356 187.8 240.811C187.8 241.06 187.8 241.308 187.759 241.516C187.8 241.474 187.8 241.474 187.842 241.433C188.504 240.646 189.125 239.817 189.456 238.906C189.622 238.45 189.704 237.994 189.704 237.497C189.704 237 189.58 236.503 189.29 236.006C189.001 235.508 188.669 235.094 188.297 234.804C187.883 234.514 187.469 234.348 186.972 234.224C186.062 233.976 184.986 234.058 183.992 234.141C182.999 234.224 181.964 234.39 181.095 234.348C180.225 234.307 179.439 234.1 178.818 233.437C178.528 233.106 178.28 232.774 178.156 232.36C178.032 231.987 177.99 231.531 177.99 231.117C177.949 230.247 178.156 229.211 178.28 228.217C178.404 227.181 178.487 226.187 178.321 225.234C178.156 224.281 177.659 223.453 176.666 222.831C174.679 221.671 172.857 222.79 171.202 224.033C169.546 225.193 168.014 226.518 166.235 225.897C165.324 225.607 164.786 224.986 164.372 224.157C163.958 223.37 163.71 222.376 163.42 221.381C163.13 220.387 162.84 219.393 162.302 218.606C161.806 217.818 161.06 217.238 159.984 217.031C158.908 216.824 158.039 217.197 157.294 217.736C156.549 218.316 155.928 219.103 155.307 219.931C154.686 220.76 154.106 221.588 153.403 222.21C152.699 222.831 151.954 223.163 150.961 223.121C149.967 223.08 149.263 222.583 148.643 221.878C148.063 221.174 147.566 220.304 147.07 219.434C146.035 217.694 144.917 215.83 142.682 216.037C140.447 216.161 139.578 218.191 138.874 220.097C138.129 221.961 137.591 223.991 135.769 224.406C134.859 224.654 134.072 224.488 133.286 224.033C132.872 223.826 132.499 223.536 132.085 223.204C131.713 222.914 131.299 222.583 130.926 222.293C129.353 221.05 127.532 219.766 125.545 220.843C124.511 221.34 124.014 222.21 123.807 223.121C123.558 224.074 123.558 225.068 123.641 226.104C123.724 227.14 123.807 228.176 123.724 229.046C123.683 229.501 123.558 229.874 123.393 230.288C123.227 230.661 122.979 231.034 122.606 231.324C122.234 231.614 121.861 231.78 121.447 231.904C121.034 232.028 120.62 232.028 120.164 232.028C119.254 231.987 118.26 231.656 117.267 231.407C115.321 230.91 113.169 230.537 111.762 232.277C111.016 233.147 110.934 234.1 111.058 235.011C111.182 235.964 111.596 236.876 112.051 237.828C112.507 238.74 112.962 239.651 113.21 240.521C113.459 241.391 113.459 242.261 112.962 243.09C112.507 243.918 111.762 244.374 110.892 244.623C110.023 244.871 109.03 244.954 107.995 245.037C106.96 245.12 105.925 245.244 105.056 245.576C104.187 245.907 103.442 246.487 103.028 247.523C102.614 248.517 102.738 249.47 103.152 250.34C103.566 251.21 104.228 251.997 104.89 252.743C106.256 254.276 107.664 255.726 107.126 257.631C106.629 259.496 104.808 260.076 102.903 260.697C100.999 261.36 99.0539 262.023 98.64 264.136C98.64 264.218 98.5986 264.26 98.5986 264.343C98.433 265.71 98.8469 266.663 99.5506 267.408C100.254 268.154 101.206 268.651 102.2 268.983C103.152 269.314 104.145 269.521 104.932 269.646C105.014 269.646 105.097 269.687 105.18 269.687C104.518 269.314 103.98 268.983 103.566 268.568Z" fill="black"/>
<path d="M189.911 257.631C189.456 254.069 182.171 251.417 182.171 251.417C182.171 251.417 181.881 250.34 181.922 249.18C179.77 250.216 180.805 253.737 180.805 253.737C180.805 253.737 187.635 256.223 188.049 259.537C188.131 260.117 188.007 260.614 187.8 261.07C189.042 260.366 190.16 259.289 189.911 257.631Z" fill="black"/>
<path d="M183.951 247.688C184.033 247.316 184.199 246.943 184.406 246.57C184.861 245.824 185.441 245.161 186.062 244.416C186.683 243.67 187.262 242.924 187.593 242.054C187.759 241.64 187.842 241.184 187.8 240.728C187.8 240.273 187.676 239.817 187.428 239.32C187.179 238.864 186.848 238.491 186.476 238.201C186.103 237.953 185.689 237.746 185.234 237.663C184.365 237.414 183.371 237.497 182.419 237.58C181.467 237.663 180.515 237.828 179.687 237.787C178.859 237.746 178.114 237.58 177.576 236.958C177.286 236.668 177.079 236.337 176.955 235.964C176.831 235.591 176.79 235.177 176.79 234.804C176.748 233.976 176.955 233.064 177.079 232.07C177.204 231.117 177.286 230.164 177.121 229.294C176.955 228.383 176.5 227.637 175.589 227.057C173.727 225.98 172.03 227.016 170.498 228.176C168.925 229.253 167.518 230.496 165.862 229.916C164.993 229.667 164.496 229.046 164.123 228.3C163.751 227.554 163.503 226.643 163.213 225.731C162.923 224.82 162.675 223.867 162.178 223.121C161.681 222.376 161.019 221.837 160.026 221.63C159.032 221.464 158.204 221.796 157.501 222.293C156.797 222.831 156.217 223.577 155.638 224.364C155.058 225.151 154.52 225.938 153.858 226.477C153.237 227.057 152.492 227.388 151.581 227.347C150.671 227.306 149.967 226.85 149.429 226.187C148.849 225.524 148.436 224.737 147.939 223.908C146.987 222.293 145.911 220.553 143.841 220.718C141.771 220.843 140.943 222.707 140.281 224.488C139.577 226.228 139.081 228.093 137.384 228.507C136.556 228.756 135.811 228.59 135.066 228.134C134.693 227.927 134.321 227.678 133.948 227.388C133.576 227.098 133.203 226.808 132.83 226.518C131.34 225.358 129.685 224.157 127.781 225.193C126.828 225.648 126.373 226.436 126.125 227.306C125.918 228.176 125.918 229.128 125.959 230.081C126.042 231.034 126.125 231.987 126.042 232.816C126.001 233.23 125.876 233.603 125.752 233.976C125.587 234.348 125.38 234.68 125.049 234.928C124.717 235.218 124.345 235.384 123.972 235.467C123.6 235.591 123.186 235.591 122.772 235.55C121.944 235.508 120.992 235.218 120.081 234.97C118.26 234.514 116.273 234.141 114.949 235.798C114.286 236.586 114.162 237.497 114.286 238.367C114.411 239.237 114.783 240.107 115.238 240.977C115.652 241.847 116.108 242.676 116.315 243.504C116.522 244.333 116.563 245.12 116.108 245.907C115.652 246.694 114.99 247.108 114.162 247.316C113.334 247.564 112.424 247.606 111.43 247.688C110.478 247.771 109.526 247.854 108.698 248.186C107.871 248.517 107.167 249.056 106.836 250.008C106.463 250.961 106.587 251.831 106.96 252.618C107.332 253.406 107.953 254.151 108.574 254.856C109.857 256.306 111.141 257.631 110.685 259.413C110.23 261.153 108.491 261.65 106.712 262.271C104.932 262.893 103.11 263.514 102.696 265.461C102.696 265.503 102.696 265.586 102.655 265.627C102.489 266.911 102.903 267.781 103.566 268.486C104.228 269.19 105.139 269.604 106.008 269.936C106.919 270.267 107.829 270.433 108.574 270.557C109.319 270.681 109.816 270.723 110.023 270.93L111.761 267.947C112.093 267.036 112.755 266.497 113.541 266.166C114.328 265.834 115.28 265.751 116.232 265.668C117.184 265.586 118.095 265.544 118.881 265.337C119.709 265.13 120.288 264.757 120.744 264.053C120.951 263.68 121.033 263.307 121.033 262.934C121.033 262.561 120.992 262.188 120.868 261.774C120.62 260.987 120.164 260.158 119.75 259.33C119.336 258.501 118.922 257.631 118.757 256.803C118.674 256.388 118.674 255.933 118.757 255.518C118.84 255.104 119.047 254.731 119.336 254.317C119.668 253.944 119.999 253.654 120.371 253.488C120.785 253.323 121.199 253.24 121.613 253.24C122.482 253.24 123.393 253.447 124.304 253.696C125.214 253.986 126.125 254.276 126.911 254.358C127.325 254.4 127.698 254.4 128.07 254.317C128.443 254.234 128.774 254.11 129.105 253.82C130.347 252.743 130.057 251.003 129.85 249.097C129.602 247.191 129.602 245.327 131.258 244.25C132.996 243.338 134.61 244.333 136.142 245.534C136.887 246.114 137.632 246.694 138.336 247.067C139.081 247.44 139.784 247.647 140.571 247.357C141.357 247.067 141.813 246.528 142.185 245.783C142.516 245.037 142.723 244.126 142.972 243.214C143.22 242.303 143.468 241.391 143.924 240.646C144.379 239.941 145.041 239.361 145.993 239.196C146.945 239.071 147.732 239.361 148.394 239.941C149.056 240.521 149.595 241.267 150.091 242.054C150.588 242.841 151.085 243.67 151.623 244.25C152.161 244.871 152.823 245.244 153.651 245.286C155.307 245.327 156.217 243.753 157.294 242.22C158.453 240.728 159.819 239.278 161.723 239.817C162.675 240.066 163.254 240.728 163.627 241.516C163.999 242.303 164.123 243.256 164.248 244.167C164.372 245.12 164.413 246.031 164.662 246.818C164.869 247.606 165.241 248.227 165.945 248.6C167.352 249.387 168.884 248.434 170.581 247.564C172.236 246.736 174.099 245.99 175.631 247.316C175.631 247.316 178.321 249.884 175.424 257.341C172.526 264.798 183.288 263.556 183.288 263.556C183.288 263.556 188.463 262.727 188.049 259.413C187.635 256.098 180.805 253.613 180.805 253.613C180.805 253.613 183.868 248.061 183.951 247.688Z" fill="#2E1B0B"/>
</g>
<g filter="url(#filter4_d)">
<!--<g clip-path="url(#clip2)">-->
<path d="M247.141 444.018H152.241C154.49 433.728 167.94 421.128 185.096 415.626C190.676 413.82 196.506 412.896 202.377 412.854C208.207 412.896 214.037 413.82 219.575 415.626C221.907 416.382 224.197 417.264 226.404 418.272C226.404 418.272 226.404 418.272 226.446 418.272C238.771 425.412 247.141 435.87 247.141 444.018Z" fill="#CCCA8C"/>
<path d="M252.846 446.958H151.908C151.908 445.95 152.033 444.984 152.241 444.018H247.141C247.141 435.87 238.771 425.412 226.446 418.272C241.811 425.244 252.846 437.592 252.846 446.958Z" fill="#A3A270"/>
<path d="M219.575 415.626C218.076 418.188 211.538 428.352 201.961 428.352C192.383 428.352 186.429 418.23 185.054 415.668C190.634 413.862 196.464 412.938 202.335 412.896C208.207 412.896 214.037 413.82 219.575 415.626Z" fill="#A3A270"/>
<path d="M235.648 355.65C235.648 355.524 235.648 355.398 235.648 355.272C235.648 335.868 220.699 320.118 202.294 320.118C183.888 320.118 168.939 335.868 168.939 355.272C168.939 355.398 168.939 355.524 168.939 355.65C164.858 356.574 161.777 361.236 161.777 366.906C161.777 373.206 165.65 378.33 170.397 378.33C170.563 378.33 170.73 378.33 170.896 378.288C170.98 378.792 171.063 379.254 171.188 379.758C171.271 380.22 171.396 380.64 171.521 381.102C171.604 381.354 171.646 381.648 171.771 381.9C171.854 382.278 171.979 382.656 172.146 383.034C172.187 383.244 172.271 383.454 172.354 383.664C172.52 384.126 172.687 384.546 172.854 384.966C173.103 385.554 173.353 386.1 173.603 386.646C173.811 387.066 174.019 387.486 174.228 387.906C174.436 388.326 174.686 388.746 174.936 389.124C175.185 389.502 175.435 389.922 175.685 390.3C176.476 391.56 177.392 392.778 178.392 393.912C178.85 394.458 179.35 395.004 179.849 395.508C180.099 395.76 180.349 396.012 180.64 396.264C183.763 399.204 187.428 401.472 191.384 402.942V413.778C191.384 419.28 195.673 423.816 201.128 424.11C206.583 423.816 210.83 419.28 210.872 413.778V404.58C211.08 404.37 211.247 404.202 211.455 403.992C211.496 403.992 211.496 403.95 211.496 403.95C211.621 403.782 211.746 403.614 211.871 403.446C216.368 401.976 220.449 399.54 223.905 396.306C224.155 396.054 224.405 395.802 224.697 395.55C225.196 395.046 225.696 394.542 226.154 393.954C227.153 392.82 228.07 391.644 228.861 390.342C229.111 389.964 229.36 389.586 229.61 389.166C229.86 388.746 230.068 388.368 230.277 387.948C230.526 387.528 230.735 387.108 230.901 386.688C231.193 386.142 231.442 385.554 231.651 385.008C231.817 384.546 231.984 384.126 232.15 383.706C232.234 383.496 232.317 383.286 232.359 383.076C232.483 382.698 232.608 382.32 232.733 381.942C232.817 381.69 232.9 381.396 232.983 381.144C233.108 380.682 233.233 380.262 233.316 379.8C233.441 379.296 233.525 378.834 233.608 378.33C233.774 378.372 233.941 378.372 234.149 378.372C238.896 378.372 242.769 373.248 242.769 366.948C242.81 361.278 239.687 356.574 235.648 355.65Z" fill="#EECDB6"/>
<path d="M161.777 366.906C161.777 373.206 165.65 378.33 170.397 378.33C170.563 378.33 170.73 378.33 170.938 378.288C170.938 378.204 170.896 378.12 170.896 378.036C167.024 376.944 164.067 372.366 164.067 366.864C164.067 365.688 164.192 364.512 164.484 363.378C165.067 360.606 166.649 358.17 168.939 356.574C168.939 356.28 168.898 355.944 168.898 355.608C165.691 356.364 163.11 359.388 162.152 363.378C161.944 364.554 161.777 365.73 161.777 366.906Z" fill="#B3947F"/>
<path d="M242.394 363.42C241.436 359.43 238.855 356.364 235.648 355.65C235.648 355.986 235.648 356.28 235.607 356.616C237.897 358.212 239.521 360.648 240.062 363.42C240.354 364.554 240.479 365.73 240.479 366.906C240.479 372.408 237.564 376.986 233.649 378.078C233.691 377.826 233.733 377.574 233.774 377.364C233.816 377.112 233.858 376.902 233.858 376.65C233.941 375.978 234.024 375.306 234.024 374.634C234.066 374.34 234.066 374.046 234.066 373.752C234.108 373.374 234.108 372.954 234.108 372.576C234.108 372.198 234.108 371.778 234.108 371.4C234.066 370.812 234.066 370.182 233.983 369.594C233.899 368.838 233.816 368.082 233.691 367.326V367.158V367.074C234.815 363.714 235.482 360.186 235.607 356.616C235.607 356.322 235.648 355.986 235.648 355.65V355.272C235.648 348.3 233.691 341.454 229.943 335.574C231.068 340.194 230.485 346.662 230.485 355.272V355.65C230.485 355.986 230.485 356.28 230.443 356.616C230.318 360.186 229.694 363.714 228.528 367.074V367.158V367.326C228.653 368.082 228.736 368.838 228.819 369.594C228.861 370.182 228.902 370.77 228.944 371.4C228.944 371.778 228.944 372.156 228.944 372.576C228.944 372.954 228.944 373.374 228.902 373.752C228.902 374.046 228.902 374.34 228.861 374.634C228.819 375.306 228.777 376.02 228.694 376.65C228.653 376.902 228.611 377.112 228.611 377.364C228.611 377.616 228.528 377.868 228.486 378.12L228.444 378.372C228.361 378.876 228.278 379.338 228.153 379.842C228.07 380.304 227.945 380.724 227.82 381.186C227.736 381.438 227.653 381.732 227.57 381.984C227.487 382.362 227.362 382.74 227.195 383.118C227.153 383.328 227.07 383.538 226.987 383.748C226.82 384.21 226.654 384.63 226.487 385.05C226.237 385.638 225.988 386.184 225.738 386.73C225.529 387.15 225.321 387.57 225.113 387.99C224.905 388.41 224.655 388.83 224.447 389.208C224.197 389.586 223.947 390.006 223.697 390.384C222.906 391.644 221.99 392.862 220.991 393.996C220.533 394.542 220.033 395.088 219.533 395.592C219.283 395.844 219.033 396.096 218.742 396.348C215.327 399.582 211.205 402.06 206.708 403.488C206.583 403.656 206.458 403.824 206.333 403.992L206.291 404.034C205.792 404.622 205.25 405.126 204.626 405.588C204.459 405.714 204.251 405.84 204.084 405.966C202.877 406.722 201.544 407.31 200.128 407.604L199.754 407.688H199.795C200.378 407.814 200.961 407.898 201.544 407.94C201.794 407.94 202.044 407.982 202.335 407.982C202.627 407.982 202.835 407.982 203.127 407.94C203.71 407.898 204.293 407.814 204.876 407.688C205.042 407.646 205.167 407.646 205.334 407.604C206.749 407.268 208.082 406.722 209.289 405.966C209.498 405.84 209.664 405.714 209.831 405.588C210.206 405.294 210.58 405 210.913 404.622V413.82C210.913 419.322 206.624 423.858 201.169 424.152C201.336 424.194 201.503 424.194 201.669 424.194H203.043C208.706 424.194 213.287 419.532 213.329 413.82V402.9C217.243 401.388 220.866 399.162 223.905 396.264C224.155 396.012 224.405 395.76 224.697 395.508C225.196 395.004 225.696 394.5 226.154 393.912C227.153 392.778 228.07 391.602 228.861 390.3C229.111 389.922 229.36 389.544 229.61 389.124C229.86 388.704 230.068 388.326 230.277 387.906C230.526 387.486 230.735 387.066 230.901 386.646C231.193 386.1 231.442 385.512 231.651 384.966C231.817 384.504 231.984 384.084 232.15 383.664C232.234 383.454 232.317 383.244 232.359 383.034C232.484 382.656 232.608 382.278 232.733 381.9C232.817 381.648 232.9 381.354 232.983 381.102C233.108 380.64 233.233 380.22 233.316 379.758C233.441 379.254 233.525 378.792 233.608 378.288C233.774 378.33 233.941 378.33 234.149 378.33C238.896 378.33 242.769 373.206 242.769 366.906C242.81 365.73 242.644 364.554 242.394 363.42Z" fill="#B3947F"/>
<path d="M198.005 375.684C200.253 378.078 204.043 378.162 206.416 375.894C206.5 375.81 206.541 375.768 206.624 375.684" fill="#B3947F"/>
<path d="M196.006 334.524C196.006 334.524 196.131 334.608 196.339 334.776C197.089 331.584 194.465 329.988 194.465 329.988C174.019 335.7 167.523 357.414 167.565 363.294V363.756C167.482 363.546 167.399 363.378 167.357 363.168C167.773 364.932 168.356 366.696 169.064 368.376V367.914C169.023 362.034 175.56 340.278 196.006 334.524Z" fill="#7E0772"/>
<path d="M215.785 307.77C223.406 312.054 230.152 319.446 234.274 329.022C235.024 330.744 235.648 332.508 236.19 334.272C233.816 325.032 230.11 317.766 226.945 312.684C226.404 311.718 225.488 310.29 224.197 308.736C222.073 306.174 220.033 304.746 216.535 302.352C213.12 300 211.247 299.244 211.746 299.58C214.703 301.386 215.494 304.578 215.785 307.77Z" fill="#7E0772"/>
<path d="M238.438 349.182C238.23 345.108 237.647 340.32 236.356 335.112C236.273 334.776 236.19 334.482 236.106 334.188C235.607 332.466 234.982 330.744 234.232 329.064C230.11 319.488 223.406 312.096 215.744 307.812C215.952 310.458 215.66 312.642 215.66 312.642C211.163 304.662 206.708 305.586 206.708 305.586C210.455 306.93 210.664 312.642 210.664 312.642C207.707 311.802 204.584 311.382 201.378 311.424C182.139 311.34 166.191 328.518 164.817 347.88V349.98C164.775 354.726 165.733 359.388 167.565 363.756V363.294C167.523 357.414 174.061 335.7 194.465 329.946C194.465 329.946 198.629 332.466 195.007 337.506C195.007 337.506 207.499 337.086 210.289 330.366C210.289 330.366 213.329 335.826 205 339.48C205 339.48 214.161 343.974 219.45 337.086C219.45 337.086 218.617 347.04 211.954 351.24C211.954 351.24 218.617 354.306 226.404 342.546C229.319 343.806 234.94 346.872 234.94 362.79V365.016C237.189 360.186 238.355 354.936 238.438 349.602V349.182Z" fill="#E518D0"/>
<path d="M172.479 370.476C174.019 371.148 188.177 374.214 194.257 371.694C200.337 369.216 197.005 363.168 201.919 363.336C206.833 363.168 203.543 369.216 209.581 371.694C215.66 374.172 229.777 371.106 231.359 370.476C232.9 369.804 232.858 366.276 233.316 365.184C233.774 364.092 236.023 363.378 236.023 363.378V357.666C232.775 356.112 216.452 356.91 212.496 357.666C208.54 358.422 202.127 359.892 202.127 359.892C202.127 359.892 195.964 358.422 192.05 357.666C188.136 356.91 171.313 356.112 169.023 357.666V363.378C169.023 363.378 170.605 364.134 171.105 365.184C171.646 366.276 170.938 369.804 172.479 370.476ZM206.541 360.858C207.749 359.892 215.91 357.456 228.777 358.464C229.485 358.506 231.109 359.01 231.151 360.06C231.193 361.11 231.193 366.78 230.859 367.536C230.526 368.292 230.318 370.056 223.114 371.064C215.91 372.072 209.872 371.274 208.332 369.174C206.749 367.074 205.334 361.782 206.541 360.858ZM172.729 360.06C172.77 359.01 174.394 358.506 175.102 358.464C188.011 357.456 196.131 359.892 197.38 360.858C198.588 361.824 197.13 367.116 195.59 369.216C194.049 371.316 187.969 372.114 180.807 371.106C173.603 370.098 173.395 368.376 173.062 367.578C172.645 366.738 172.645 361.11 172.729 360.06Z" fill="black"/>
<!--</g>-->
</g>
<g filter="url(#filter5_d)">
<path d="M422.815 360.299H347.509C349.32 351.179 359.988 340.023 373.569 335.169C378.017 333.565 382.623 332.743 387.307 332.703C391.952 332.743 396.558 333.565 400.967 335.169C402.817 335.835 404.628 336.618 406.399 337.518C406.399 337.518 406.399 337.518 406.439 337.518C416.201 343.859 422.815 353.097 422.815 360.299Z" fill="#890724"/>
<path d="M427.342 362.922H347.234C347.234 362.061 347.312 361.16 347.509 360.299H422.815C422.815 353.058 416.162 343.82 406.399 337.479C418.603 343.663 427.342 354.623 427.342 362.922Z" fill="#6E061D"/>
<path d="M400.928 335.169C399.747 337.44 394.472 344.094 386.874 344.094C379.277 344.094 374.632 337.44 373.529 335.169C377.978 333.565 382.583 332.743 387.229 332.703C391.913 332.743 396.519 333.565 400.928 335.169Z" fill="#6E061D"/>
<path d="M422.263 284.636C422.263 284.519 422.263 284.401 422.263 284.284C422.263 266.552 407.069 252.147 388.331 252.147C369.593 252.147 354.398 266.552 354.398 284.284C354.398 284.401 354.398 284.519 354.398 284.636C350.265 285.458 347.116 289.764 347.116 294.931C347.116 300.685 351.052 305.382 355.894 305.382C356.051 305.382 356.248 305.382 356.406 305.343C356.484 305.812 356.603 306.243 356.721 306.673C356.799 307.104 356.917 307.495 357.036 307.887C357.114 308.122 357.193 308.357 357.272 308.631C357.39 308.983 357.508 309.335 357.626 309.648C357.665 309.844 357.744 310.04 357.862 310.235C358.02 310.627 358.177 311.057 358.374 311.449C358.61 311.958 358.886 312.467 359.161 312.975C359.358 313.367 359.594 313.758 359.83 314.111C360.067 314.502 360.303 314.854 360.539 315.246C360.775 315.598 361.011 315.95 361.287 316.303C362.114 317.477 363.019 318.573 364.043 319.591C364.515 320.099 365.027 320.569 365.538 321.039C365.814 321.274 366.05 321.509 366.326 321.743C369.475 324.444 373.215 326.519 377.269 327.85V332.821C377.269 337.87 381.324 340.375 386.874 340.649C392.425 340.375 397.07 337.831 397.07 332.821C397.07 332.821 396.912 328.672 397.109 328.476L397.227 328.437C397.267 328.437 398.093 328.241 398.093 328.241C402.66 326.91 406.832 324.679 410.336 321.704C410.611 321.509 410.848 321.274 411.123 321C411.635 320.53 412.147 320.06 412.619 319.551C413.642 318.534 414.548 317.438 415.375 316.263C415.611 315.911 415.886 315.559 416.122 315.207C416.359 314.815 416.595 314.463 416.831 314.071C417.067 313.68 417.264 313.328 417.5 312.936C417.776 312.427 418.051 311.919 418.288 311.41C418.484 311.018 418.642 310.588 418.799 310.196C418.878 310.001 418.957 309.805 419.036 309.609C419.193 309.257 419.311 308.944 419.39 308.591C419.469 308.357 419.547 308.122 419.626 307.848C419.744 307.456 419.862 307.065 419.941 306.634C420.059 306.204 420.177 305.734 420.256 305.303C420.413 305.343 420.61 305.343 420.807 305.343C425.649 305.343 429.585 300.645 429.585 294.891C429.546 289.725 426.397 285.458 422.263 284.636Z" fill="#E5BDA7"/>
<path d="M347.352 295.518C347.47 299.863 350.501 304.834 356.091 305.577C356.288 305.577 356.445 305.577 356.642 305.538C356.642 305.46 356.603 305.382 356.603 305.303C352.509 304.051 349.753 300.998 349.753 295.479C349.753 294.304 349.91 293.13 350.186 291.995C350.777 289.216 352.39 286.789 354.713 285.184C354.713 284.871 354.674 284.558 354.674 284.245C351.406 284.988 348.769 288.041 347.824 292.034C347.509 293.169 347.352 294.343 347.352 295.518Z" fill="#D6AC95"/>
<path d="M384.119 305.891C386.402 308.278 390.26 308.396 392.661 306.086C392.74 306.008 392.818 305.93 392.858 305.891" fill="#D6AC95"/>
<path d="M416.556 266.63C417.658 270.819 417.067 276.69 417.067 284.44C417.067 284.558 417.067 284.675 417.067 284.793C417.067 285.106 417.067 285.38 417.028 285.654C416.91 288.903 416.28 292.112 415.178 295.126C415.178 295.165 415.178 295.165 415.178 295.205C415.178 295.244 415.178 295.283 415.178 295.322C415.296 295.987 415.375 296.692 415.453 297.357C415.493 297.905 415.532 298.453 415.571 298.962C415.571 299.315 415.571 299.667 415.571 300.019C415.571 300.371 415.571 300.724 415.532 301.115C415.532 301.389 415.532 301.663 415.493 301.898C415.453 302.524 415.414 303.111 415.296 303.738C415.257 303.973 415.217 304.168 415.178 304.403C415.138 304.638 415.099 304.834 415.06 305.069C415.06 305.108 415.02 305.225 415.02 305.264C414.942 305.734 414.824 306.165 414.705 306.595C414.627 307.026 414.509 307.417 414.39 307.809C414.312 308.043 414.233 308.278 414.154 308.513C414.036 308.865 413.918 309.179 413.8 309.531C413.761 309.727 413.682 309.922 413.603 310.118C413.446 310.509 413.288 310.901 413.091 311.331C412.855 311.84 412.619 312.349 412.344 312.858C412.147 313.249 411.95 313.602 411.714 313.993C411.517 314.385 411.281 314.737 411.044 315.089C410.808 315.441 410.572 315.794 410.336 316.146C409.549 317.32 408.643 318.377 407.698 319.395C407.265 319.904 406.754 320.373 406.281 320.804C406.045 321.039 405.77 321.274 405.533 321.469C403.526 323.231 399.235 325.227 396.912 326.401V328.437C401.085 327.184 405.415 325.658 410.572 321.469C410.848 321.274 411.084 321.039 411.32 320.804C411.792 320.334 412.265 319.865 412.737 319.395C413.682 318.377 414.587 317.32 415.375 316.146C415.611 315.794 415.847 315.441 416.083 315.089C416.319 314.698 416.516 314.345 416.752 313.993C416.989 313.602 417.185 313.249 417.382 312.858C417.658 312.349 417.894 311.84 418.13 311.331C418.327 310.94 418.484 310.549 418.642 310.118C418.721 309.922 418.799 309.727 418.839 309.531C418.957 309.218 419.075 308.865 419.193 308.513C419.272 308.278 419.35 308.043 419.429 307.809C419.547 307.417 419.665 307.026 419.744 306.595C419.862 306.165 419.941 305.734 420.059 305.264C420.059 305.186 420.098 305.108 420.098 305.069C420.138 304.834 420.177 304.599 420.217 304.403C420.256 304.207 420.295 303.973 420.335 303.738C420.413 303.111 420.492 302.524 420.531 301.898C420.571 301.624 420.571 301.35 420.571 301.115C420.61 300.763 420.61 300.411 420.61 300.019C420.61 299.667 420.61 299.315 420.61 298.962C420.571 298.414 420.571 297.866 420.492 297.318C420.413 296.614 420.335 295.948 420.217 295.283C420.217 295.244 420.217 295.205 420.217 295.165C420.217 295.126 420.217 295.126 420.217 295.087C421.319 292.073 421.949 288.863 422.067 285.615C422.067 285.341 422.106 285.027 422.106 284.753C422.106 284.636 422.106 284.519 422.106 284.401C422.106 277.982 420.138 271.68 416.556 266.63Z" fill="#D6AC95"/>
<path d="M439.112 321.704C432.026 339.319 421.319 322.096 418.406 311.097C418.366 311.214 418.327 311.292 418.288 311.41C418.051 311.919 417.815 312.427 417.54 312.936C417.343 313.328 417.146 313.68 416.91 314.071C416.674 314.463 416.477 314.815 416.241 315.167C416.004 315.559 415.768 315.872 415.532 316.224C414.745 317.399 413.839 318.455 412.894 319.473C412.658 319.708 412.461 319.943 412.225 320.178C411.556 324.014 411.517 327.576 412.737 329.885C419.823 343.194 441.355 337.244 439.112 321.704Z" fill="#F1AE02"/>
<path d="M363.885 329.924C365.145 327.537 365.105 323.818 364.357 319.865C364.279 319.786 364.161 319.708 364.082 319.591C363.058 318.573 362.153 317.477 361.326 316.303C361.09 315.95 360.815 315.598 360.578 315.246C360.342 314.893 360.106 314.502 359.87 314.111C359.634 313.719 359.437 313.367 359.201 312.975C358.925 312.467 358.649 311.958 358.413 311.449C358.335 311.292 358.295 311.136 358.216 310.979C355.343 321.978 344.596 339.397 337.471 321.704C335.267 337.244 356.799 343.194 363.885 329.924Z" fill="#F1AE02"/>
<path d="M422.303 278.686C421.358 258.997 402.738 247.92 399.274 247.489C397.66 247.294 396.282 247.646 395.298 248.077C395.298 248.037 395.298 247.998 395.298 247.959C395.416 247.255 395.613 246.589 395.849 245.924C396.282 244.593 396.952 243.301 397.778 242.127C398.211 241.54 398.684 240.992 399.195 240.483C399.707 239.974 400.298 239.543 400.888 239.113C402.109 238.291 403.486 237.665 404.943 237.234C403.447 237.43 401.951 237.821 400.534 238.487C399.825 238.839 399.156 239.191 398.487 239.661C397.857 240.131 397.227 240.639 396.676 241.187C395.653 242.205 394.787 243.419 394.078 244.671C393.921 244.241 393.724 243.849 393.488 243.458C393.369 243.223 393.173 242.988 393.015 242.753C392.858 242.518 392.7 242.323 392.503 242.127C392.307 241.931 392.11 241.735 391.952 241.54L391.322 241.031L391.008 240.796L390.653 240.6L389.984 240.209C389.512 239.974 389.039 239.778 388.567 239.583C388.961 239.896 389.394 240.17 389.787 240.522L390.338 241.031L390.614 241.305L390.85 241.579L391.322 242.166L391.677 242.792C391.795 242.988 391.913 243.223 391.992 243.419C392.07 243.653 392.189 243.849 392.228 244.084C392.503 244.945 392.582 245.885 392.464 246.785C392.425 247.02 392.385 247.215 392.346 247.45C392.307 247.685 392.267 247.881 392.189 248.077C392.189 248.116 392.149 248.194 392.149 248.233C390.85 247.568 388.685 246.785 385.851 246.902C380.969 247.098 363.058 253.987 356.327 265.73C349.596 277.473 354.477 284.166 354.477 284.166C354.477 284.166 359.555 276.455 374.632 275.672C389.709 274.889 397.227 264.751 397.227 264.751C397.227 264.751 399.077 268.783 408.013 271.445C416.989 274.067 422.657 285.419 422.657 285.419C422.657 285.419 422.539 282.953 422.303 278.686Z" fill="#FFC700"/>
</g>
<g filter="url(#filter6_d)">
<path d="M373.978 488.673H266.177C268.732 477.193 284.01 463.136 303.498 456.998C309.837 454.983 316.459 453.952 323.128 453.905C329.751 453.952 336.373 454.983 342.664 456.998C345.313 457.841 347.914 458.825 350.421 459.95C350.421 459.95 350.421 459.95 350.469 459.95C364.47 467.915 373.978 479.583 373.978 488.673Z" fill="#366893"/>
<path d="M380.458 491.953H265.799C265.799 490.829 265.941 489.751 266.177 488.673H373.978C373.978 479.583 364.47 467.915 350.469 459.95C367.923 467.728 380.458 481.504 380.458 491.953Z" fill="#2B5376"/>
<path d="M342.664 456.998C340.961 459.856 333.535 471.195 322.655 471.195C311.776 471.195 305.012 459.903 303.451 457.044C309.789 455.03 316.412 453.999 323.081 453.952C329.751 453.952 336.373 454.983 342.664 456.998Z" fill="#2B5376"/>
<path d="M360.922 390.086C360.922 389.945 360.922 389.805 360.922 389.664C360.922 368.016 343.941 350.445 323.034 350.445C302.126 350.445 285.145 368.016 285.145 389.664C285.145 389.805 285.145 389.945 285.145 390.086C280.51 391.117 277.009 396.318 277.009 402.644C277.009 409.672 281.408 415.389 286.801 415.389C286.99 415.389 287.179 415.389 287.368 415.342C287.463 415.904 287.557 416.42 287.699 416.982C287.794 417.497 287.936 417.966 288.078 418.481C288.172 418.762 288.22 419.09 288.362 419.372C288.456 419.793 288.598 420.215 288.787 420.637C288.835 420.871 288.929 421.105 289.024 421.34C289.213 421.855 289.402 422.324 289.591 422.792C289.875 423.448 290.159 424.057 290.443 424.666C290.679 425.135 290.916 425.604 291.152 426.072C291.389 426.541 291.673 427.009 291.957 427.431C292.24 427.853 292.524 428.321 292.808 428.743C293.707 430.149 294.747 431.508 295.883 432.773C296.403 433.382 296.97 433.991 297.538 434.553C297.822 434.834 298.106 435.116 298.437 435.397C301.984 438.677 306.147 441.207 310.641 442.847V454.936C310.641 461.074 315.513 466.135 321.709 466.463C327.906 466.135 332.73 461.074 332.778 454.936V444.674C333.014 444.44 333.203 444.253 333.44 444.018C333.487 444.018 333.487 443.972 333.487 443.972C333.629 443.784 333.771 443.597 333.913 443.409C339.022 441.769 343.657 439.052 347.583 435.444C347.867 435.162 348.151 434.881 348.482 434.6C349.05 434.038 349.617 433.476 350.137 432.82C351.273 431.554 352.313 430.242 353.212 428.79C353.496 428.368 353.78 427.946 354.063 427.478C354.347 427.009 354.584 426.588 354.82 426.119C355.104 425.65 355.341 425.182 355.53 424.713C355.861 424.104 356.145 423.448 356.381 422.839C356.57 422.324 356.76 421.855 356.949 421.386C357.043 421.152 357.138 420.918 357.185 420.684C357.327 420.262 357.469 419.84 357.611 419.418C357.706 419.137 357.8 418.809 357.895 418.528C358.037 418.013 358.179 417.544 358.273 417.029C358.415 416.466 358.51 415.951 358.604 415.389C358.794 415.436 358.983 415.436 359.219 415.436C364.612 415.436 369.011 409.719 369.011 402.69C369.058 396.365 365.51 391.117 360.922 390.086Z" fill="#633107"/>
<path d="M277.009 402.643C277.009 409.672 281.408 415.388 286.801 415.388C286.99 415.388 287.179 415.388 287.416 415.342C287.416 415.248 287.368 415.154 287.368 415.06C282.969 413.842 279.611 408.735 279.611 402.596C279.611 401.284 279.753 399.972 280.084 398.707C280.746 395.615 282.544 392.897 285.145 391.116C285.145 390.788 285.098 390.414 285.098 390.039C281.456 390.882 278.523 394.256 277.435 398.707C277.198 400.019 277.009 401.331 277.009 402.643Z" fill="#3F1D00"/>
<path d="M368.585 398.754C367.497 394.303 364.564 390.882 360.922 390.086C360.922 390.46 360.922 390.788 360.875 391.163C363.476 392.944 365.321 395.662 365.936 398.754C366.267 400.019 366.409 401.331 366.409 402.643C366.409 408.782 363.098 413.889 358.652 415.107C358.699 414.826 358.746 414.545 358.794 414.311C358.841 414.03 358.888 413.795 358.888 413.514C358.983 412.764 359.077 412.015 359.077 411.265C359.125 410.937 359.125 410.609 359.125 410.281C359.172 409.859 359.172 409.391 359.172 408.969C359.172 408.547 359.172 408.079 359.172 407.657C359.125 407.001 359.125 406.298 359.03 405.642C358.935 404.799 358.841 403.955 358.699 403.112V402.924V402.831C359.976 399.082 360.733 395.146 360.875 391.163C360.875 390.835 360.922 390.46 360.922 390.086V389.664C360.922 381.886 358.699 374.248 354.442 367.688C355.719 372.842 355.057 380.058 355.057 389.664V390.086C355.057 390.46 355.057 390.788 355.009 391.163C354.868 395.146 354.158 399.082 352.834 402.831V402.924V403.112C352.975 403.955 353.07 404.799 353.165 405.642C353.212 406.298 353.259 406.954 353.307 407.657C353.307 408.079 353.307 408.5 353.307 408.969C353.307 409.391 353.307 409.859 353.259 410.281C353.259 410.609 353.259 410.937 353.212 411.265C353.165 412.015 353.117 412.811 353.023 413.514C352.975 413.795 352.928 414.03 352.928 414.311C352.928 414.592 352.834 414.873 352.786 415.154L352.739 415.435C352.644 415.998 352.55 416.513 352.408 417.075C352.313 417.591 352.171 418.059 352.029 418.575C351.935 418.856 351.84 419.184 351.746 419.465C351.651 419.887 351.509 420.308 351.32 420.73C351.273 420.964 351.178 421.199 351.083 421.433C350.894 421.948 350.705 422.417 350.516 422.886C350.232 423.542 349.948 424.151 349.664 424.76C349.428 425.228 349.191 425.697 348.955 426.166C348.718 426.634 348.435 427.103 348.198 427.524C347.914 427.946 347.63 428.415 347.347 428.836C346.448 430.242 345.407 431.601 344.272 432.866C343.752 433.475 343.184 434.084 342.616 434.647C342.333 434.928 342.049 435.209 341.718 435.49C337.839 439.098 333.156 441.863 328.048 443.456C327.906 443.643 327.764 443.831 327.622 444.018L327.575 444.065C327.007 444.721 326.392 445.283 325.682 445.799C325.493 445.939 325.257 446.08 325.068 446.22C323.696 447.064 322.182 447.72 320.574 448.048L320.148 448.142H320.195C320.858 448.282 321.52 448.376 322.182 448.423C322.466 448.423 322.75 448.47 323.081 448.47C323.412 448.47 323.649 448.47 323.98 448.423C324.642 448.376 325.304 448.282 325.966 448.142C326.155 448.095 326.297 448.095 326.487 448.048C328.095 447.673 329.609 447.064 330.98 446.22C331.217 446.08 331.406 445.939 331.595 445.799C332.021 445.471 332.447 445.143 332.825 444.721V454.983C332.825 461.121 327.953 466.182 321.756 466.51C321.946 466.556 322.135 466.556 322.324 466.556H323.885C330.318 466.556 335.521 461.355 335.568 454.983V442.8C340.015 441.113 344.13 438.63 347.583 435.396C347.867 435.115 348.151 434.834 348.482 434.553C349.049 433.991 349.617 433.428 350.137 432.772C351.273 431.507 352.313 430.195 353.212 428.743C353.496 428.321 353.78 427.899 354.063 427.431C354.347 426.962 354.584 426.54 354.82 426.072C355.104 425.603 355.341 425.135 355.53 424.666C355.861 424.057 356.145 423.401 356.381 422.792C356.57 422.276 356.76 421.808 356.949 421.339C357.043 421.105 357.138 420.871 357.185 420.636C357.327 420.215 357.469 419.793 357.611 419.371C357.706 419.09 357.8 418.762 357.895 418.481C358.037 417.966 358.179 417.497 358.273 416.982C358.415 416.419 358.51 415.904 358.604 415.342C358.794 415.388 358.983 415.388 359.219 415.388C364.612 415.388 369.011 409.672 369.011 402.643C369.058 401.331 368.869 400.019 368.585 398.754Z" fill="#3F1D00"/>
<path d="M318.161 412.437C320.716 415.107 325.02 415.201 327.716 412.671C327.811 412.577 327.858 412.53 327.953 412.437" fill="#3F1D00"/>
<path d="M397.013 410.187C396.966 409.906 396.919 409.625 396.824 409.391C396.635 408.875 396.351 408.454 396.02 408.032C395.642 407.657 395.263 407.329 394.79 407.001C394.317 406.72 393.844 406.439 393.371 406.205C392.425 405.689 391.384 405.267 390.628 404.752C389.824 404.143 389.256 403.393 389.114 402.269C388.499 397.817 396.02 396.833 395.405 392.382C395.121 390.179 393.087 389.289 391.053 388.446C390.06 388.024 389.019 387.602 388.215 387.134C387.411 386.665 386.796 386.056 386.512 385.166C386.229 384.275 386.418 383.432 386.796 382.589C387.222 381.745 387.837 380.855 388.404 379.918C388.972 378.981 389.492 377.997 389.729 376.966C389.871 375.888 389.824 374.998 389.209 374.014C386.749 370.265 380.411 374.389 377.904 370.64C375.444 366.891 381.735 362.768 379.275 359.019C376.816 355.271 370.477 359.394 367.97 355.646C365.51 351.897 371.802 347.774 369.342 344.025C368.727 343.088 367.876 342.666 366.882 342.432C365.842 342.198 364.754 342.245 363.618 342.385C362.531 342.526 361.49 342.713 360.497 342.713C359.551 342.713 358.699 342.526 357.99 341.917C357.611 341.635 357.375 341.214 357.233 340.839C357.044 340.464 356.949 339.995 356.902 339.527C356.807 338.59 356.854 337.512 356.902 336.434C356.902 335.357 356.854 334.232 356.476 333.248C356.097 332.264 355.388 331.421 354.205 330.952C353.591 330.718 353.023 330.624 352.455 330.718C351.888 330.765 351.415 330.952 350.942 331.186C349.996 331.702 349.191 332.451 348.482 333.295C347.772 334.138 347.11 334.935 346.401 335.591C346.07 335.919 345.691 336.153 345.313 336.341C344.934 336.528 344.509 336.622 344.036 336.622C339.495 336.622 339.495 329.125 335.001 329.125C330.46 329.125 330.46 336.622 325.966 336.622C321.425 336.622 321.425 329.125 316.932 329.125C312.391 329.125 312.391 336.622 307.897 336.622C306.762 336.622 305.911 336.153 305.248 335.45C304.633 334.794 304.018 333.81 303.404 332.967C302.789 332.077 302.079 331.186 301.18 330.624C300.282 330.015 299.241 329.781 297.964 330.109C297.349 330.296 296.829 330.53 296.403 330.905C295.977 331.28 295.693 331.702 295.457 332.123C294.984 333.061 294.795 334.138 294.7 335.263C294.605 336.387 294.558 337.418 294.369 338.355C294.18 339.293 293.801 340.042 293.044 340.605C292.666 340.886 292.24 341.026 291.815 341.12C291.389 341.214 290.963 341.214 290.49 341.167C289.544 341.073 288.504 340.792 287.416 340.511C286.375 340.277 285.24 340.089 284.199 340.23C283.679 340.323 283.158 340.464 282.685 340.745C282.212 341.026 281.787 341.448 281.408 341.963C278.949 345.712 285.24 349.835 282.78 353.584C280.32 357.333 273.982 353.209 271.475 356.958C269.015 360.706 275.306 364.83 272.847 368.578C270.387 372.327 264.049 368.203 261.542 371.952C260.312 373.826 261.258 375.794 262.204 377.762C262.677 378.746 263.197 379.683 263.528 380.574C263.859 381.464 263.954 382.307 263.576 383.151C263.197 384.041 262.535 384.51 261.684 384.931C260.832 385.306 259.791 385.587 258.704 385.962C257.663 386.29 256.622 386.712 255.818 387.368C255.014 387.977 254.446 388.727 254.257 389.851C253.595 394.303 261.116 395.334 260.454 399.785C260.123 401.987 258.089 402.831 256.055 403.674C255.014 404.096 254.021 404.518 253.217 405.221C252.46 405.923 251.892 406.861 251.892 408.173C251.892 408.829 252.081 409.391 252.271 409.859C252.507 410.328 252.885 410.75 253.264 411.078C254.068 411.781 255.109 412.202 256.149 412.577C257.19 412.952 258.231 413.233 259.082 413.655C259.508 413.842 259.886 414.123 260.217 414.405C260.359 414.545 260.501 414.733 260.643 414.873C260.785 415.061 260.879 415.248 260.974 415.482C261.305 416.373 261.211 417.169 260.879 418.059C260.548 418.95 260.028 419.84 259.508 420.824C259.035 421.808 258.562 422.839 258.467 423.87C258.42 424.385 258.42 424.901 258.609 425.416C258.751 425.931 259.035 426.447 259.508 426.915C260.406 427.853 261.447 428.181 262.488 428.181C263.528 428.181 264.616 427.806 265.61 427.384C266.65 426.962 267.596 426.541 268.542 426.259C269.015 426.119 269.441 426.072 269.867 426.072C270.292 426.072 270.718 426.166 271.144 426.4C271.57 426.634 271.901 426.869 272.184 427.243C272.468 427.571 272.657 427.993 272.847 428.415C273.178 429.305 273.414 430.336 273.698 431.414C273.982 432.445 274.313 433.522 274.928 434.366C275.543 435.209 276.442 435.865 277.766 435.959C279.043 436.099 280.084 435.631 280.793 434.928C281.503 434.225 282.071 433.288 282.638 432.351C283.773 430.477 284.909 428.602 287.179 428.602C291.72 428.602 291.72 436.099 296.214 436.099C297.065 436.099 297.775 435.818 298.39 435.35C298.153 435.115 297.917 434.928 297.68 434.694C297.112 434.131 296.545 433.522 296.024 432.96C294.889 431.695 293.849 430.383 292.95 428.977C292.666 428.555 292.382 428.087 292.098 427.665C291.815 427.243 291.578 426.775 291.342 426.306C291.105 425.838 290.821 425.369 290.632 424.901C290.301 424.291 290.017 423.635 289.781 423.026C289.544 422.511 289.402 422.042 289.213 421.527C289.118 421.293 289.024 421.058 288.977 420.824C288.835 420.402 288.693 419.981 288.551 419.559C288.456 419.278 288.362 418.95 288.267 418.669C288.125 418.153 287.983 417.685 287.889 417.169C287.747 416.607 287.652 416.091 287.557 415.529C287.368 415.576 287.179 415.576 286.99 415.576C281.55 415.576 277.198 409.859 277.198 402.831C277.198 396.552 280.699 391.304 285.334 390.273C285.334 390.133 285.334 389.992 285.334 389.851C285.334 368.203 302.316 350.632 323.223 350.632C344.177 350.632 361.111 368.203 361.111 389.851C361.111 389.992 361.111 390.133 361.111 390.273C365.747 391.304 369.247 396.505 369.247 402.831C369.247 409.859 364.848 415.576 359.456 415.576C359.267 415.576 359.077 415.576 358.841 415.529C358.746 416.091 358.604 416.607 358.51 417.169C358.415 417.685 358.273 418.153 358.131 418.669C358.037 418.95 357.942 419.278 357.848 419.559C357.753 419.981 357.611 420.402 357.422 420.824C357.375 421.058 357.28 421.293 357.185 421.527C356.996 422.042 356.807 422.511 356.618 423.026C356.334 423.682 356.05 424.291 355.766 424.901C355.53 425.369 355.293 425.838 355.057 426.306C354.773 426.775 354.537 427.197 354.3 427.665C354.064 428.134 353.732 428.555 353.449 428.977C352.503 430.383 351.509 431.742 350.374 432.96C349.854 433.569 349.286 434.178 348.718 434.694C348.529 434.881 348.387 435.022 348.198 435.162C348.86 435.725 349.617 436.053 350.611 436.053C355.151 436.053 355.151 428.555 359.645 428.555C364.186 428.555 364.186 436.053 368.68 436.053C369.295 436.053 369.91 435.912 370.383 435.678C370.856 435.443 371.281 435.115 371.66 434.741C372.369 433.944 372.842 432.96 373.221 431.929C373.599 430.898 373.93 429.914 374.356 429.024C374.592 428.602 374.829 428.227 375.113 427.946C375.255 427.806 375.444 427.665 375.633 427.525C375.822 427.384 376.011 427.29 376.248 427.197C377.147 426.869 377.998 427.009 378.85 427.337C379.748 427.712 380.647 428.227 381.64 428.743C382.586 429.258 383.627 429.727 384.668 429.821C385.188 429.867 385.708 429.867 386.229 429.727C386.749 429.586 387.269 429.305 387.742 428.883C388.215 428.462 388.546 427.993 388.783 427.478C389.019 427.009 389.067 426.447 389.067 425.931C389.067 424.901 388.736 423.823 388.357 422.792C387.931 421.761 387.506 420.777 387.269 419.887C387.127 419.418 387.08 418.997 387.127 418.575C387.127 418.153 387.269 417.731 387.458 417.31C387.695 416.888 387.979 416.56 388.31 416.326C388.688 416.091 389.067 415.857 389.492 415.717C390.391 415.389 391.432 415.201 392.52 414.967C393.56 414.686 394.696 414.405 395.547 413.795C396.398 413.186 397.061 412.343 397.25 411.031C397.013 410.75 397.013 410.469 397.013 410.187Z" fill="#131313"/>
<path d="M366.977 393.647C366.74 393.647 366.22 393.694 366.031 393.694C365.936 393.694 365.842 393.694 365.7 393.694C365.511 393.694 365.321 393.694 365.132 393.694C364.754 393.694 364.423 393.647 364.091 393.6C363.76 393.459 363.477 393.272 363.193 393.131C363.051 393.038 362.909 392.991 362.767 392.897L362.672 392.85L362.625 392.803L362.531 392.71C362.389 392.569 362.247 392.475 362.152 392.335C361.916 392.101 361.679 391.819 361.49 391.538C360.686 390.414 360.307 389.149 359.976 387.93C359.834 387.274 359.692 386.665 359.503 386.056C359.361 385.447 359.172 384.838 358.983 384.275C358.557 383.151 358.037 382.167 356.996 381.183C356.003 380.199 354.915 379.637 353.685 379.262C352.455 378.887 351.131 378.793 349.806 378.746C348.529 378.512 347.252 378.184 346.07 377.481C345.549 377.153 345.124 376.825 344.934 376.638C343.941 375.794 343.231 374.951 342.806 374.295C342.38 373.545 341.576 371.765 341.671 369.375C341.765 367.032 342.711 365.392 343.137 364.642C344.13 363.33 344.225 361.597 343.373 360.378C342.333 358.832 340.393 358.879 340.251 358.879C339.211 359.019 337.839 359.347 337.177 360.378C336.657 361.175 336.657 361.971 336.846 362.815C337.697 367.313 332.589 371.437 332.589 371.437C330.744 372.842 328.615 371.999 326.534 371.109C324.453 370.218 322.419 369.281 320.527 370.593C316.837 373.123 321.189 379.59 317.31 382.12C317.263 382.167 317.168 382.214 317.121 382.214C317.026 382.261 316.979 382.307 316.932 382.354C316.743 382.495 316.506 382.589 316.27 382.682C316.175 382.729 316.033 382.776 315.986 382.776L315.797 382.823C315.655 382.823 315.56 382.823 315.418 382.823C314.898 382.823 314.425 382.729 313.952 382.542C312.958 382.214 312.06 381.558 311.114 380.902C309.222 379.59 307.424 378.325 305.343 379.215C303.262 380.105 303.025 382.354 302.694 384.557C302.41 386.806 302.079 389.008 299.903 389.898C297.727 390.742 295.93 389.336 294.18 387.93C292.43 386.525 290.679 385.072 288.551 385.822C286.422 386.571 285.997 388.774 285.524 390.976C285.287 392.101 285.05 393.178 284.577 394.069C284.104 394.959 283.442 395.709 282.212 396.037V396.083C282.591 386.806 285.003 367.36 298.579 356.817C301.18 354.709 304.16 353.069 307.33 351.897C307.33 351.897 307.33 351.897 307.377 351.897C312.154 350.21 317.594 349.648 325.21 349.179C330.838 349.273 336.467 350.07 341.907 351.522C345.502 352.6 348.908 354.381 351.793 356.817C362.199 365.439 364.659 373.826 366.977 393.647Z" fill="#212120"/>
</g>
<defs>
<filter id="filter0_d" x="169" y="108" width="118.067" height="131.351" filterUnits="userSpaceOnUse" color-interpolation-filters="sRGB">
<feFlood flood-opacity="0" result="BackgroundImageFix"/>
<feColorMatrix in="SourceAlpha" type="matrix" values="0 0 0 0 0 0 0 0 0 0 0 0 0 0 0 0 0 0 127 0"/>
<feOffset dy="4"/>
<feGaussianBlur stdDeviation="2"/>
<feColorMatrix type="matrix" values="0 0 0 0 0 0 0 0 0 0 0 0 0 0 0 0 0 0 0.25 0"/>
<feBlend mode="normal" in2="BackgroundImageFix" result="effect1_dropShadow"/>
<feBlend mode="normal" in="SourceGraphic" in2="effect1_dropShadow" result="shape"/>
</filter>
<filter id="filter1_d" x="219" y="193" width="141" height="161.07" filterUnits="userSpaceOnUse" color-interpolation-filters="sRGB">
<feFlood flood-opacity="0" result="BackgroundImageFix"/>
<feColorMatrix in="SourceAlpha" type="matrix" values="0 0 0 0 0 0 0 0 0 0 0 0 0 0 0 0 0 0 127 0"/>
<feOffset dy="4"/>
<feGaussianBlur stdDeviation="2"/>
<feColorMatrix type="matrix" values="0 0 0 0 0 0 0 0 0 0 0 0 0 0 0 0 0 0 0.25 0"/>
<feBlend mode="normal" in2="BackgroundImageFix" result="effect1_dropShadow"/>
<feBlend mode="normal" in="SourceGraphic" in2="effect1_dropShadow" result="shape"/>
</filter>
<filter id="filter2_d" x="305" y="80" width="106.4" height="118.276" filterUnits="userSpaceOnUse" color-interpolation-filters="sRGB">
<feFlood flood-opacity="0" result="BackgroundImageFix"/>
<feColorMatrix in="SourceAlpha" type="matrix" values="0 0 0 0 0 0 0 0 0 0 0 0 0 0 0 0 0 0 127 0"/>
<feOffset dy="4"/>
<feGaussianBlur stdDeviation="2"/>
<feColorMatrix type="matrix" values="0 0 0 0 0 0 0 0 0 0 0 0 0 0 0 0 0 0 0.25 0"/>
<feBlend mode="normal" in2="BackgroundImageFix" result="effect1_dropShadow"/>
<feBlend mode="normal" in="SourceGraphic" in2="effect1_dropShadow" result="shape"/>
</filter>
<filter id="filter3_d" x="78" y="208" width="138.388" height="153" filterUnits="userSpaceOnUse" color-interpolation-filters="sRGB">
<feFlood flood-opacity="0" result="BackgroundImageFix"/>
<feColorMatrix in="SourceAlpha" type="matrix" values="0 0 0 0 0 0 0 0 0 0 0 0 0 0 0 0 0 0 127 0"/>
<feOffset dy="4"/>
<feGaussianBlur stdDeviation="2"/>
<feColorMatrix type="matrix" values="0 0 0 0 0 0 0 0 0 0 0 0 0 0 0 0 0 0 0.25 0"/>
<feBlend mode="normal" in2="BackgroundImageFix" result="effect1_dropShadow"/>
<feBlend mode="normal" in="SourceGraphic" in2="effect1_dropShadow" result="shape"/>
</filter>
<filter id="filter4_d" x="134" y="300" width="139.169" height="155" filterUnits="userSpaceOnUse" color-interpolation-filters="sRGB">
<feFlood flood-opacity="0" result="BackgroundImageFix"/>
<feColorMatrix in="SourceAlpha" type="matrix" values="0 0 0 0 0 0 0 0 0 0 0 0 0 0 0 0 0 0 127 0"/>
<feOffset dy="4"/>
<feGaussianBlur stdDeviation="2"/>
<feColorMatrix type="matrix" values="0 0 0 0 0 0 0 0 0 0 0 0 0 0 0 0 0 0 0.25 0"/>
<feBlend mode="normal" in2="BackgroundImageFix" result="effect1_dropShadow"/>
<feBlend mode="normal" in="SourceGraphic" in2="effect1_dropShadow" result="shape"/>
</filter>
<filter id="filter5_d" x="323" y="226" width="132" height="145" filterUnits="userSpaceOnUse" color-interpolation-filters="sRGB">
<feFlood flood-opacity="0" result="BackgroundImageFix"/>
<feColorMatrix in="SourceAlpha" type="matrix" values="0 0 0 0 0 0 0 0 0 0 0 0 0 0 0 0 0 0 127 0"/>
<feOffset dy="4"/>
<feGaussianBlur stdDeviation="2"/>
<feColorMatrix type="matrix" values="0 0 0 0 0 0 0 0 0 0 0 0 0 0 0 0 0 0 0.25 0"/>
<feBlend mode="normal" in2="BackgroundImageFix" result="effect1_dropShadow"/>
<feBlend mode="normal" in="SourceGraphic" in2="effect1_dropShadow" result="shape"/>
</filter>
<filter id="filter6_d" x="246" y="328" width="157" height="172" filterUnits="userSpaceOnUse" color-interpolation-filters="sRGB">
<feFlood flood-opacity="0" result="BackgroundImageFix"/>
<feColorMatrix in="SourceAlpha" type="matrix" values="0 0 0 0 0 0 0 0 0 0 0 0 0 0 0 0 0 0 127 0"/>
<feOffset dy="4"/>
<feGaussianBlur stdDeviation="2"/>
<feColorMatrix type="matrix" values="0 0 0 0 0 0 0 0 0 0 0 0 0 0 0 0 0 0 0.25 0"/>
<feBlend mode="normal" in2="BackgroundImageFix" result="effect1_dropShadow"/>
<feBlend mode="normal" in="SourceGraphic" in2="effect1_dropShadow" result="shape"/>
</filter>
<clipPath id="clip0">
</clipPath>
<clipPath id="clip1">
</clipPath>
<clipPath id="clip2">
</clipPath>
</defs>
</svg>
