<svg xmlns="http://www.w3.org/2000/svg" viewBox="0 0 128.8 119.09">
	<defs>
		<style>.cls-1{fill:#b1b1b1;} .cls-2{fill:#868686;} #SVG{cursor:pointer;}</style>
	</defs>
	<g id="SVG">
		<path class="cls-2" d="M62.7,64.8c0,15.9-3.8,23.3-14.9,23.6c-3.6,0.1-6.7,0.4-9.9-5.1c8.2-0.7,13.2-3.7,10.5-17.4
			c-1.8-8.9,3.8-17.2,9.8-23C64.3,48.7,62.7,55.8,62.7,64.8z"/>
		<circle class="cls-2" cx="65.1" cy="47.1" r="25.4"/>
		<path class="cls-1" d="M35.8,44.6c0,1.1,0.1,2.2,0.2,3.3c0,0,0,0,0,0.1c2.1-0.7,4.1-1.6,6-2.9c0.4-0.2,0.7-0.5,1-0.8
			c4-3.1,7.5-8.1,9.6-15.7c3.4,4.7,9,12.1,21.5,12.3l-4.4-6.8c4,4,11.3,9.2,17.7,11.7c0.4,0.2,0.8,0.3,1.1,0.4c2,0.7,3.9,1.1,5.6,1.2
			h0.1c0.1-0.9,0.1-1.8,0.1-2.7c0-3.6-0.5-7-1.5-10.2c-3.8-12.5-14.2-21.6-26.6-22.1c-0.4,0-0.7,0-1,0c-0.4,0-0.8,0-1.2,0
			c-0.4,0-0.8,0-1.2,0.1C51,13.4,41.2,22,37.4,33.9C36.4,37.2,35.8,40.9,35.8,44.6z"/>
	</g>
</svg>
