<svg xmlns="http://www.w3.org/2000/svg" viewBox="0 0 128.8 119.09">
	<defs>
		<style>.cls-1{fill:#333;} .cls-2{fill:#000;} #SVG{cursor:pointer;}</style>
	</defs>
	<g id="SVG">
		<path class="cls-2" d="M91.48,70.91C82.89,78.14,73.35,76,65.06,76.5c-8.29-.54-17.83,1.64-26.43-5.59s-7-16.75-5.62-25c.11-.67.27-1.4.44-2.17,2-8.63,7.81-22.31,12.69-26,5.33-4.07,10-4.77,18.93-5.29,8.91.52,13.6,1.22,18.93,5.29,4.87,3.72,10.69,17.41,12.69,26,.17.77.33,1.5.44,2.17C98.53,54.17,100.09,63.67,91.48,70.91Z"/>
		<path class="cls-1" d="M91,42.33H84c-1.07-6.77-5.47-8.15-5.47-8.15,1,.78,1.85,4.31,1.85,4.31H76.22c-.75-3.91-4.62-6.14-4.86-6.27a12.27,12.27,0,0,1,2.87,7.92c-5.73,1.34-17.91,1.64-24.58.15A11.45,11.45,0,0,1,52,34.18a8.94,8.94,0,0,0-5.52,8.15H39.12C40.76,35,45.53,23.41,49.53,20.26c4.37-3.45,8.22-4,15.53-4.48,7.31.44,11.16,1,15.53,4.48C84.59,23.41,89.36,35,91,42.33Z"/>
	</g>
</svg>