<svg xmlns="http://www.w3.org/2000/svg" viewBox="0 0 128.8 119.09">
	<defs>
		<style>.cls-1{fill:#8a6f56;} .cls-2{fill:#725c48;} #SVG{cursor:pointer;}</style>
	</defs>
	<g id="SVG">
		<path class="cls-2" d="M89.83,35c0-.1,0-.2,0-.3a24.79,24.79,0,0,0-49.49-1.14c0,.48,0,1,0,1.44a23.56,23.56,0,0,0,1.83,9.14h0c0-.11,0-.21,0-.32a23.59,23.59,0,0,1,2.8-11.19c10.91.52,21.94.16,35.27-6A23.84,23.84,0,0,1,87.54,43.8c0,.49,0,1,0,1.46h0A23.62,23.62,0,0,0,89.83,35Z"/>
		<path class="cls-1" d="M87.49,45.27c1.76-5.63-2.76-17.33-7.31-21.71-13.33,6.2-24.36,6.56-35.27,6C43.15,32.87,41,40.9,42,43.91A23.29,23.29,0,0,1,40.29,35c0-.48,0-1,0-1.44a24.55,24.55,0,0,1,24.74-22.8c13.57,0,24.6,10.69,24.75,23.94,0,.1,0,.2,0,.3A23.53,23.53,0,0,1,87.49,45.27Z"/>
	</g>
</svg>