<svg xmlns="http://www.w3.org/2000/svg" viewBox="0 0 128.8 119.09">
	<defs>
		<style>.cls-1{fill:#b1b1b1;} .cls-2{fill:#868686;} #SVG{cursor:pointer;}</style>
	</defs>
	<g id="SVG">
		<circle class="cls-2" cx="65.06" cy="16.29" r="11.5"/>
		<path class="cls-1" d="M35.77,46.3c0,1.13.05,2.25.15,3.35a.13.13,0,0,1,0,.06,23.33,23.33,0,0,0,6-2.92c.36-.24.71-.49,1-.76,4-3.14,7.49-8.08,9.58-15.75,3.39,4.71,9,12.14,21.51,12.3l-4.36-6.85A58.69,58.69,0,0,0,87.45,47.46l1.13.42A17.9,17.9,0,0,0,94.15,49h.09c.07-.9.11-1.82.11-2.74a35.19,35.19,0,0,0-1.51-10.25C89.08,23.58,78.63,14.49,66.19,13.94l-1,0c-.4,0-.8,0-1.19,0L62.8,14C51,15,41.2,23.71,37.43,35.55A35.11,35.11,0,0,0,35.77,46.3Z"/>
	</g>
</svg>