<svg xmlns="http://www.w3.org/2000/svg" viewBox="0 0 128.8 119.09">
	<defs>
		<style>.cls-1{fill:#8a6f56;} .cls-2{fill:#725c48;} #SVG{cursor:pointer;}</style>
	</defs>
	<g id="SVG">
		<path class="cls-2" id="hair_dark" d="M95,67.6c0,1-0.4,1.9-1.2,2.8c-3.6,4.1-15.1,7.2-28.7,7.2c-13.6,0-25-3-28.7-7.1c-0.8-0.9-1.2-1.8-1.2-2.8
			c0-1,0.4-1.9,1.2-2.8c0.5,0.5,1,1,1.7,1.5c0.1,0.1,0.3,0.2,0.4,0.3h0c2.6-4.3,4-9.2,4-14.4c0-1.8-0.3-4.1-0.6-5.9
			c0.4-0.1,0.8-0.3,1.1-0.4c6.4-2.5,13.7-7.7,17.7-11.7L56.3,41c12.5-0.2,18.1-7.6,21.5-12.3c2.1,7.7,5.5,12.6,9.6,15.7
			c0.3,0.3,0.7,0.5,1,0.8c-0.4,3.2-0.7,6.1-0.7,7c0,5.2,1.4,10.1,4,14.3c0.8-0.5,1.5-1.1,2-1.7C94.6,65.7,95,66.6,95,67.6z"/>
		<path class="cls-1" id="hair_light" d="M95,67.6c0,1-0.4,1.9-1.2,2.8c-3.6,4.1-15.1,7.2-28.7,7.2c-13.6,0-25-3-28.7-7.1c-0.8-0.9-1.2-1.8-1.2-2.8
			c0-1,0.4-1.9,1.2-2.8c0.5,0.5,1,1,1.7,1.5c0.1,0.1,0.3,0.2,0.4,0.3c0.5,0.3,1,0.6,1.5,0.8c5.3,2.7,14.6,4.5,25.1,4.5
			c10.6,0,19.9-1.8,25.2-4.6c0.5-0.3,1-0.6,1.5-0.9c0.8-0.5,1.5-1.1,2-1.7C94.6,65.7,95,66.6,95,67.6z"/>
		<path class="cls-1" id="hair_light" d="M94.7,44.7c0,1.1-0.1,2.2-0.2,3.3c0,0,0,0,0,0.1c-2.1-0.7-4.1-1.6-6-2.9c-0.4-0.2-0.7-0.5-1-0.8
			c-4-3.1-7.5-8.1-9.6-15.8c-3.4,4.7-9,12.1-21.5,12.3l4.4-6.8c-4,4-11.3,9.2-17.7,11.7c-0.4,0.2-0.8,0.3-1.1,0.4
			c-2,0.7-3.9,1.1-5.6,1.2h-0.1c-0.1-0.9-0.1-1.8-0.1-2.7c0-3.6,0.5-7,1.5-10.2C41.3,22,51.8,12.9,64.2,12.3c0.4,0,0.7,0,1,0
			c0.4,0,0.8,0,1.2,0c0.4,0,0.8,0,1.2,0.1c11.8,1,21.6,9.7,25.4,21.5C94.1,37.3,94.7,40.9,94.7,44.7z"/>
	</g>
</svg>
