<svg xmlns="http://www.w3.org/2000/svg" viewBox="0 0 128.8 119.09">
	<defs>
		<style>.cls-1{fill:#868686;}.cls-2{fill:#bfbabe;}.cls-3{fill:#926d4e;}.cls-4{fill:#836347;}.cls-5{fill:#333;}.cls-6{fill:#000;}</style>
	</defs>
	<title>Personnage.21.04.2017</title>
	<g id="SVG">
		<path class="cls-1" d="M81.57,83.39h0a44.55,44.55,0,0,0-4.69-1.79,38,38,0,0,0-23.65,0c-11.74,3.74-21,12.3-22.51,19.29a9.37,9.37,0,0,0-.23,2H99.65C99.65,96.52,92.1,88.13,81.57,83.39Z"/>
		<path class="cls-2" d="M95.53,101H30.47C32,94,41.24,85.4,53,81.66c.94,1.75,5,8.63,11.58,8.63s11-6.9,12.07-8.64a44.55,44.55,0,0,1,4.69,1.79h0C89.79,88.31,95.53,95.4,95.53,101Z"/>
		<g id="Visage">
			<path class="cls-3" d="M87.92,40.91h0a2.26,2.26,0,0,0,0-.26c0-13.19-10.24-23.89-22.87-23.89S42.19,27.45,42.19,40.64a2.26,2.26,0,0,0,0,.26h0c-2.79.62-4.9,3.81-4.9,7.65,0,4.29,2.65,7.77,5.92,7.77a2.23,2.23,0,0,0,.35,0c.06.34.13.67.21,1s.14.61.22.91.1.36.16.54a7.5,7.5,0,0,0,.25.76,3.26,3.26,0,0,0,.15.44c.11.3.22.6.35.9s.33.77.52,1.15.28.57.44.85.31.55.47.83.33.53.5.8a20.14,20.14,0,0,0,1.86,2.44c.32.37.66.73,1,1.07.18.18.35.35.53.51a22,22,0,0,0,7.38,4.56v7.35a7,7,0,0,0,6.68,7,7,7,0,0,0,6.67-7V74.15c.13-.13.27-.26.39-.4h0l0,0c.09-.11.18-.22.26-.34a21.94,21.94,0,0,0,8.24-4.86c.18-.16.35-.33.53-.51.34-.34.68-.7,1-1.07a20.14,20.14,0,0,0,1.86-2.44c.17-.27.34-.53.5-.8s.32-.55.47-.83.3-.56.44-.85.36-.76.52-1.15.24-.6.35-.9a3.26,3.26,0,0,0,.15-.44,7.5,7.5,0,0,0,.25-.76c.06-.18.11-.36.16-.54s.16-.6.22-.91.15-.66.21-1v0a2.18,2.18,0,0,0,.36,0c3.27,0,5.92-3.48,5.92-7.77C92.83,44.72,90.71,41.53,87.92,40.91Z"/>
			<path class="cls-4" d="M92.53,46.18c-.65-2.72-2.43-4.79-4.62-5.29a2.26,2.26,0,0,0,0-.26A24.6,24.6,0,0,0,84,27.25c.77,3.13.37,7.54.37,13.38a2.27,2.27,0,0,1,0,.26h0c0,.22,0,.44,0,.65A24.46,24.46,0,0,1,83,48.66s0,0,0,.05a.34.34,0,0,1,0,.1c.09.51.15,1,.2,1.54s.06.81.08,1.22c0,.26,0,.52,0,.79s0,.54,0,.81,0,.4,0,.6c0,.47-.07.93-.13,1.38,0,.17,0,.33-.07.49s0,.33-.08.5l0,.16c-.06.34-.13.67-.21,1s-.14.61-.22.91-.1.36-.16.54a7.5,7.5,0,0,1-.25.76A3.25,3.25,0,0,1,82,60c-.11.3-.22.6-.35.9s-.33.77-.52,1.15-.28.57-.44.85-.31.55-.47.83-.33.53-.5.8a20.14,20.14,0,0,1-1.86,2.44c-.32.37-.66.73-1,1.07-.18.18-.35.35-.53.51a21.4,21.4,0,0,1-3.9,2.91c-.49.29-1,.56-1.52.81a20.28,20.28,0,0,1-2.82,1.14c-.08.12-.17.23-.26.34l0,0h0a6.44,6.44,0,0,1-1.15,1l-.38.26a8.55,8.55,0,0,1-2.71,1.12,2.6,2.6,0,0,1-.27.06h0a9.36,9.36,0,0,0,1.2.16l.53,0,.53,0a9.36,9.36,0,0,0,1.2-.16l.32-.07a8.55,8.55,0,0,0,2.71-1.12l.38-.26a6,6,0,0,0,.76-.64v6.26a7,7,0,0,1-6.67,7,2.17,2.17,0,0,0,.36,0h.94a7.06,7.06,0,0,0,7-7V73a21.74,21.74,0,0,0,7.26-4.51c.18-.16.35-.33.53-.51.34-.34.68-.7,1-1.07a20.14,20.14,0,0,0,1.86-2.44c.17-.27.34-.53.5-.8s.32-.55.47-.83.3-.56.44-.85.36-.76.52-1.15.24-.6.35-.9a3.25,3.25,0,0,0,.15-.44,7.48,7.48,0,0,0,.25-.76c.06-.18.11-.36.16-.54s.16-.6.22-.91.15-.66.21-1a2.17,2.17,0,0,0,.36,0c3.27,0,5.92-3.48,5.92-7.77A9.62,9.62,0,0,0,92.53,46.18Zm-6,10c0-.17.06-.33.08-.5s0-.32.07-.49c.06-.45.11-.91.13-1.38q0-.3,0-.6c0-.27,0-.54,0-.81s0-.53,0-.79c0-.41,0-.82-.08-1.22s-.11-1-.2-1.54a.34.34,0,0,0,0-.1s0,0,0-.05a24.46,24.46,0,0,0,1.3-7.11A7.48,7.48,0,0,1,91,46.18a9.62,9.62,0,0,1,.29,2.37C91.24,52.28,89.24,55.39,86.57,56.14Z"/>
			<path class="cls-4" d="M62.11,54.53a4.08,4.08,0,0,0,5.9,0"/>
		</g>
		<path class="cls-6" d="M92.47,34.76h0a2.58,2.58,0,0,0-1.09-2.12A2.67,2.67,0,0,0,92,31h0a2.61,2.61,0,0,0-1.57-2.4,2.59,2.59,0,0,0,.11-.74h0a2.63,2.63,0,0,0-2.19-2.59,2.56,2.56,0,0,0,.44-1.45h0a2.64,2.64,0,0,0-2.07-2.57c0-.1,0-.21,0-.32h0a2.64,2.64,0,0,0-2.64-2.64l-.32,0v0h0a2.63,2.63,0,0,0-2.63-2.63,2.53,2.53,0,0,0-.68.09v-.09h0A2.64,2.64,0,0,0,77.81,13a2.54,2.54,0,0,0-1.07.23,2.63,2.63,0,0,0-2.48-1.76,2.6,2.6,0,0,0-1.33.36,2.62,2.62,0,0,0-4.4-.48,2.6,2.6,0,0,0-2.41-1.59,2.65,2.65,0,0,0-2.08,1A2.64,2.64,0,0,0,62.2,10a2.57,2.57,0,0,0-1.1.27c-.08,0-.16.06-.23.1a2.63,2.63,0,0,0-.31.24,2.6,2.6,0,0,0-.23.19,2.62,2.62,0,0,0-.27.35c0,.06-.09.1-.12.16h0l-.07.1a2.63,2.63,0,0,0-4.14,1.38,2.64,2.64,0,0,0-4,1.45,2.49,2.49,0,0,0-.91-.17,2.64,2.64,0,0,0-2.63,2.64v.09a2.48,2.48,0,0,0-.68-.09,2.64,2.64,0,0,0-2.64,2.63,2.6,2.6,0,0,0,.06.56h-.06a2.64,2.64,0,0,0-2.63,2.64,2.6,2.6,0,0,0,.06.56,2.65,2.65,0,0,0-2,2.57,2.62,2.62,0,0,0,.41,1.41,2.63,2.63,0,0,0-.76,4.75,2.63,2.63,0,0,0-1.22,4.72,2.63,2.63,0,0,0,.46,4.49,2.56,2.56,0,0,0-.44,1.45,2.64,2.64,0,0,0,2.64,2.63l.3,0,0,0,.2,0,.07,0,.19,0A2.62,2.62,0,0,0,44,42a2.58,2.58,0,0,0-.58-1.23,1.86,1.86,0,0,0,.44-1.2,1.54,1.54,0,0,0-.06-.43A1.86,1.86,0,0,0,45.08,37a1.78,1.78,0,0,0-.4-.86,1.8,1.8,0,0,0,.32-.56h0a1.85,1.85,0,0,0,.12-.66,1.8,1.8,0,0,0-.15-.73c10.79.51,21.7.16,34.85-5.86a1.74,1.74,0,0,0,.88.93,1.47,1.47,0,0,0,0,.36,1.88,1.88,0,0,0,1.88,1.88.82.82,0,0,0,.22,0,1.66,1.66,0,0,0-.22.85,1.87,1.87,0,0,0,1.66,1.86,1.58,1.58,0,0,0,0,.38,1.85,1.85,0,0,0,1.65,1.85h0s0,0,0,0a1.82,1.82,0,0,0-.64,1.39,1.87,1.87,0,0,0,1.69,1.86,1.86,1.86,0,0,0,.53,3.07l.07,0a.5.5,0,0,0,0,.13,1.92,1.92,0,0,0-.13.72,2.16,2.16,0,0,0,1.93,2.14h.41a3.26,3.26,0,0,0,.45-.09,1.88,1.88,0,0,0,.39-.16A2.61,2.61,0,0,0,92,43.23h0a2.68,2.68,0,0,0-.76-1.86,2.59,2.59,0,0,0,1.25-2.23h0a2.63,2.63,0,0,0-1.18-2.19A2.63,2.63,0,0,0,92.47,34.76Z"/>
		<g id="Cheveux">
			<path class="cls-5" d="M89.24,42.66A2.68,2.68,0,0,1,90,44.52a2.6,2.6,0,0,1-.36,1.33h-.42a2.16,2.16,0,0,1-1.93-2.14,1.92,1.92,0,0,1,.13-.72.5.5,0,0,1,0-.13l-.07,0a1.86,1.86,0,0,1-.53-3.07,1.87,1.87,0,0,1-1.69-1.86,1.82,1.82,0,0,1,.64-1.39s0,0,0,0h0a1.85,1.85,0,0,1-1.65-1.85,1.58,1.58,0,0,1,0-.38,1.87,1.87,0,0,1-1.66-1.86,1.66,1.66,0,0,1,.22-.85.82.82,0,0,1-.22,0,1.88,1.88,0,0,1-1.88-1.88,1.47,1.47,0,0,1,0-.36,1.74,1.74,0,0,1-.88-.93c-13.15,6-24.06,6.37-34.85,5.86a1.8,1.8,0,0,1,.15.73,1.84,1.84,0,0,1-.12.66l-2-.08a1.8,1.8,0,0,1,.15.73,1.83,1.83,0,0,1-.44,1.2,1.8,1.8,0,0,1,.44,1.19,1.86,1.86,0,0,1-1.35,1.79,1.54,1.54,0,0,1,.06.43,1.86,1.86,0,0,1-.45,1.21A2.58,2.58,0,0,1,42,43.82a2.51,2.51,0,0,1-.35,1.3l-.31,0a2.64,2.64,0,0,1-2.64-2.63,2.56,2.56,0,0,1,.44-1.45,2.63,2.63,0,0,1-.46-4.49,2.63,2.63,0,0,1,1.22-4.72,2.63,2.63,0,0,1,.76-4.75,2.62,2.62,0,0,1-.41-1.41,2.65,2.65,0,0,1,2-2.57,2.6,2.6,0,0,1-.06-.56,2.64,2.64,0,0,1,2.63-2.64H45a2.6,2.6,0,0,1-.06-.56,2.64,2.64,0,0,1,2.64-2.63,2.48,2.48,0,0,1,.68.09v-.09a2.64,2.64,0,0,1,2.63-2.64,2.49,2.49,0,0,1,.91.17,2.64,2.64,0,0,1,4-1.45,2.63,2.63,0,0,1,4.14-1.38.47.47,0,0,1,.06-.09l.28,0a2.64,2.64,0,0,1,1.84.74,2.65,2.65,0,0,1,2.08-1,2.6,2.6,0,0,1,2.41,1.59,2.62,2.62,0,0,1,4.4.48,2.6,2.6,0,0,1,1.33-.36,2.63,2.63,0,0,1,2.48,1.76,2.54,2.54,0,0,1,1.07-.23,2.64,2.64,0,0,1,2.64,2.63V17a2.54,2.54,0,0,1,.68-.09,2.63,2.63,0,0,1,2.63,2.63v0l.32,0a2.64,2.64,0,0,1,2.64,2.64c0,.11,0,.22,0,.32a2.64,2.64,0,0,1,2.07,2.57,2.56,2.56,0,0,1-.44,1.45,2.63,2.63,0,0,1,2.19,2.59,2.6,2.6,0,0,1-.11.74A2.61,2.61,0,0,1,90,32.25a2.67,2.67,0,0,1-.6,1.68A2.58,2.58,0,0,1,90.49,36a2.63,2.63,0,0,1-1.18,2.19,2.63,2.63,0,0,1,1.18,2.19A2.59,2.59,0,0,1,89.24,42.66Z"/>
		</g>
	</g>
</svg>