<svg xmlns="http://www.w3.org/2000/svg" viewBox="0 0 128.8 119.09">
	<defs>
		<style>.cls-1{fill:#868686;}.cls-2{fill:#bfbabe;}.cls-3{fill:#f4cda5;}.cls-4{fill:#eac39f;}.cls-5{fill:#333;}</style>
	</defs>
	<title>Personnage.21.04.2017</title>
	<g id="SVG">
		<path d="M91.48,70.91C82.89,78.14,73.35,76,65.06,76.5c-8.29-.54-17.83,1.64-26.43-5.59s-7-16.75-5.62-25c.11-.67.27-1.4.44-2.17,2-8.63,7.81-22.31,12.69-26,5.33-4.07,10-4.77,18.93-5.29,8.91.52,13.6,1.22,18.93,5.29,4.87,3.72,10.69,17.41,12.69,26,.17.77.33,1.5.44,2.17C98.53,54.17,100.09,63.67,91.48,70.91Z"/>
		<path class="cls-1" d="M81.57,83.39h0a44.55,44.55,0,0,0-4.69-1.79,38,38,0,0,0-23.65,0c-11.74,3.74-21,12.3-22.51,19.29a9.37,9.37,0,0,0-.23,2H99.65C99.65,96.52,92.1,88.13,81.57,83.39Z"/>
		<path class="cls-2" d="M95.53,101H30.47C32,94,41.24,85.4,53,81.66c.94,1.75,5,8.63,11.58,8.63s11-6.9,12.07-8.64a44.55,44.55,0,0,1,4.69,1.79h0C89.79,88.31,95.53,95.4,95.53,101Z"/>
		<g id="Visage">
			<path class="cls-3" d="M87.92,40.91h0a2.26,2.26,0,0,0,0-.26c0-13.19-10.24-23.89-22.87-23.89S42.19,27.45,42.19,40.64a2.26,2.26,0,0,0,0,.26h0c-2.79.62-4.9,3.81-4.9,7.65,0,4.29,2.65,7.77,5.92,7.77a2.23,2.23,0,0,0,.35,0c.06.34.13.67.21,1s.14.61.22.91.1.36.16.54a7.5,7.5,0,0,0,.25.76,3.26,3.26,0,0,0,.15.44c.11.3.22.6.35.9s.33.77.52,1.15.28.57.44.85.31.55.47.83.33.53.5.8a20.14,20.14,0,0,0,1.86,2.44c.32.37.66.73,1,1.07.18.18.35.35.53.51a22,22,0,0,0,7.38,4.56v7.35a7,7,0,0,0,6.68,7,7,7,0,0,0,6.67-7V74.15c.13-.13.27-.26.39-.4h0l0,0c.09-.11.18-.22.26-.34a21.94,21.94,0,0,0,8.24-4.86c.18-.16.35-.33.53-.51.34-.34.68-.7,1-1.07a20.14,20.14,0,0,0,1.86-2.44c.17-.27.34-.53.5-.8s.32-.55.47-.83.3-.56.44-.85.36-.76.52-1.15.24-.6.35-.9a3.26,3.26,0,0,0,.15-.44,7.5,7.5,0,0,0,.25-.76c.06-.18.11-.36.16-.54s.16-.6.22-.91.15-.66.21-1v0a2.18,2.18,0,0,0,.36,0c3.27,0,5.92-3.48,5.92-7.77C92.83,44.72,90.71,41.53,87.92,40.91Z"/>
			<path class="cls-4" d="M92.53,46.18c-.65-2.72-2.43-4.79-4.62-5.29a2.26,2.26,0,0,0,0-.26A24.6,24.6,0,0,0,84,27.25c.77,3.13.37,7.54.37,13.38a2.27,2.27,0,0,1,0,.26h0c0,.22,0,.44,0,.65A24.46,24.46,0,0,1,83,48.66s0,0,0,.05a.34.34,0,0,1,0,.1c.09.51.15,1,.2,1.54s.06.81.08,1.22c0,.26,0,.52,0,.79s0,.54,0,.81,0,.4,0,.6c0,.47-.07.93-.13,1.38,0,.17,0,.33-.07.49s0,.33-.08.5l0,.16c-.06.34-.13.67-.21,1s-.14.61-.22.91-.1.36-.16.54a7.5,7.5,0,0,1-.25.76A3.25,3.25,0,0,1,82,60c-.11.3-.22.6-.35.9s-.33.77-.52,1.15-.28.57-.44.85-.31.55-.47.83-.33.53-.5.8a20.14,20.14,0,0,1-1.86,2.44c-.32.37-.66.73-1,1.07-.18.18-.35.35-.53.51a21.4,21.4,0,0,1-3.9,2.91c-.49.29-1,.56-1.52.81a20.28,20.28,0,0,1-2.82,1.14c-.08.12-.17.23-.26.34l0,0h0a6.44,6.44,0,0,1-1.15,1l-.38.26a8.55,8.55,0,0,1-2.71,1.12,2.6,2.6,0,0,1-.27.06h0a9.36,9.36,0,0,0,1.2.16l.53,0,.53,0a9.36,9.36,0,0,0,1.2-.16l.32-.07a8.55,8.55,0,0,0,2.71-1.12l.38-.26a6,6,0,0,0,.76-.64v6.26a7,7,0,0,1-6.67,7,2.17,2.17,0,0,0,.36,0h.94a7.06,7.06,0,0,0,7-7V73a21.74,21.74,0,0,0,7.26-4.51c.18-.16.35-.33.53-.51.34-.34.68-.7,1-1.07a20.14,20.14,0,0,0,1.86-2.44c.17-.27.34-.53.5-.8s.32-.55.47-.83.3-.56.44-.85.36-.76.52-1.15.24-.6.35-.9a3.25,3.25,0,0,0,.15-.44,7.48,7.48,0,0,0,.25-.76c.06-.18.11-.36.16-.54s.16-.6.22-.91.15-.66.21-1a2.17,2.17,0,0,0,.36,0c3.27,0,5.92-3.48,5.92-7.77A9.62,9.62,0,0,0,92.53,46.18Zm-6,10c0-.17.06-.33.08-.5s0-.32.07-.49c.06-.45.11-.91.13-1.38q0-.3,0-.6c0-.27,0-.54,0-.81s0-.53,0-.79c0-.41,0-.82-.08-1.22s-.11-1-.2-1.54a.34.34,0,0,0,0-.1s0,0,0-.05a24.46,24.46,0,0,0,1.3-7.11A7.48,7.48,0,0,1,91,46.18a9.62,9.62,0,0,1,.29,2.37C91.24,52.28,89.24,55.39,86.57,56.14Z"/>
			<path class="cls-4" d="M62.11,54.53a4.08,4.08,0,0,0,5.9,0"/>
		</g>
		<path class="cls-5" d="M91,42.33H84c-1.07-6.77-5.47-8.15-5.47-8.15,1,.78,1.85,4.31,1.85,4.31H76.22c-.75-3.91-4.62-6.14-4.86-6.27a12.27,12.27,0,0,1,2.87,7.92c-5.73,1.34-17.91,1.64-24.58.15A11.45,11.45,0,0,1,52,34.18a8.94,8.94,0,0,0-5.52,8.15H39.12C40.76,35,45.53,23.41,49.53,20.26c4.37-3.45,8.22-4,15.53-4.48,7.31.44,11.16,1,15.53,4.48C84.59,23.41,89.36,35,91,42.33Z"/>
	</g>
</svg>