<?xml version="1.0" encoding="utf-8"?>
<svg version="1.1" id="glasses3" xmlns="http://www.w3.org/2000/svg" xmlns:xlink="http://www.w3.org/1999/xlink" x="0px" y="0px"
	viewBox="0 0 315 350" style="enable-background:new 0 0 315 350;" xml:space="preserve">
	<path class="st7 adult" d="M82.8,167.8c3.7,1.6,37.7,8.9,52.3,2.9c14.6-5.9,6.6-20.3,18.4-19.9c11.8-0.4,3.9,14,18.4,19.9
		c14.6,5.9,48.5-1.4,52.3-2.9c3.7-1.6,3.6-10,4.7-12.6s6.5-4.3,6.5-4.3v-13.6c-7.8-3.7-47-1.8-56.5,0s-24.9,5.3-24.9,5.3
		s-14.8-3.5-24.2-5.3s-49.8-3.7-55.3,0v13.6c0,0,3.8,1.8,5,4.3C80.8,157.8,79.1,166.2,82.8,167.8z M164.6,144.9
		c2.9-2.3,22.5-8.1,53.4-5.7c1.7,0.1,5.6,1.3,5.7,3.8s0.1,16-0.7,17.8s-1.3,6-18.6,8.4c-17.3,2.4-31.8,0.5-35.5-4.5
		C165.1,159.7,161.7,147.1,164.6,144.9z M83.4,143c0.1-2.5,4-3.7,5.7-3.8c31-2.4,50.5,3.4,53.5,5.7c2.9,2.3-0.6,14.9-4.3,19.9
		s-18.3,6.9-35.5,4.5c-17.3-2.4-17.8-6.5-18.6-8.4C83.2,158.9,83.2,145.5,83.4,143z"/>
	</svg>
