<?xml version="1.0" encoding="utf-8"?>
<svg version="1.1" id="glasses1" xmlns="http://www.w3.org/2000/svg" xmlns:xlink="http://www.w3.org/1999/xlink" x="0px" y="0px"
	viewBox="0 0 315 350" style="enable-background:new 0 0 315 350;" xml:space="preserve">
	<path class="st7 adult" d="M74.8,142.4c2.8,2.7,3,10.5,3,10.5c2.8,22.3,13.3,27.7,30.4,27.7s20.8-3.8,25.7-7.6
		c4.9-3.9,8.6-17.6,10.2-22.4c1.6-4.9,8.9-5.3,8.9-5.3s7.4,0.5,8.9,5.3c1.6,4.9,5.3,18.6,10.2,22.4c4.9,3.9,8.6,7.6,25.7,7.6
		s27.5-5.4,30.4-27.7c0,0,0.3-7.8,3-10.5s4.1-2.7,4.1-4.9s4-5.7-7.2-6.5c-11.1-0.8-16.6-2-28.4-2c-11.9,0-30.7,0.1-33.9,3.3
		c-3.2,3.2-7,4.1-13.6,4.1c-6.6,0-9-1-12.1-4.1s-22-3.3-33.9-3.3s-17.3,1.2-28.4,2c-11.1,0.8-7.2,4.3-7.2,6.5S72,139.7,74.8,142.4z
		 M175,135.5c10.2-3.1,35.2-4.1,46.3-0.5c0,0,4.5,1.2,4.4,7.4c-0.1,6.3-2.6,19.9-4.4,23.8s-3.6,11.2-23.9,11.8
		c-20.3,0.6-27.2-10.2-29.4-20C165.7,148.4,164.8,138.6,175,135.5z M85.3,135.1c11-3.7,36.1-2.7,46.3,0.5s9.3,12.9,7.1,22.6
		c-2.2,9.8-9.1,20.5-29.4,20c-20.3-0.6-22.1-7.8-23.9-11.8c-1.8-4-4.3-17.6-4.4-23.8C80.8,136.2,85.3,135.1,85.3,135.1z"/>
</svg>
