<?xml version="1.0" encoding="utf-8"?>
<svg version="1.1" id="glasses5" xmlns="http://www.w3.org/2000/svg" xmlns:xlink="http://www.w3.org/1999/xlink" x="0px" y="0px"
	 viewBox="0 0 315 350" style="enable-background:new 0 0 315 350;margin-top: -45px !important;" xml:space="preserve">
	<path class="st7 baby" d="M245.7,186.4c-1.8-6.1-5.7-10.5-11.5-13.1c-5.9-2.6-13.2-3.9-22.1-3.9c-12.1,0-25,2.5-28.1,3.8
		c-0.1,0-0.2,0.1-0.4,0.1c-6.2,2.6-10.4,6.6-12.9,11.8c-12.4-4.9-24.7-1.6-29.5,0.1c-2.4-5.2-6.7-9.3-12.9-11.8
		c-0.1-0.1-0.3-0.1-0.4-0.2c-3-1.3-15.8-3.8-28-3.8c-8.9,0-16.3,1.3-22.1,3.9c-5.7,2.6-9.7,7-11.5,13.1c-2.7-0.1-7.6-0.2-7.6,1.3
		c0,1.4,4,2.2,6.8,2.5c0,0.1,0,0.1,0,0.2c-1.1,7.7,0.9,14.7,1.7,17.2v0.5l0.2,0.9c7.4,17.7,20.6,28.2,36.3,28.2h0.3
		c0.3,0,29.3-0.7,37.5-28.7c1.8-6.4,2.4-12.3,1.5-17.2c3.9-1.4,15.1-4.7,25.9-0.1c-0.9,5-0.3,11.1,1.5,17.5
		c8.2,28.1,37.2,28.6,37.5,28.6h0.3c15.7,0,29-10.5,36.2-28.3l0.2-0.7v-0.7c0.9-2.5,2.9-9.5,1.7-17.2c0-0.1,0-0.2,0-0.3
		c2.7-0.4,6.1-1.2,6.1-2.4C252.7,186.3,248.5,186.2,245.7,186.4z M137.8,206.4c-6.8,23-29.7,24.5-33.7,24.5s-22.6,0.3-32.9-24.5
		c0,0-8-21.8,8-28.8c15.9-7,44.5-1.3,47.4,0C129.6,178.8,144.6,183.5,137.8,206.4z M241.1,206.4c-10.2,24.8-28.7,24.5-32.9,24.5
		c-4.1,0-26.9-1.5-33.7-24.5c-6.8-22.9,8.2-27.5,11.2-28.8c2.9-1.3,31.4-7,47.4,0C248.9,184.7,241.1,206.4,241.1,206.4z"/>
</svg>
