<?xml version="1.0" encoding="utf-8"?>
<svg version="1.1" id="glasses4" xmlns="http://www.w3.org/2000/svg" xmlns:xlink="http://www.w3.org/1999/xlink" x="0px" y="0px"
viewBox="0 0 315 350" style="enable-background:new 0 0 315 350;margin-top: -36px !important;" xml:space="preserve">
	<path class="st7 child" d="M238.3,158.7c-1.7-5.6-5.3-9.7-10.6-12.1c-5.4-2.4-12.2-3.6-20.4-3.6c-11.2,0-23.1,2.3-25.9,3.5
		c-0.1,0-0.2,0.1-0.4,0.1c-5.7,2.4-9.6,6.1-11.9,10.9c-11.4-4.5-22.8-1.5-27.2,0.1c-2.2-4.8-6.2-8.6-11.9-10.9
		c-0.1-0.1-0.3-0.1-0.4-0.2c-2.8-1.2-14.6-3.5-25.8-3.5c-8.2,0-15,1.2-20.4,3.6c-5.3,2.4-8.9,6.5-10.6,12.1c-2.5-0.1-7-0.2-7,1.2
		c0,1.3,3.7,2,6.3,2.3c0,0.1,0,0.1,0,0.2c-1,7.1,0.8,13.6,1.6,15.9v0.5l0.2,0.8c6.8,16.3,19,26,33.5,26h0.3c0.3,0,27-0.6,34.6-26.5
		c1.7-5.9,2.2-11.3,1.4-15.9c3.6-1.3,13.9-4.3,23.9-0.1c-0.8,4.6-0.3,10.2,1.4,16.1c7.6,25.9,34.3,26.4,34.6,26.4h0.3
		c14.5,0,26.7-9.7,33.4-26.1l0.2-0.6v-0.6c0.8-2.3,2.7-8.8,1.6-15.9c0-0.1,0-0.2,0-0.3c2.5-0.4,5.6-1.1,5.6-2.2
		C244.8,158.6,240.9,158.5,238.3,158.7z M138.8,177.1c-6.3,21.2-27.4,22.6-31.1,22.6s-20.8,0.3-30.3-22.6c0,0-7.4-20.1,7.4-26.6
		c14.7-6.5,41-1.2,43.7,0C131.3,151.7,145.1,156,138.8,177.1z M234.1,177.1c-9.4,22.9-26.5,22.6-30.3,22.6s-24.8-1.4-31.1-22.6
		c-6.3-21.1,7.6-25.4,10.3-26.6c2.7-1.2,29-6.5,43.7,0C241.3,157.1,234.1,177.1,234.1,177.1z"/>
</svg>
