<?xml version="1.0" encoding="utf-8"?>
<svg version="1.1" id="adult08" xmlns="http://www.w3.org/2000/svg" xmlns:xlink="http://www.w3.org/1999/xlink" x="0px" y="0px"
	 viewBox="0 0 315 350" style="enable-background:new 0 0 315 350;" xml:space="preserve">
<style type="text/css">
	.st0{fill:#BFBABE;}
	.st1{fill:#9D9C9D;}
	.st2{fill:#7C5235;}
	.st3{fill:#66452F;}
	.st4{fill:#412308;}
	.st5{fill:#52341A;}
	.st6{display:none;}
	.st7{display:inline;}
</style>
<path id="shirt" class="st0" d="M262.1,342.9H34.2c5.4-24.5,37.7-54.5,78.9-67.6c13.4-4.3,27.4-6.5,41.5-6.6c14,0.1,28,2.3,41.3,6.6
	c5.6,1.8,11.1,3.9,16.4,6.3c0,0,0,0,0.1,0C242,298.6,262.1,323.5,262.1,342.9"/>
<!--<g id="shirt-shadow">-->
	<path id="Tracé_9712_6_" class="st1" d="M275.8,349.9H33.4c0-2.4,0.3-4.7,0.8-7h227.9c0-19.4-20.1-44.3-49.7-61.3
		C249.3,298.2,275.8,327.6,275.8,349.9"/>
	<path id="Tracé_9714_6_" class="st1" d="M195.9,275.3c-3.6,6.1-19.3,30.3-42.3,30.3s-37.3-24.1-40.6-30.2
		c13.4-4.3,27.4-6.5,41.5-6.6C168.6,268.8,182.6,271,195.9,275.3"/>
<!--</g> -->
<path id="face" class="st2" d="M234.5,132.5C234.5,132.5,234.5,132.5,234.5,132.5C234.5,132.5,234.5,132.5,234.5,132.5L234.5,132.5
	c0-0.3,0-0.6,0-0.9c0-46.2-35.9-83.7-80.1-83.7s-80.1,37.5-80.1,83.7c0,0.3,0,0.6,0,0.9v0v0c-9.8,2.2-17.2,13.3-17.2,26.8
	c0,15,9.3,27.2,20.7,27.2c0.4,0,0.8,0,1.2-0.1c0.2,1.2,0.4,2.3,0.7,3.5c0.2,1.1,0.5,2.1,0.8,3.2c0.2,0.6,0.3,1.3,0.6,1.9
	c0.2,0.9,0.5,1.8,0.9,2.7c0.1,0.5,0.3,1,0.5,1.5c0.4,1.1,0.8,2.1,1.2,3.1c0.6,1.4,1.2,2.7,1.8,4c0.5,1,1,2,1.5,3s1.1,2,1.7,2.9
	c0.6,0.9,1.2,1.9,1.8,2.8c1.9,3,4.1,5.9,6.5,8.6c1.1,1.3,2.3,2.6,3.5,3.8c0.6,0.6,1.2,1.2,1.9,1.8c7.5,7,16.3,12.4,25.8,15.9v25.8
	c0,13.1,10.3,23.9,23.4,24.6c13.1-0.7,23.3-11.5,23.4-24.6V249c0.5-0.5,0.9-0.9,1.4-1.4v0c0.1,0,0.1-0.1,0.1-0.1
	c0.3-0.4,0.6-0.8,0.9-1.2c10.8-3.5,20.6-9.3,28.9-17c0.6-0.6,1.2-1.2,1.9-1.8c1.2-1.2,2.4-2.4,3.5-3.8c2.4-2.7,4.6-5.5,6.5-8.6
	c0.6-0.9,1.2-1.8,1.8-2.8s1.1-1.9,1.6-2.9c0.6-1,1.1-2,1.5-3c0.7-1.3,1.3-2.7,1.8-4c0.4-1.1,0.8-2.1,1.2-3.1c0.2-0.5,0.4-1,0.5-1.5
	c0.3-0.9,0.6-1.8,0.9-2.7c0.2-0.6,0.4-1.3,0.6-1.9c0.3-1.1,0.6-2.1,0.8-3.2c0.3-1.2,0.5-2.3,0.7-3.5v0c0.4,0.1,0.8,0.1,1.3,0.1
	c11.4,0,20.7-12.2,20.7-27.2C251.7,145.9,244.2,134.7,234.5,132.5z"/>
<!-- <g id="face-shadow"> -->
	<path id="Tracé_9710_6_" class="st3" d="M57.1,159.3c0,15,9.3,27.2,20.7,27.2c0.4,0,0.8,0,1.3-0.1c0-0.2-0.1-0.4-0.1-0.6
		c-9.3-2.6-16.4-13.5-16.4-26.6c0-2.8,0.3-5.6,1-8.3c1.4-6.6,5.2-12.4,10.7-16.2c0-0.7-0.1-1.5-0.1-2.3v0c-7.7,1.8-13.9,9-16.2,18.5
		C57.5,153.7,57.1,156.5,57.1,159.3"/>
	<path class="st3" d="M250.7,151c-2.3-9.5-8.5-16.8-16.2-18.5v0c0,0.8,0,1.5-0.1,2.3c5.5,3.8,9.4,9.6,10.7,16.2c0.7,2.7,1,5.5,1,8.3
		c0,13.1-7,24-16.4,26.6c0.1-0.6,0.2-1.2,0.3-1.7c0.1-0.6,0.2-1.1,0.2-1.7c0.2-1.6,0.4-3.2,0.4-4.8c0.1-0.7,0.1-1.4,0.1-2.1
		c0.1-0.9,0.1-1.9,0.1-2.8s0-1.9,0-2.8c-0.1-1.4-0.1-2.9-0.3-4.3c-0.2-1.8-0.4-3.6-0.7-5.4l0-0.4l0-0.2c2.7-8,4.3-16.4,4.6-24.9
		c0-0.7,0.1-1.5,0.1-2.3v0l0-0.9c0-16.6-4.7-32.9-13.7-46.9c2.7,11,1.3,26.4,1.3,46.9l0,0.9v0c0,0.8,0,1.5-0.1,2.3
		c-0.3,8.5-1.8,16.9-4.6,24.9l0,0.2l0,0.4c0.3,1.8,0.5,3.6,0.7,5.4c0.1,1.4,0.2,2.8,0.3,4.3c0,0.9,0,1.8,0,2.8c0,0.9,0,1.9-0.1,2.8
		c0,0.7,0,1.4-0.1,2.1c-0.1,1.6-0.2,3.3-0.4,4.8c-0.1,0.6-0.2,1.1-0.2,1.7s-0.2,1.2-0.3,1.8l-0.1,0.6c-0.2,1.2-0.4,2.3-0.7,3.5
		c-0.2,1.1-0.5,2.1-0.8,3.2c-0.2,0.6-0.4,1.3-0.6,1.9c-0.2,0.9-0.5,1.8-0.9,2.7c-0.1,0.5-0.3,1-0.5,1.5c-0.4,1.1-0.8,2.1-1.2,3.1
		c-0.6,1.4-1.2,2.7-1.8,4c-0.5,1-1,2-1.5,3s-1.1,2-1.6,2.9c-0.6,0.9-1.2,1.9-1.8,2.8c-1.9,3-4.1,5.9-6.5,8.6
		c-1.1,1.3-2.3,2.6-3.5,3.8c-0.6,0.6-1.2,1.2-1.9,1.8c-8.2,7.7-18.1,13.6-28.9,17c-0.3,0.4-0.6,0.8-0.9,1.2l-0.1,0.1v0
		c-1.2,1.4-2.5,2.6-4,3.7c-0.4,0.3-0.9,0.6-1.3,0.9c-2.9,1.8-6.1,3.2-9.5,3.9l-0.9,0.2l0.1,0c1.4,0.3,2.8,0.5,4.2,0.6
		c0.6,0,1.2,0.1,1.9,0.1s1.2,0,1.9-0.1c1.4-0.1,2.8-0.3,4.2-0.6c0.4-0.1,0.7-0.1,1.1-0.2c3.4-0.8,6.6-2.1,9.5-3.9
		c0.5-0.3,0.9-0.6,1.3-0.9c0.9-0.7,1.8-1.4,2.6-2.3v21.9c0,13.1-10.3,23.9-23.4,24.6c0.4,0.1,0.8,0.1,1.2,0.1h3.3
		c13.6,0,24.6-11.1,24.7-24.7V245c9.4-3.6,18.1-8.9,25.4-15.8c0.6-0.6,1.2-1.2,1.9-1.8c1.2-1.2,2.4-2.4,3.5-3.8
		c2.4-2.7,4.6-5.5,6.5-8.6c0.6-0.9,1.2-1.8,1.8-2.8s1.1-1.9,1.6-2.9c0.6-1,1.1-2,1.5-3c0.7-1.3,1.3-2.7,1.8-4
		c0.4-1.1,0.8-2.1,1.2-3.1c0.2-0.5,0.4-1,0.5-1.5c0.3-0.9,0.6-1.8,0.9-2.7c0.2-0.6,0.4-1.3,0.6-1.9c0.3-1.1,0.6-2.1,0.8-3.2
		c0.3-1.2,0.5-2.3,0.7-3.5v0c0.4,0.1,0.8,0.1,1.3,0.1c11.4,0,20.7-12.2,20.7-27.2C251.7,156.5,251.3,153.7,250.7,151z"/>
	<path id="Tracé_9722_6_" class="st3" d="M144.1,180.2c5.4,5.7,14.5,5.9,20.2,0.5c0.2-0.2,0.3-0.3,0.5-0.5"/>
<!-- </g> -->
<path id="hair-dark" class="st4" d="M310.8,175.4c-0.1-0.6-0.2-1.2-0.4-1.7c-0.4-1.1-1-2-1.7-2.9c-0.8-0.8-1.6-1.5-2.6-2.2
	c-1-0.6-2-1.2-3-1.7c-2-1.1-4.2-2-5.8-3.1c-1.7-1.3-2.9-2.9-3.2-5.3c-1.3-9.5,14.6-11.6,13.3-21.1c-0.6-4.7-4.9-6.6-9.2-8.4
	c-2.1-0.9-4.3-1.8-6-2.8c-1.7-1-3-2.3-3.6-4.2c-0.6-1.9-0.2-3.7,0.6-5.5c0.9-1.8,2.2-3.7,3.4-5.7c1.2-2,2.3-4.1,2.8-6.3
	c0.3-2.3,0.2-4.2-1.1-6.3c-5.2-8-18.6,0.8-23.9-7.2c-5.2-8,8.1-16.8,2.9-24.8c-5.2-8-18.6,0.8-23.9-7.2c-5.2-8,8.1-16.8,2.9-24.8
	c-1.3-2-3.1-2.9-5.2-3.4c-2.2-0.5-4.5-0.4-6.9-0.1c-2.3,0.3-4.5,0.7-6.6,0.7c-2,0-3.8-0.4-5.3-1.7c-0.8-0.6-1.3-1.5-1.6-2.3
	c-0.4-0.8-0.6-1.8-0.7-2.8c-0.2-2-0.1-4.3,0-6.6c0-2.3-0.1-4.7-0.9-6.8c-0.8-2.1-2.3-3.9-4.8-4.9c-1.3-0.5-2.5-0.7-3.7-0.5
	c-1.2,0.1-2.2,0.5-3.2,1c-2,1.1-3.7,2.7-5.2,4.5c-1.5,1.8-2.9,3.5-4.4,4.9c-0.7,0.7-1.5,1.2-2.3,1.6c-0.8,0.4-1.7,0.6-2.7,0.6
	c-9.6,0-9.6-16-19.1-16c-9.6,0-9.6,16-19.1,16c-9.6,0-9.6-16-19.1-16c-9.6,0-9.6,16-19.1,16c-2.4,0-4.2-1-5.6-2.5
	c-1.3-1.4-2.6-3.5-3.9-5.3c-1.3-1.9-2.8-3.8-4.7-5c-1.9-1.3-4.1-1.8-6.8-1.1c-1.3,0.4-2.4,0.9-3.3,1.7c-0.9,0.8-1.5,1.7-2,2.6
	c-1,2-1.4,4.3-1.6,6.7c-0.2,2.4-0.3,4.6-0.7,6.6c-0.4,2-1.2,3.6-2.8,4.8c-0.8,0.6-1.7,0.9-2.6,1.1c-0.9,0.2-1.8,0.2-2.8,0.1
	c-2-0.2-4.2-0.8-6.5-1.4c-2.2-0.5-4.6-0.9-6.8-0.6c-1.1,0.2-2.2,0.5-3.2,1.1c-1,0.6-1.9,1.5-2.7,2.6c-5.2,8,8.1,16.8,2.9,24.8
	c-5.2,8-18.6-0.8-23.9,7.2c-5.2,8,8.1,16.8,2.9,24.8c-5.2,8-18.6-0.8-23.9,7.2c-2.6,4-0.6,8.2,1.4,12.4c1,2.1,2.1,4.1,2.8,6
	c0.7,1.9,0.9,3.7,0.1,5.5c-0.8,1.9-2.2,2.9-4,3.8c-1.8,0.8-4,1.4-6.3,2.2c-2.2,0.7-4.4,1.6-6.1,3c-1.7,1.3-2.9,2.9-3.3,5.3
	c-1.4,9.5,14.5,11.7,13.1,21.2c-0.7,4.7-5,6.5-9.3,8.3c-2.2,0.9-4.3,1.8-6,3.3c-1.6,1.5-2.8,3.5-2.8,6.3c0,1.4,0.4,2.6,0.8,3.6
	c0.5,1,1.3,1.9,2.1,2.6c1.7,1.5,3.9,2.4,6.1,3.2c2.2,0.8,4.4,1.4,6.2,2.3c0.9,0.4,1.7,1,2.4,1.6c0.3,0.3,0.6,0.7,0.9,1
	c0.3,0.4,0.5,0.8,0.7,1.3c0.7,1.9,0.5,3.6-0.2,5.5c-0.7,1.9-1.8,3.8-2.9,5.9c-1,2.1-2,4.3-2.2,6.5c-0.1,1.1-0.1,2.2,0.3,3.3
	c0.3,1.1,0.9,2.2,1.9,3.2c1.9,2,4.1,2.7,6.3,2.7c2.2,0,4.5-0.8,6.6-1.7c2.2-0.9,4.2-1.8,6.2-2.4c1-0.3,1.9-0.4,2.8-0.4
	c0.9,0,1.8,0.2,2.7,0.7c0.9,0.5,1.6,1,2.2,1.8c0.6,0.7,1,1.6,1.4,2.5c0.7,1.9,1.2,4.1,1.8,6.4c0.6,2.2,1.3,4.5,2.6,6.3
	c1.3,1.8,3.2,3.2,6,3.4c2.7,0.3,4.9-0.7,6.4-2.2c1.5-1.5,2.7-3.5,3.9-5.5c2.4-4,4.8-8,9.6-8c9.6,0,9.6,16,19.1,16
	c1.8,0,3.3-0.6,4.6-1.6c-0.5-0.5-1-0.9-1.5-1.4c-1.2-1.2-2.4-2.5-3.5-3.7c-2.4-2.7-4.6-5.5-6.5-8.5c-0.6-0.9-1.2-1.9-1.8-2.8
	c-0.6-0.9-1.1-1.9-1.6-2.9c-0.5-1-1.1-2-1.5-3c-0.7-1.3-1.3-2.7-1.8-4c-0.5-1.1-0.8-2.1-1.2-3.2c-0.2-0.5-0.4-1-0.5-1.5
	c-0.3-0.9-0.6-1.8-0.9-2.7c-0.2-0.6-0.4-1.3-0.6-1.9c-0.3-1.1-0.6-2.1-0.8-3.2c-0.3-1.2-0.5-2.3-0.7-3.5c-0.4,0.1-0.8,0.1-1.2,0.1
	c-11.5,0-20.7-12.2-20.7-27.2c0-13.4,7.4-24.6,17.2-26.8c0,0,0,0,0,0v0c0-0.3,0-0.6,0-0.9c0-46.2,35.9-83.7,80.1-83.7
	c44.3,0,80.1,37.5,80.1,83.7c0,0.3,0,0.6,0,0.9v0c0,0,0,0,0,0c0,0,0,0,0,0c9.8,2.2,17.2,13.3,17.2,26.8c0,15-9.3,27.2-20.7,27.2
	c-0.4,0-0.8,0-1.3-0.1c0,0,0,0,0,0c-0.2,1.2-0.5,2.3-0.7,3.5c-0.2,1.1-0.5,2.1-0.8,3.2c-0.2,0.6-0.4,1.3-0.6,1.9
	c-0.2,0.9-0.5,1.8-0.9,2.7c-0.1,0.5-0.3,1-0.5,1.5c-0.4,1.1-0.8,2.1-1.2,3.2c-0.6,1.4-1.2,2.7-1.8,4c-0.5,1-1,2-1.5,3
	c-0.6,1-1.1,1.9-1.6,2.9c-0.5,1-1.2,1.9-1.8,2.8c-2,3-4.1,5.9-6.5,8.5c-1.1,1.3-2.3,2.6-3.5,3.7c-0.4,0.4-0.7,0.7-1.1,1
	c1.4,1.2,3,1.9,5.1,1.9c9.6,0,9.6-16,19.1-16c9.6,0,9.6,16,19.1,16c1.3,0,2.6-0.3,3.6-0.8c1-0.5,1.9-1.2,2.7-2
	c1.5-1.7,2.5-3.8,3.3-6c0.8-2.2,1.5-4.3,2.4-6.2c0.5-0.9,1-1.7,1.6-2.3c0.3-0.3,0.7-0.6,1.1-0.9c0.4-0.3,0.8-0.5,1.3-0.7
	c1.9-0.7,3.7-0.4,5.5,0.3c1.9,0.8,3.8,1.9,5.9,3c2,1.1,4.2,2.1,6.4,2.3c1.1,0.1,2.2,0.1,3.3-0.2c1.1-0.3,2.2-0.9,3.2-1.8
	c1-0.9,1.7-1.9,2.2-3c0.5-1,0.6-2.2,0.6-3.3c0-2.2-0.7-4.5-1.5-6.7c-0.9-2.2-1.8-4.3-2.3-6.2c-0.3-1-0.4-1.9-0.3-2.8
	c0-0.9,0.3-1.8,0.7-2.7c0.5-0.9,1.1-1.6,1.8-2.1c0.8-0.5,1.6-1,2.5-1.3c1.9-0.7,4.1-1.1,6.4-1.6c2.2-0.6,4.6-1.2,6.4-2.5
	c1.8-1.3,3.2-3.1,3.6-5.9C310.8,176.6,310.8,176,310.8,175.4z"/>
<path id="hair-light" class="st5" d="M247.3,140.1c-0.5,0-1.6,0.1-2,0.1c-0.2,0-0.4,0-0.7,0c-0.4,0-0.8,0-1.2,0
	c-0.8,0-1.5-0.1-2.2-0.2c-0.7-0.3-1.3-0.7-1.9-1c-0.3-0.2-0.6-0.3-0.9-0.5l-0.2-0.1l-0.1-0.1l-0.2-0.2c-0.3-0.3-0.6-0.5-0.8-0.8
	c-0.5-0.5-1-1.1-1.4-1.7c-1.7-2.4-2.5-5.1-3.2-7.7c-0.3-1.4-0.6-2.7-1-4c-0.3-1.3-0.7-2.6-1.1-3.8c-0.9-2.4-2-4.5-4.2-6.6
	c-2.1-2.1-4.4-3.3-7-4.1c-2.6-0.8-5.4-1-8.2-1.1c-2.7-0.5-5.4-1.2-7.9-2.7c-1.1-0.7-2-1.4-2.4-1.8c-2.1-1.8-3.6-3.6-4.5-5
	c-0.9-1.6-2.6-5.4-2.4-10.5c0.2-5,2.2-8.5,3.1-10.1c2.1-2.8,2.3-6.5,0.5-9.1c-2.2-3.3-6.3-3.2-6.6-3.2c-2.2,0.3-5.1,1-6.5,3.2
	c-1.1,1.7-1.1,3.4-0.7,5.2c1.8,9.6-9,18.4-9,18.4c-3.9,3-8.4,1.2-12.8-0.7c-4.4-1.9-8.7-3.9-12.7-1.1c-7.8,5.4,1.4,19.2-6.8,24.6
	c-0.1,0.1-0.3,0.2-0.4,0.2c-0.2,0.1-0.3,0.2-0.4,0.3c-0.4,0.3-0.9,0.5-1.4,0.7c-0.2,0.1-0.5,0.2-0.6,0.2l-0.4,0.1
	c-0.3,0-0.5,0-0.8,0c-1.1,0-2.1-0.2-3.1-0.6c-2.1-0.7-4-2.1-6-3.5c-4-2.8-7.8-5.5-12.2-3.6c-4.4,1.9-4.9,6.7-5.6,11.4
	c-0.6,4.8-1.3,9.5-5.9,11.4c-4.6,1.8-8.4-1.2-12.1-4.2c-3.7-3-7.4-6.1-11.9-4.5c-4.5,1.6-5.4,6.3-6.4,11c-0.5,2.4-1,4.7-2,6.6
	c-1,1.9-2.4,3.5-5,4.2l0,0.1c0.8-19.8,5.9-61.3,34.6-83.8c5.5-4.5,11.8-8,18.5-10.5c0,0,0,0,0.1,0c10.1-3.6,21.6-4.8,37.7-5.8
	c11.9,0.2,23.8,1.9,35.3,5c7.6,2.3,14.8,6.1,20.9,11.3C237.2,79.9,242.4,97.8,247.3,140.1z"/>
<g id="glasses" class="st6">
	<path id="glasses1" class="st7" d="M74.8,142.4c2.8,2.7,3,10.5,3,10.5c2.8,22.3,13.3,27.7,30.4,27.7s20.8-3.8,25.7-7.6
		c4.9-3.9,8.6-17.6,10.2-22.4c1.6-4.9,8.9-5.3,8.9-5.3s7.4,0.5,8.9,5.3c1.6,4.9,5.3,18.6,10.2,22.4c4.9,3.9,8.6,7.6,25.7,7.6
		s27.5-5.4,30.4-27.7c0,0,0.3-7.8,3-10.5s4.1-2.7,4.1-4.9s4-5.7-7.2-6.5c-11.1-0.8-16.6-2-28.4-2c-11.9,0-30.7,0.1-33.9,3.3
		c-3.2,3.2-7,4.1-13.6,4.1c-6.6,0-9-1-12.1-4.1s-22-3.3-33.9-3.3s-17.3,1.2-28.4,2c-11.1,0.8-7.2,4.3-7.2,6.5S72,139.7,74.8,142.4z
		 M175,135.5c10.2-3.1,35.2-4.1,46.3-0.5c0,0,4.5,1.2,4.4,7.4c-0.1,6.3-2.6,19.9-4.4,23.8s-3.6,11.2-23.9,11.8
		c-20.3,0.6-27.2-10.2-29.4-20C165.7,148.4,164.8,138.6,175,135.5z M85.3,135.1c11-3.7,36.1-2.7,46.3,0.5s9.3,12.9,7.1,22.6
		c-2.2,9.8-9.1,20.5-29.4,20c-20.3-0.6-22.1-7.8-23.9-11.8c-1.8-4-4.3-17.6-4.4-23.8C80.8,136.2,85.3,135.1,85.3,135.1z"/>
	<path id="glasses2" class="st7" d="M235.4,142.1c-1.7-5.6-5.3-9.7-10.6-12.1c-5.4-2.4-12.2-3.6-20.4-3.6c-11.2,0-23.1,2.3-25.9,3.5
		c-0.1,0-0.2,0.1-0.4,0.1c-5.7,2.4-9.6,6.1-11.9,10.9c-11.4-4.5-22.8-1.5-27.2,0.1c-2.2-4.8-6.2-8.6-11.9-10.9
		c-0.1-0.1-0.3-0.1-0.4-0.2c-2.8-1.2-14.6-3.5-25.8-3.5c-8.2,0-15,1.2-20.4,3.6c-5.3,2.4-8.9,6.5-10.6,12.1c-2.5-0.1-7-0.2-7,1.2
		c0,1.3,3.7,2,6.3,2.3c0,0.1,0,0.1,0,0.2c-1,7.1,0.8,13.6,1.6,15.9l0,0.5l0.2,0.8C77.8,179.3,90,189,104.5,189h0.3
		c0.3,0,27-0.6,34.6-26.5c1.7-5.9,2.2-11.3,1.4-15.9c3.6-1.3,13.9-4.3,23.9-0.1c-0.8,4.6-0.3,10.2,1.4,16.1
		c7.6,25.9,34.3,26.4,34.6,26.4h0.3c14.5,0,26.7-9.7,33.4-26.1l0.2-0.6l0-0.6c0.8-2.3,2.7-8.8,1.6-15.9c0-0.1,0-0.2,0-0.3
		c2.5-0.4,5.6-1.1,5.6-2.2C241.8,142,238,141.9,235.4,142.1z M135.9,160.5c-6.3,21.2-27.4,22.6-31.1,22.6c-3.7,0-20.8,0.3-30.3-22.6
		c0,0-7.4-20.1,7.4-26.6c14.7-6.5,41-1.2,43.7,0C128.4,135.1,142.2,139.4,135.9,160.5z M231.1,160.5c-9.4,22.9-26.5,22.6-30.3,22.6
		s-24.8-1.4-31.1-22.6c-6.3-21.1,7.6-25.4,10.3-26.6c2.7-1.2,29-6.5,43.7,0C238.4,140.5,231.1,160.5,231.1,160.5z"/>
	<path id="glasses3" class="st7" d="M82.8,167.8c3.7,1.6,37.7,8.9,52.3,2.9c14.6-5.9,6.6-20.3,18.4-19.9c11.8-0.4,3.9,14,18.4,19.9
		c14.6,5.9,48.5-1.4,52.3-2.9c3.7-1.6,3.6-10,4.7-12.6s6.5-4.3,6.5-4.3v-13.6c-7.8-3.7-47-1.8-56.5,0s-24.9,5.3-24.9,5.3
		s-14.8-3.5-24.2-5.3s-49.8-3.7-55.3,0v13.6c0,0,3.8,1.8,5,4.3C80.8,157.8,79.1,166.2,82.8,167.8z M164.6,144.9
		c2.9-2.3,22.5-8.1,53.4-5.7c1.7,0.1,5.6,1.3,5.7,3.8s0.1,16-0.7,17.8s-1.3,6-18.6,8.4c-17.3,2.4-31.8,0.5-35.5-4.5
		C165.1,159.7,161.7,147.1,164.6,144.9z M83.4,143c0.1-2.5,4-3.7,5.7-3.8c31-2.4,50.5,3.4,53.5,5.7c2.9,2.3-0.6,14.9-4.3,19.9
		s-18.3,6.9-35.5,4.5c-17.3-2.4-17.8-6.5-18.6-8.4C83.2,158.9,83.2,145.5,83.4,143z"/>
</g>
<g id="facial-hair" class="st6">
	<path id="beard" class="st5 st7" d="M204.9,218.4c-11.8,8.4-31.8,8.5-37.3,0.4c-1.7-2.5-1.8-5.5-1.5-8c-1.8,0.2-6.8,0.3-11.8,0.3
		c-5,0-10.1-0.1-11.8-0.3c0.3,2.4,0.1,5.1-1.4,7.5c-5.5,8.4-27.9,9.5-38.4-0.7c-12.9-12.5-14.2-48.2-17.9-60.8
		c-0.1-0.2-0.2-0.7-0.3-0.7c-2.3-0.2-9.6,54.9,2.8,69.3c1.6,2.5,11.7,18.6,23.7,26.2c0.4-1.4-1-2.4-0.5-3.7
		c5.7,8.5,11.4,11.9,21.3,16.9c-1-2.3,0,0-0.7-2.3c4.7,7.9,22.5,12.5,23.3,12.4c0.8,0.1,18.6-4.5,23.3-12.4c-0.7,2.3,0.4,0-0.7,2.3
		c9.9-5,15.5-8.4,21.2-16.9c0.5,1.3-0.9,2.3-0.5,3.7c12-7.7,21.1-22.4,23.7-26.2c13.2-15.3,5.8-55.7,3.9-64.9c0-0.1-0.2-1-0.5-1.1
		C222.4,159.2,226.1,203.2,204.9,218.4z"/>
	<path id="mustache" class="st5 st7" d="M177.6,186.9c-6.5-1.1-17.4-2.6-23.5,1.2c-6.1-3.8-17.1-2.3-23.5-1.2c-8.1,1.2-13.9,7.6-20,13.4
		c-2.4,2.3-5,4.6-8.3,5.9c5.3,3.4,21.3-2.3,24.1-4c-0.3,0.9-0.2,2.4-0.5,3.2c4.1,1,10.4-2.6,13.4-6.1c-0.3,1.3-0.1,3.2-0.8,4.6
		c3.6,0.6,14.1-2.4,15.5-4.1c1.4,1.8,12,4.8,15.5,4.1c-0.6-1.3-0.5-3.2-0.8-4.6c3.1,3.4,9.3,7.1,13.4,6.1c-0.3-0.9-0.2-2.4-0.5-3.2
		c2.8,1.7,18.8,7.4,24.1,4c-3.2-1.3-5.9-3.6-8.3-5.9C191.5,194.5,185.7,188.1,177.6,186.9z"/>
	<g id="mustache-beard" class="st7">
		<path class="st5" d="M204.9,218.4c-11.8,8.4-31.8,8.5-37.3,0.4c-1.7-2.5-1.8-5.5-1.5-8c-1.8,0.2-6.8,0.3-11.8,0.3
			c-5,0-10.1-0.1-11.8-0.3c0.3,2.4,0.1,5.1-1.4,7.5c-5.5,8.4-27.9,9.5-38.4-0.7c-12.9-12.5-14.2-48.2-17.9-60.8
			c-0.1-0.2-0.2-0.7-0.3-0.7c-2.3-0.2-9.6,54.9,2.8,69.3c1.6,2.5,11.7,18.6,23.7,26.2c0.4-1.4-1-2.4-0.5-3.7
			c5.7,8.5,11.4,11.9,21.3,16.9c-1-2.3,0,0-0.7-2.3c4.7,7.9,22.5,12.5,23.3,12.4c0.8,0.1,18.6-4.5,23.3-12.4c-0.7,2.3,0.4,0-0.7,2.3
			c9.9-5,15.5-8.4,21.2-16.9c0.5,1.3-0.9,2.3-0.5,3.7c12-7.7,21.1-22.4,23.7-26.2c13.2-15.3,5.8-55.7,3.9-64.9c0-0.1-0.2-1-0.5-1.1
			C222.4,159.2,226.1,203.2,204.9,218.4z"/>
		<path class="st5" d="M177.6,186.9c-6.5-1.1-17.4-2.6-23.5,1.2c-6.1-3.8-17.1-2.3-23.5-1.2c-8.1,1.2-13.9,7.6-20,13.4
			c-2.4,2.3-5,4.6-8.3,5.9c5.3,3.4,21.3-2.3,24.1-4c-0.3,0.9-0.2,2.4-0.5,3.2c4.1,1,10.4-2.6,13.4-6.1c-0.3,1.3-0.1,3.2-0.8,4.6
			c3.6,0.6,14.1-2.4,15.5-4.1c1.4,1.8,12,4.8,15.5,4.1c-0.6-1.3-0.5-3.2-0.8-4.6c3.1,3.4,9.3,7.1,13.4,6.1c-0.3-0.9-0.2-2.4-0.5-3.2
			c2.8,1.7,18.8,7.4,24.1,4c-3.2-1.3-5.9-3.6-8.3-5.9C191.5,194.5,185.7,188.1,177.6,186.9z"/>
	</g>
</g>
</svg>
