<?xml version="1.0" encoding="utf-8"?>
<svg version="1.1" id="baby01" xmlns="http://www.w3.org/2000/svg" xmlns:xlink="http://www.w3.org/1999/xlink" x="0px" y="0px"
	 viewBox="0 0 315 350" style="enable-background:new 0 0 315 350;" xml:space="preserve">
	<style type="text/css">
		.st0{fill:#F0B98B;}
		.st1{fill:#DFAB80;}
		.st2{fill:#F0B98B;}
		.st3{fill:#DFAB80;}
		.st4{fill:#412308;}
		.st5{fill:#52341A;}
		.st6{display:none;}
		.st7{display:inline;}
	</style>
	<path id="face" class="st2" d="M249.7,193.8c1.9-5.9,3.1-12.1,3.4-18.4c0-0.7,0.1-1.5,0.1-2.2v0c0-0.3,0-0.6,0-0.9
		c0-44.9-43.7-81.4-97.7-81.4s-97.7,36.4-97.7,81.4c0,0.3,0,0.6,0,0.9v0c0,0.7,0,1.5,0.1,2.2c0.3,6.4,1.5,12.6,3.5,18.6
		c-11.5,1.6-20.2,8.8-20.2,17.3c0,9.4,10.3,17,23.4,17.7c0.3,1,0.6,2,0.9,3.1c0.2,0.6,0.4,1.2,0.7,1.8c0.3,0.9,0.7,1.7,1.1,2.6
		c0.2,0.5,0.4,1,0.6,1.5c0.5,1,0.9,2,1.5,3.1c0.7,1.3,1.4,2.6,2.2,3.9c0.6,1,1.2,1.9,1.9,2.9c0.6,0.9,1.3,1.9,2,2.8
		c0.7,0.9,1.4,1.8,2.1,2.7c2.4,3,5.1,5.8,7.9,8.3c1.4,1.3,2.8,2.5,4.3,3.6c0.7,0.6,1.5,1.2,2.2,1.7c10.6,7.7,22.5,13.4,35.2,16.6
		c0.2,0.2,0.4,0.4,0.6,0.6v4.3c-1.6,0.5-3.3,1-4.8,1.5c-29.6,10.7-52.9,35.2-56.8,55.3h164.3c0-15.9-14.5-36.2-35.8-50.1
		c0,0,0,0-0.1,0c-2.4-1.2-4.9-2.3-7.5-3.4v-8.3c0-0.3-0.1-0.6-0.1-0.8c11.4-3.3,22.2-8.6,31.8-15.6c0.7-0.5,1.5-1.1,2.2-1.7
		c1.5-1.2,2.9-2.4,4.3-3.6c2.9-2.6,5.5-5.3,7.9-8.3c0.7-0.9,1.5-1.8,2.1-2.7c0.7-0.9,1.3-1.9,2-2.8c0.7-1,1.3-1.9,1.9-2.9
		c0.8-1.3,1.5-2.6,2.2-3.9c0.6-1,1-2,1.5-3.1c0.3-0.5,0.5-1,0.6-1.5c0.4-0.8,0.8-1.7,1.1-2.6c0.3-0.6,0.5-1.2,0.7-1.8
		c0.3-1,0.7-2,0.9-3c0,0,0,0,0.1,0c0.7,0,1.5,0,2.2-0.1c0.7,0,1.5-0.1,2.1-0.2c11.9-1.4,21-8.7,21-17.5
		C271.7,202.4,262.1,194.9,249.7,193.8z"/>
<!-- <g id="face-shadow"> -->
	<path id="_x3C_Tracé_x3E_" class="st3" d="M240.3,351.2H65.6c0-1.9,0.2-3.8,0.6-5.7h164.3c0-15.9-14.5-36.2-35.8-50.1
		C221.3,308.9,240.3,332.9,240.3,351.2"/>
	<path id="_x3C_Tracé_x3E_" class="st3" d="M41.1,211.4c0,9.8,11.3,17.8,25.3,17.8c0.5,0,1,0,1.5,0c0-0.1-0.1-0.2-0.1-0.4
		c-11.4-1.7-20-8.8-20-17.3c0-1.9,0.4-3.7,1.2-5.4c2.7-5.2,7.5-9,13.1-10.6c0-0.5-0.1-1-0.1-1.5l0,0c-9.4,1.1-17,5.9-19.7,12.1
		C41.6,207.7,41.1,209.5,41.1,211.4"/>
	<path class="st3" d="M155.5,232.1c-0.2,0-0.3,0-0.5,0c-5.2-0.1-9.9-2.2-13.5-6l2.7-2.6c2.9,3,6.7,4.7,10.9,4.8
		c4.1,0.1,8.1-1.4,11.1-4.3c0.2-0.2,0.4-0.3,0.5-0.5l2.7,2.6c-0.2,0.2-0.4,0.5-0.7,0.7C165.2,230.3,160.5,232.1,155.5,232.1z"/>
	<path class="st3" d="M236,133.2c3.1,10.1,1.5,24.4,1.5,43.4c0,0.3,0,0.6,0,0.8v0c0,0.7,0,1.4-0.1,2.1c-0.3,7.9-2.1,15.7-5.2,23.1
		c0,0.1,0,0.1,0,0.2c0,0.1,0,0.2,0,0.3c0.4,1.6,0.6,3.3,0.8,5c0.2,1.3,0.2,2.6,0.3,4c0,0.8,0,1.7,0,2.6c0,0.9,0,1.7-0.1,2.6
		c0,0.6,0,1.3-0.1,1.9c-0.1,1.5-0.3,3-0.5,4.5c-0.1,0.6-0.2,1-0.3,1.6c-0.1,0.6-0.2,1.1-0.3,1.6c0,0.1-0.1,0.4-0.1,0.5
		c-0.2,1.1-0.5,2.2-0.8,3.2c-0.2,1-0.6,2-0.9,3c-0.2,0.6-0.4,1.2-0.6,1.7c-0.3,0.8-0.6,1.7-1,2.5c-0.2,0.5-0.4,1-0.6,1.4
		c-0.4,1-0.9,1.9-1.4,2.9c-0.6,1.3-1.3,2.5-2.1,3.7c-0.6,0.9-1.2,1.8-1.8,2.8c-0.6,0.9-1.2,1.8-1.9,2.7c-0.6,0.9-1.3,1.7-2,2.6
		c-2.3,2.8-4.7,5.5-7.4,7.9c-1.3,1.2-2.6,2.4-4,3.5c-0.7,0.6-1.4,1.1-2.1,1.7c-5.7,4.2-11.8,7.8-18.3,10.7v5
		c11.7-3.1,22.8-8.4,32.5-15.6c0.7-0.5,1.4-1.1,2.1-1.7c1.4-1.1,2.7-2.3,4-3.5c2.7-2.4,5.2-5.1,7.4-7.9c0.7-0.9,1.4-1.7,2-2.6
		c0.6-0.9,1.2-1.8,1.9-2.7c0.6-0.9,1.2-1.8,1.8-2.8c0.8-1.2,1.4-2.5,2.1-3.7c0.5-1,1-1.9,1.4-2.9c0.2-0.5,0.4-0.9,0.6-1.4
		c0.4-0.8,0.7-1.6,1-2.5c0.2-0.6,0.4-1.2,0.6-1.7c0.3-1,0.6-1.9,0.9-3c0.3-1.1,0.6-2.1,0.8-3.2c0-0.2,0.1-0.4,0.1-0.5
		c0.1-0.6,0.2-1.1,0.3-1.6c0.1-0.5,0.2-1,0.3-1.6c0.3-1.5,0.4-3,0.5-4.5c0.1-0.6,0.1-1.3,0.1-1.9c0.1-0.9,0.1-1.8,0.1-2.6
		c0-0.9,0-1.7,0-2.6c-0.1-1.3-0.2-2.7-0.3-4c-0.2-1.7-0.4-3.3-0.8-5c0-0.1,0-0.2,0-0.3c0-0.1,0-0.1,0-0.2c3.1-7.3,4.8-15.1,5.2-23
		c0-0.7,0.1-1.4,0.1-2.1v0c0-0.3,0-0.6,0-0.8C251.6,160.7,246,145.4,236,133.2z"/>
	<g id="glasses" class="st6">
		<path id="glasses5" class="st7" d="M245.7,186.4c-1.8-6.1-5.7-10.5-11.5-13.1c-5.9-2.6-13.2-3.9-22.1-3.9c-12.1,0-25,2.5-28.1,3.8
			c-0.1,0-0.2,0.1-0.4,0.1c-6.2,2.6-10.4,6.6-12.9,11.8c-12.4-4.9-24.7-1.6-29.5,0.1c-2.4-5.2-6.7-9.3-12.9-11.8
			c-0.1-0.1-0.3-0.1-0.4-0.2c-3-1.3-15.8-3.8-28-3.8c-8.9,0-16.3,1.3-22.1,3.9c-5.7,2.6-9.7,7-11.5,13.1c-2.7-0.1-7.6-0.2-7.6,1.3
			c0,1.4,4,2.2,6.8,2.5c0,0.1,0,0.1,0,0.2c-1.1,7.7,0.9,14.7,1.7,17.2v0.5l0.2,0.9c7.4,17.7,20.6,28.2,36.3,28.2h0.3
			c0.3,0,29.3-0.7,37.5-28.7c1.8-6.4,2.4-12.3,1.5-17.2c3.9-1.4,15.1-4.7,25.9-0.1c-0.9,5-0.3,11.1,1.5,17.5
			c8.2,28.1,37.2,28.6,37.5,28.6h0.3c15.7,0,29-10.5,36.2-28.3l0.2-0.7v-0.7c0.9-2.5,2.9-9.5,1.7-17.2c0-0.1,0-0.2,0-0.3
			c2.7-0.4,6.1-1.2,6.1-2.4C252.7,186.3,248.5,186.2,245.7,186.4z M137.8,206.4c-6.8,23-29.7,24.5-33.7,24.5s-22.6,0.3-32.9-24.5
			c0,0-8-21.8,8-28.8c15.9-7,44.5-1.3,47.4,0C129.6,178.8,144.6,183.5,137.8,206.4z M241.1,206.4c-10.2,24.8-28.7,24.5-32.9,24.5
			c-4.1,0-26.9-1.5-33.7-24.5c-6.8-22.9,8.2-27.5,11.2-28.8c2.9-1.3,31.4-7,47.4,0C248.9,184.7,241.1,206.4,241.1,206.4z"/>
	</g>
<!-- </g> -->
</svg>
