<?xml version="1.0" encoding="utf-8"?>
<svg version="1.1" id="child05" xmlns="http://www.w3.org/2000/svg" xmlns:xlink="http://www.w3.org/1999/xlink" x="0px" y="0px"
	 viewBox="0 0 315 350" style="enable-background:new 0 0 315 350;" xml:space="preserve">
<style type="text/css">
	.st0{fill:#BFBABE;}
	.st1{fill:#9D9C9D;}
	.st2{fill:#BA8B6A;}
	.st3{fill:#A57D62;}
	.st4{fill:#412308;}
	.st5{fill:#52341A;}
	.st6{display:none;}
	.st7{display:inline;}
</style>
<path id="shirt" class="st0" d="M243.4,343.1H52.1c4.6-23.3,31.7-51.8,66.2-64.2c11.3-4.1,23-6.2,34.9-6.3
	c11.8,0.1,23.5,2.2,34.7,6.3c4.7,1.7,9.3,3.7,13.8,6c0,0,0,0,0.1,0C226.6,301.1,243.4,324.7,243.4,343.1"/>
<!-- <g id="shirt-shadow"> -->
	<path id="_x3C_Tracé_x3E__5_" class="st1" d="M254.9,349.8H51.4c0-2.2,0.2-4.5,0.7-6.7h191.3c0-18.5-16.9-42.1-41.7-58.3
		C232.7,300.6,254.9,328.6,254.9,349.8"/>
	<path id="_x3C_Tracé_x3E__4_" class="st1" d="M187.8,278.9c-3,5.8-16.4,22.8-35.7,22.8s-31.1-17-33.9-22.8
		c11.3-4.1,23-6.2,34.8-6.3C164.9,272.7,176.6,274.8,187.8,278.9"/>
<!-- </g> -->
<path id="face" class="st2" d="M242,149.8C242,149.8,242,149.8,242,149.8C242,149.8,242,149.8,242,149.8L242,149.8
	c0-0.3,0-0.6,0-0.9c0-45.3-38.6-82.1-86.2-82.1s-86.2,36.8-86.2,82.1c0,0.3,0,0.6,0,0.9v0c0,0,0,0,0,0
	c-10.5,2.1-18.5,13.1-18.5,26.3c0,14.7,10,26.7,22.3,26.7c0.4,0,0.9,0,1.3-0.1c0.2,1.2,0.5,2.3,0.8,3.4c0.2,1.1,0.5,2.1,0.8,3.1
	c0.2,0.6,0.4,1.2,0.6,1.9c0.3,0.9,0.6,1.8,0.9,2.6c0.1,0.5,0.3,1,0.6,1.5c0.4,1,0.8,2.1,1.3,3.1c0.6,1.3,1.3,2.6,2,3.9
	c0.5,1,1.1,2,1.7,2.9c0.6,1,1.2,1.9,1.8,2.9c0.6,0.9,1.2,1.8,1.9,2.7c2.1,3,4.4,5.8,7,8.4c1.2,1.3,2.5,2.5,3.8,3.7
	c0.7,0.6,1.3,1.2,2,1.8c8,6.9,17.5,12.2,27.8,15.6v12.7c0,12.9,10.3,19.3,24.4,20c14.1-0.7,25.9-7.2,25.9-20c0,0-0.4-10.6,0.1-11.1
	l0.3-0.1c0.1,0,2.2-0.5,2.2-0.5c11.6-3.4,22.2-9.1,31.1-16.7c0.7-0.5,1.3-1.1,2-1.8c1.3-1.2,2.6-2.4,3.8-3.7c2.6-2.6,4.9-5.4,7-8.4
	c0.6-0.9,1.3-1.8,1.9-2.7c0.6-1,1.2-1.9,1.8-2.9c0.6-1,1.1-1.9,1.7-2.9c0.7-1.3,1.4-2.6,2-3.9c0.5-1,0.9-2.1,1.3-3.1
	c0.2-0.5,0.4-1,0.6-1.5c0.4-0.9,0.7-1.7,0.9-2.6c0.2-0.6,0.4-1.2,0.6-1.9c0.3-1,0.6-2,0.8-3.1c0.3-1.1,0.6-2.3,0.8-3.4c0,0,0,0,0,0
	c0.4,0.1,0.9,0.1,1.4,0.1c12.3,0,22.3-12,22.3-26.7C260.5,162.8,252.5,151.9,242,149.8z"/>
<!-- <g id="face-shadow"> -->
	<path id="_x3C_Tracé_x3E__3_" class="st3" d="M51.7,177.6c0.3,11.1,8,23.8,22.2,25.7c0.5,0,0.9,0,1.4-0.1c0-0.2-0.1-0.4-0.1-0.6
		c-10.4-3.2-17.4-11-17.4-25.1c0-3,0.4-6,1.1-8.9c1.5-7.1,5.6-13.3,11.5-17.4c0-0.8-0.1-1.6-0.1-2.4v0c-8.3,1.9-15,9.7-17.4,19.9
		C52.1,171.6,51.7,174.6,51.7,177.6"/>
	<path id="_x3C_Tracé_x3E__2_" class="st3" d="M145.1,204.1c5.8,6.1,15.6,6.4,21.7,0.5c0.2-0.2,0.4-0.4,0.5-0.5"/>
	<path class="st3" d="M227.5,103.8c2.8,10.7,1.3,25.7,1.3,45.5c0,0.3,0,0.6,0,0.9v0c0,0.8,0,1.5-0.1,2.2c-0.3,8.3-1.9,16.5-4.7,24.2
		c0,0.1,0,0.1,0,0.2c0,0.1,0,0.2,0,0.3c0.3,1.7,0.5,3.5,0.7,5.2c0.1,1.4,0.2,2.8,0.3,4.1c0,0.9,0,1.8,0,2.7c0,0.9,0,1.8-0.1,2.8
		c0,0.7,0,1.4-0.1,2c-0.1,1.6-0.2,3.1-0.5,4.7c-0.1,0.6-0.2,1.1-0.3,1.7c-0.1,0.6-0.2,1.1-0.3,1.7c0,0.1-0.1,0.4-0.1,0.5
		c-0.2,1.2-0.5,2.3-0.8,3.4c-0.2,1.1-0.5,2.1-0.8,3.1c-0.2,0.6-0.4,1.2-0.6,1.8c-0.3,0.9-0.6,1.7-0.9,2.6c-0.1,0.5-0.3,1-0.5,1.5
		c-0.4,1-0.8,2-1.3,3.1c-0.6,1.3-1.2,2.6-1.9,3.9c-0.5,1-1,1.9-1.6,2.9c-0.5,1-1.1,1.9-1.7,2.8c-0.6,0.9-1.2,1.8-1.8,2.7
		c-2,3-4.3,5.7-6.7,8.3c-1.1,1.3-2.4,2.5-3.6,3.6c-0.6,0.6-1.3,1.2-1.9,1.7c-5.1,4.5-16,9.6-21.9,12.6v5.2
		c10.6-3.2,21.6-7.1,34.7-17.8c0.7-0.5,1.3-1.1,1.9-1.7c1.2-1.2,2.4-2.4,3.6-3.6c2.4-2.6,4.7-5.3,6.7-8.3c0.6-0.9,1.2-1.8,1.8-2.7
		c0.6-1,1.1-1.9,1.7-2.8c0.6-1,1.1-1.9,1.6-2.9c0.7-1.3,1.3-2.6,1.9-3.9c0.5-1,0.9-2,1.3-3.1c0.2-0.5,0.4-1,0.5-1.5
		c0.3-0.8,0.6-1.7,0.9-2.6c0.2-0.6,0.4-1.2,0.6-1.8c0.3-1,0.6-2,0.8-3.1c0.3-1.1,0.5-2.2,0.8-3.4c0-0.2,0.1-0.4,0.1-0.5
		c0.1-0.6,0.2-1.2,0.3-1.7c0.1-0.5,0.2-1.1,0.3-1.7c0.2-1.6,0.4-3.1,0.5-4.7c0.1-0.7,0.1-1.4,0.1-2c0.1-0.9,0.1-1.8,0.1-2.8
		c0-0.9,0-1.8,0-2.7c-0.1-1.4-0.1-2.8-0.3-4.2c-0.2-1.8-0.4-3.5-0.7-5.2c0-0.1,0-0.2,0-0.3c0-0.1,0-0.1,0-0.2
		c2.8-7.7,4.4-15.9,4.7-24.2c0-0.7,0.1-1.5,0.1-2.2v0c0-0.3,0-0.6,0-0.9C241.6,132.8,236.6,116.7,227.5,103.8z"/>
<!-- </g> -->
<path id="hair-dark" class="st4" d="M305.5,198.9c-0.1-0.6-0.2-1.2-0.4-1.7c-0.4-1-0.9-2-1.7-2.8c-0.7-0.8-1.6-1.5-2.5-2.1
	c-0.9-0.6-1.9-1.2-2.9-1.7c-2-1-4.1-1.9-5.6-3c-1.6-1.2-2.8-2.8-3.1-5.1c-1.3-9.1,14-11.2,12.8-20.4c-0.6-4.6-4.8-6.3-8.9-8.1
	c-2.1-0.9-4.1-1.7-5.8-2.7c-1.7-1-2.9-2.2-3.5-4c-0.6-1.9-0.2-3.5,0.6-5.3c0.8-1.8,2.1-3.6,3.3-5.5c1.2-1.9,2.3-3.9,2.7-6
	c0.3-2.2,0.2-4.1-1-6c-5.1-7.7-17.9,0.8-23-7c-5.1-7.7,7.8-16.2,2.8-23.9c-5.1-7.7-17.9,0.8-23-7c-5.1-7.7,7.8-16.2,2.8-23.9
	c-1.3-1.9-3-2.8-5-3.3c-2.1-0.5-4.3-0.4-6.6-0.1c-2.2,0.3-4.4,0.6-6.3,0.7c-1.9,0-3.6-0.3-5.1-1.7c-0.8-0.6-1.2-1.4-1.6-2.2
	c-0.4-0.8-0.5-1.7-0.6-2.7c-0.2-1.9-0.1-4.1,0-6.4c0-2.2-0.1-4.6-0.9-6.5c-0.7-2-2.2-3.7-4.7-4.7c-1.3-0.4-2.4-0.6-3.5-0.5
	c-1.1,0.1-2.1,0.4-3.1,0.9c-1.9,1-3.5,2.6-5,4.3c-1.5,1.7-2.8,3.4-4.3,4.7c-0.7,0.7-1.5,1.2-2.3,1.5c-0.8,0.4-1.7,0.6-2.6,0.6
	c-9.2,0-9.2-15.4-18.4-15.4c-9.2,0-9.2,15.4-18.4,15.4c-9.2,0-9.2-15.4-18.4-15.4c-9.2,0-9.2,15.4-18.4,15.4c-2.3,0-4.1-1-5.4-2.4
	c-1.3-1.4-2.5-3.4-3.8-5.1c-1.3-1.8-2.7-3.7-4.5-4.8c-1.8-1.2-4-1.8-6.5-1.1c-1.3,0.4-2.3,0.9-3.2,1.6c-0.8,0.7-1.5,1.6-2,2.6
	c-0.9,2-1.3,4.2-1.5,6.4c-0.2,2.3-0.3,4.4-0.7,6.3c-0.4,1.9-1.1,3.5-2.7,4.6c-0.8,0.6-1.6,0.9-2.5,1.1c-0.9,0.2-1.8,0.2-2.7,0.1
	c-1.9-0.2-4-0.8-6.2-1.3c-2.1-0.5-4.5-0.9-6.6-0.6c-1.1,0.2-2.1,0.5-3.1,1c-0.9,0.6-1.8,1.4-2.6,2.5c-5.1,7.7,7.8,16.2,2.8,23.9
	c-5.1,7.7-17.9-0.8-23,7c-5.1,7.7,7.8,16.2,2.8,23.9c-5.1,7.7-17.9-0.8-23,7c-2.5,3.9-0.6,7.9,1.4,11.9c1,2,2,4,2.7,5.8
	c0.6,1.8,0.8,3.5,0.1,5.3c-0.8,1.8-2.1,2.8-3.9,3.7c-1.8,0.8-3.9,1.4-6,2.1c-2.1,0.7-4.3,1.5-5.9,2.9c-1.6,1.3-2.8,2.8-3.2,5.1
	c-1.3,9.1,14,11.3,12.7,20.4c-0.7,4.6-4.8,6.3-8.9,8c-2.1,0.8-4.1,1.8-5.7,3.2c-1.6,1.4-2.7,3.4-2.7,6.1c0,1.3,0.3,2.5,0.8,3.5
	c0.5,1,1.2,1.8,2,2.5c1.6,1.4,3.7,2.3,5.9,3.1c2.1,0.7,4.2,1.4,6,2.2c0.9,0.4,1.6,0.9,2.3,1.5c0.3,0.3,0.6,0.6,0.8,1
	c0.3,0.4,0.5,0.8,0.7,1.2c0.7,1.8,0.5,3.5-0.2,5.3c-0.7,1.8-1.8,3.7-2.8,5.7c-1,2-1.9,4.1-2.1,6.2c-0.1,1.1-0.1,2.2,0.3,3.2
	c0.3,1.1,0.9,2.1,1.8,3.1c1.8,2,3.9,2.6,6.1,2.6c2.1,0,4.3-0.8,6.4-1.6c2.1-0.9,4.1-1.8,5.9-2.3c0.9-0.3,1.8-0.4,2.7-0.4
	c0.9,0,1.7,0.2,2.6,0.7c0.9,0.5,1.5,1,2.1,1.7c0.5,0.7,1,1.5,1.3,2.4c0.7,1.8,1.1,3.9,1.7,6.2c0.6,2.1,1.3,4.4,2.6,6.1
	c1.3,1.7,3.1,3,5.7,3.3c2.6,0.3,4.7-0.7,6.2-2.1c1.4-1.4,2.6-3.4,3.7-5.3c2.3-3.9,4.6-7.7,9.2-7.7c9.2,0,9.2,15.4,18.4,15.4
	c2.6,0,4.5-1.2,6-3c-2.1-1.5-4.1-3-6-4.6c-0.7-0.5-1.3-1.1-2-1.8c-1.3-1.2-2.6-2.4-3.8-3.7c-2.6-2.6-4.9-5.4-7-8.4
	c-0.6-0.9-1.3-1.8-1.9-2.7c-0.6-0.9-1.2-1.9-1.8-2.9c-0.6-1-1.1-1.9-1.7-2.9c-0.7-1.3-1.4-2.6-2-3.9c-0.5-1-0.9-2.1-1.3-3.1
	c-0.2-0.5-0.4-1-0.6-1.5c-0.4-0.9-0.7-1.7-0.9-2.6c-0.2-0.6-0.4-1.2-0.6-1.9c-0.3-1-0.6-2.1-0.8-3.1c-0.2-0.9-0.5-1.9-0.7-2.8
	c-0.4,0-0.7,0.1-1.1,0.1c-1.7-0.2-3.3-0.6-4.9-1.2c-10.2-2.5-17.8-13.3-17.8-26.1c0-8.6,3.4-16.2,8.7-21.1c2.8-3,6.1-5.1,9.8-6.1
	c0,0,0,0,0,0c0-45.3,38.6-82.1,86.2-82.1c47.6,0,86.2,36.8,86.2,82.1c0,0.3,0,0.6,0,0.9v0c0,0,0,0,0,0c0,0,0,0,0,0
	c10.5,2.1,18.5,13.1,18.5,26.3c0,14.7-10,26.7-22.3,26.7c-0.5,0-0.9,0-1.4-0.1c0,0,0,0,0,0c-0.2,1.2-0.5,2.3-0.8,3.4
	c-0.2,1.1-0.5,2.1-0.8,3.1c-0.2,0.6-0.4,1.2-0.6,1.9c-0.3,0.9-0.6,1.8-0.9,2.6c-0.1,0.5-0.3,1-0.6,1.5c-0.2,0.4-0.3,0.8-0.5,1.2
	c-0.2,0.6-0.5,1.2-0.7,1.8c-0.6,1.3-1.2,2.6-1.9,3.9c-0.5,1-1,1.9-1.6,2.9c-0.6,1-1.1,1.9-1.7,2.8c-0.6,1-1.2,1.8-1.8,2.7
	c-2,3-4.3,5.7-6.7,8.3c-1.2,1.3-2.4,2.5-3.6,3.6c-0.7,0.6-1.3,1.2-1.9,1.7c-2.6,2.1-5.1,4-7.6,5.7c1.4,1.4,3.1,2.3,5.4,2.3
	c9.2,0,9.2-15.4,18.4-15.4c9.2,0,9.2,15.4,18.4,15.4c1.3,0,2.5-0.3,3.4-0.8c1-0.5,1.8-1.2,2.6-2c1.4-1.6,2.4-3.7,3.2-5.8
	c0.8-2.1,1.5-4.2,2.3-5.9c0.4-0.8,1-1.6,1.6-2.3c0.3-0.3,0.6-0.6,1-0.8c0.4-0.2,0.8-0.5,1.2-0.6c1.8-0.7,3.5-0.4,5.3,0.3
	c1.8,0.7,3.7,1.8,5.7,2.9c2,1,4.1,2,6.2,2.3c1.1,0.1,2.2,0.1,3.2-0.2c1.1-0.3,2.1-0.8,3.1-1.7c1-0.9,1.7-1.9,2.1-2.9
	c0.4-1,0.6-2.1,0.6-3.2c0-2.1-0.7-4.4-1.5-6.4c-0.8-2.1-1.7-4.1-2.2-6c-0.2-0.9-0.4-1.8-0.3-2.7c0-0.9,0.3-1.7,0.7-2.6
	c0.5-0.9,1-1.5,1.7-2.1c0.7-0.5,1.5-0.9,2.4-1.3c1.9-0.7,4-1.1,6.2-1.6c2.1-0.5,4.4-1.2,6.1-2.4c1.8-1.2,3.1-3,3.4-5.7
	C305.6,200.1,305.6,199.5,305.5,198.9z"/>
<path id="hair-light" class="st5" d="M248.6,154.9c-0.5,0-1.7,0.1-2.1,0.1c-0.2,0-0.5,0-0.7,0c-0.4,0-0.8,0-1.2,0
	c-0.8,0-1.6-0.1-2.3-0.2c-0.7-0.3-1.3-0.7-1.9-1c-0.3-0.2-0.6-0.3-0.9-0.5l-0.2-0.1l-0.1-0.1l-0.2-0.2c-0.3-0.2-0.6-0.5-0.8-0.8
	c-0.5-0.5-1-1.1-1.4-1.6c-1.7-2.3-2.6-4.9-3.3-7.5c-0.3-1.3-0.6-2.6-1-3.8c-0.3-1.3-0.7-2.5-1.1-3.6c-0.9-2.4-2.1-4.4-4.3-6.4
	c-2.2-2-4.5-3.2-7.2-3.9c-2.7-0.8-5.6-1-8.4-1.1c-2.8-0.5-5.6-1.2-8.1-2.6c-1.2-0.6-2-1.4-2.5-1.8c-2.2-1.7-3.7-3.5-4.6-4.8
	c-0.9-1.6-2.6-5.2-2.4-10.1c0.2-4.8,2.2-8.2,3.2-9.7c2.2-2.7,2.3-6.2,0.5-8.8c-2.3-3.2-6.5-3.1-6.8-3.1c-2.3,0.3-5.2,0.9-6.7,3.1
	c-1.1,1.6-1.1,3.3-0.7,5c1.9,9.2-9.3,17.7-9.3,17.7c-4.1,2.9-8.6,1.1-13.2-0.7c-4.5-1.8-9-3.7-13-1.1c-8,5.2,1.5,18.5-7,23.7
	c-0.1,0.1-0.3,0.2-0.4,0.2c-0.2,0.1-0.3,0.2-0.5,0.2c-0.5,0.2-1,0.5-1.5,0.7c-0.2,0.1-0.5,0.2-0.6,0.2l-0.4,0.1c-0.3,0-0.6,0-0.8,0
	c-1.1,0-2.2-0.2-3.2-0.6c-2.1-0.7-4.1-2-6.2-3.3c-4.1-2.7-8-5.3-12.5-3.5c-4.5,1.9-5.1,6.4-5.7,11c-0.6,4.6-1.4,9.2-6.1,11
	c-4.7,1.7-8.6-1.1-12.4-4c-3.8-2.9-7.6-5.8-12.2-4.3c-4.6,1.5-5.6,6-6.6,10.6c-0.5,2.3-1.1,4.5-2.1,6.4c-1.1,1.9-2.5,3.4-5.1,4.1
	l0,0.1c0.8-19.1,6.1-59.1,35.5-80.7c5.7-4.3,12.1-7.7,18.9-10.1c0,0,0,0,0.1,0c10.3-3.5,22.1-4.6,38.7-5.5
	c12.2,0.2,24.4,1.8,36.3,4.8c7.9,2.2,15.1,5.9,21.4,10.8C238.3,96.9,243.6,114.2,248.6,154.9z"/>
	<g id="glasses" class="st6">
		<path class="st7" d="M74.8,142.4c2.8,2.7,3,10.5,3,10.5c2.8,22.3,13.3,27.7,30.4,27.7s20.8-3.8,25.7-7.6
			c4.9-3.9,8.6-17.6,10.2-22.4c1.6-4.9,8.9-5.3,8.9-5.3s7.4,0.5,8.9,5.3c1.6,4.9,5.3,18.6,10.2,22.4c4.9,3.9,8.6,7.6,25.7,7.6
			s27.5-5.4,30.4-27.7c0,0,0.3-7.8,3-10.5s4.1-2.7,4.1-4.9s4-5.7-7.2-6.5c-11.1-0.8-16.6-2-28.4-2c-11.9,0-30.7,0.1-33.9,3.3
			c-3.2,3.2-7,4.1-13.6,4.1s-9-1-12.1-4.1s-22-3.3-33.9-3.3s-17.3,1.2-28.4,2s-7.2,4.3-7.2,6.5S72,139.7,74.8,142.4z M175,135.5
			c10.2-3.1,35.2-4.1,46.3-0.5c0,0,4.5,1.2,4.4,7.4c-0.1,6.3-2.6,19.9-4.4,23.8s-3.6,11.2-23.9,11.8s-27.2-10.2-29.4-20
			C165.7,148.4,164.8,138.6,175,135.5z M85.3,135.1c11-3.7,36.1-2.7,46.3,0.5s9.3,12.9,7.1,22.6c-2.2,9.8-9.1,20.5-29.4,20
			c-20.3-0.6-22.1-7.8-23.9-11.8s-4.3-17.6-4.4-23.8C80.8,136.2,85.3,135.1,85.3,135.1z"/>
		<path class="st7" d="M235.4,142.1c-1.7-5.6-5.3-9.7-10.6-12.1c-5.4-2.4-12.2-3.6-20.4-3.6c-11.2,0-23.1,2.3-25.9,3.5
			c-0.1,0-0.2,0.1-0.4,0.1c-5.7,2.4-9.6,6.1-11.9,10.9c-11.4-4.5-22.8-1.5-27.2,0.1c-2.2-4.8-6.2-8.6-11.9-10.9
			c-0.1-0.1-0.3-0.1-0.4-0.2c-2.8-1.2-14.6-3.5-25.8-3.5c-8.2,0-15,1.2-20.4,3.6c-5.3,2.4-8.9,6.5-10.6,12.1c-2.5-0.1-7-0.2-7,1.2
			c0,1.3,3.7,2,6.3,2.3c0,0.1,0,0.1,0,0.2c-1,7.1,0.8,13.6,1.6,15.9v0.5L71,163c6.8,16.3,19,26,33.5,26h0.3c0.3,0,27-0.6,34.6-26.5
			c1.7-5.9,2.2-11.3,1.4-15.9c3.6-1.3,13.9-4.3,23.9-0.1c-0.8,4.6-0.3,10.2,1.4,16.1c7.6,25.9,34.3,26.4,34.6,26.4h0.3
			c14.5,0,26.7-9.7,33.4-26.1l0.2-0.6v-0.6c0.8-2.3,2.7-8.8,1.6-15.9c0-0.1,0-0.2,0-0.3c2.5-0.4,5.6-1.1,5.6-2.2
			C241.8,142,238,141.9,235.4,142.1z M135.9,160.5c-6.3,21.2-27.4,22.6-31.1,22.6s-20.8,0.3-30.3-22.6c0,0-7.4-20.1,7.4-26.6
			c14.7-6.5,41-1.2,43.7,0C128.4,135.1,142.2,139.4,135.9,160.5z M231.1,160.5c-9.4,22.9-26.5,22.6-30.3,22.6s-24.8-1.4-31.1-22.6
			c-6.3-21.1,7.6-25.4,10.3-26.6c2.7-1.2,29-6.5,43.7,0C238.4,140.5,231.1,160.5,231.1,160.5z"/>
		<path class="st7" d="M82.8,167.8c3.7,1.6,37.7,8.9,52.3,2.9c14.6-5.9,6.6-20.3,18.4-19.9c11.8-0.4,3.9,14,18.4,19.9
			c14.6,5.9,48.5-1.4,52.3-2.9c3.7-1.6,3.6-10,4.7-12.6s6.5-4.3,6.5-4.3v-13.6c-7.8-3.7-47-1.8-56.5,0s-24.9,5.3-24.9,5.3
			s-14.8-3.5-24.2-5.3s-49.8-3.7-55.3,0v13.6c0,0,3.8,1.8,5,4.3C80.8,157.8,79.1,166.2,82.8,167.8z M164.6,144.9
			c2.9-2.3,22.5-8.1,53.4-5.7c1.7,0.1,5.6,1.3,5.7,3.8s0.1,16-0.7,17.8s-1.3,6-18.6,8.4s-31.8,0.5-35.5-4.5
			C165.1,159.7,161.7,147.1,164.6,144.9z M83.4,143c0.1-2.5,4-3.7,5.7-3.8c31-2.4,50.5,3.4,53.5,5.7c2.9,2.3-0.6,14.9-4.3,19.9
			s-18.3,6.9-35.5,4.5c-17.3-2.4-17.8-6.5-18.6-8.4C83.2,158.9,83.2,145.5,83.4,143z"/>
	</g>
</svg>
