<?xml version="1.0" encoding="utf-8"?>
<svg version="1.1" id="child02" xmlns="http://www.w3.org/2000/svg" xmlns:xlink="http://www.w3.org/1999/xlink" x="0px" y="0px"
	 viewBox="0 0 315 350" style="enable-background:new 0 0 315 350;" xml:space="preserve">
	<style type="text/css">
		.st0{fill:#BFBABE;}
		.st1{fill:#9D9C9D;}
		.st2{fill:#BA8B6A;}
		.st3{fill:#A57D62;}
		.st4{fill:#412308;}
		.st5{fill:#52341A;}
		.st6{display:none;}
		.st7{display:inline;}
	</style>
	<path id="shirt" class="st0" d="M243.4,343.1H52.1c4.6-23.3,31.7-51.8,66.2-64.2c11.3-4.1,23-6.2,34.9-6.3
	c11.8,0.1,23.5,2.2,34.7,6.3c4.7,1.7,9.3,3.7,13.8,6c0,0,0,0,0.1,0C226.6,301.1,243.4,324.7,243.4,343.1"/>
<!-- <g id="shirt-shadow"> -->
	<path id="_x3C_Tracé_x3E__5_" class="st1" d="M254.9,349.8H51.4c0-2.2,0.2-4.5,0.7-6.7h191.3c0-18.5-16.9-42.1-41.7-58.3
		C232.7,300.6,254.9,328.6,254.9,349.8"/>
	<path id="_x3C_Tracé_x3E__4_" class="st1" d="M187.8,278.9c-3,5.8-16.4,22.8-35.7,22.8s-31.1-17-33.9-22.8
		c11.3-4.1,23-6.2,34.8-6.3C164.9,272.7,176.6,274.8,187.8,278.9"/>
<!-- </g> -->
	<path id="face" class="st2" d="M242,149.8C242,149.8,242,149.8,242,149.8C242,149.8,242,149.8,242,149.8L242,149.8
	c0-0.3,0-0.6,0-0.9c0-45.3-38.6-82.1-86.2-82.1s-86.2,36.8-86.2,82.1c0,0.3,0,0.6,0,0.9v0c0,0,0,0,0,0
	c-10.5,2.1-18.5,13.1-18.5,26.3c0,14.7,10,26.7,22.3,26.7c0.4,0,0.9,0,1.3-0.1c0.2,1.2,0.5,2.3,0.8,3.4c0.2,1.1,0.5,2.1,0.8,3.1
	c0.2,0.6,0.4,1.2,0.6,1.9c0.3,0.9,0.6,1.8,0.9,2.6c0.1,0.5,0.3,1,0.6,1.5c0.4,1,0.8,2.1,1.3,3.1c0.6,1.3,1.3,2.6,2,3.9
	c0.5,1,1.1,2,1.7,2.9c0.6,1,1.2,1.9,1.8,2.9c0.6,0.9,1.2,1.8,1.9,2.7c2.1,3,4.4,5.8,7,8.4c1.2,1.3,2.5,2.5,3.8,3.7
	c0.7,0.6,1.3,1.2,2,1.8c8,6.9,17.5,12.2,27.8,15.6v12.7c0,12.9,10.3,19.3,24.4,20c14.1-0.7,25.9-7.2,25.9-20c0,0-0.4-10.6,0.1-11.1
	l0.3-0.1c0.1,0,2.2-0.5,2.2-0.5c11.6-3.4,22.2-9.1,31.1-16.7c0.7-0.5,1.3-1.1,2-1.8c1.3-1.2,2.6-2.4,3.8-3.7c2.6-2.6,4.9-5.4,7-8.4
	c0.6-0.9,1.3-1.8,1.9-2.7c0.6-1,1.2-1.9,1.8-2.9c0.6-1,1.1-1.9,1.7-2.9c0.7-1.3,1.4-2.6,2-3.9c0.5-1,0.9-2.1,1.3-3.1
	c0.2-0.5,0.4-1,0.6-1.5c0.4-0.9,0.7-1.7,0.9-2.6c0.2-0.6,0.4-1.2,0.6-1.9c0.3-1,0.6-2,0.8-3.1c0.3-1.1,0.6-2.3,0.8-3.4c0,0,0,0,0,0
	c0.4,0.1,0.9,0.1,1.4,0.1c12.3,0,22.3-12,22.3-26.7C260.5,162.8,252.5,151.9,242,149.8z"/>
<!-- <g id="face-shadow"> -->
	<path id="_x3C_Tracé_x3E__3_" class="st3" d="M51.7,177.6c0.3,11.1,8,23.8,22.2,25.7c0.5,0,0.9,0,1.4-0.1c0-0.2-0.1-0.4-0.1-0.6
		c-10.4-3.2-17.4-11-17.4-25.1c0-3,0.4-6,1.1-8.9c1.5-7.1,5.6-13.3,11.5-17.4c0-0.8-0.1-1.6-0.1-2.4v0c-8.3,1.9-15,9.7-17.4,19.9
		C52.1,171.6,51.7,174.6,51.7,177.6"/>
	<path id="_x3C_Tracé_x3E__2_" class="st3" d="M145.1,204.1c5.8,6.1,15.6,6.4,21.7,0.5c0.2-0.2,0.4-0.4,0.5-0.5"/>
	<path class="st3" d="M227.5,103.8c2.8,10.7,1.3,25.7,1.3,45.5c0,0.3,0,0.6,0,0.9v0c0,0.8,0,1.5-0.1,2.2c-0.3,8.3-1.9,16.5-4.7,24.2
		c0,0.1,0,0.1,0,0.2c0,0.1,0,0.2,0,0.3c0.3,1.7,0.5,3.5,0.7,5.2c0.1,1.4,0.2,2.8,0.3,4.1c0,0.9,0,1.8,0,2.7c0,0.9,0,1.8-0.1,2.8
		c0,0.7,0,1.4-0.1,2c-0.1,1.6-0.2,3.1-0.5,4.7c-0.1,0.6-0.2,1.1-0.3,1.7c-0.1,0.6-0.2,1.1-0.3,1.7c0,0.1-0.1,0.4-0.1,0.5
		c-0.2,1.2-0.5,2.3-0.8,3.4c-0.2,1.1-0.5,2.1-0.8,3.1c-0.2,0.6-0.4,1.2-0.6,1.8c-0.3,0.9-0.6,1.7-0.9,2.6c-0.1,0.5-0.3,1-0.5,1.5
		c-0.4,1-0.8,2-1.3,3.1c-0.6,1.3-1.2,2.6-1.9,3.9c-0.5,1-1,1.9-1.6,2.9c-0.5,1-1.1,1.9-1.7,2.8c-0.6,0.9-1.2,1.8-1.8,2.7
		c-2,3-4.3,5.7-6.7,8.3c-1.1,1.3-2.4,2.5-3.6,3.6c-0.6,0.6-1.3,1.2-1.9,1.7c-5.1,4.5-16,9.6-21.9,12.6v5.2
		c10.6-3.2,21.6-7.1,34.7-17.8c0.7-0.5,1.3-1.1,1.9-1.7c1.2-1.2,2.4-2.4,3.6-3.6c2.4-2.6,4.7-5.3,6.7-8.3c0.6-0.9,1.2-1.8,1.8-2.7
		c0.6-1,1.1-1.9,1.7-2.8c0.6-1,1.1-1.9,1.6-2.9c0.7-1.3,1.3-2.6,1.9-3.9c0.5-1,0.9-2,1.3-3.1c0.2-0.5,0.4-1,0.5-1.5
		c0.3-0.8,0.6-1.7,0.9-2.6c0.2-0.6,0.4-1.2,0.6-1.8c0.3-1,0.6-2,0.8-3.1c0.3-1.1,0.5-2.2,0.8-3.4c0-0.2,0.1-0.4,0.1-0.5
		c0.1-0.6,0.2-1.2,0.3-1.7c0.1-0.5,0.2-1.1,0.3-1.7c0.2-1.6,0.4-3.1,0.5-4.7c0.1-0.7,0.1-1.4,0.1-2c0.1-0.9,0.1-1.8,0.1-2.8
		c0-0.9,0-1.8,0-2.7c-0.1-1.4-0.1-2.8-0.3-4.2c-0.2-1.8-0.4-3.5-0.7-5.2c0-0.1,0-0.2,0-0.3c0-0.1,0-0.1,0-0.2
		c2.8-7.7,4.4-15.9,4.7-24.2c0-0.7,0.1-1.5,0.1-2.2v0c0-0.3,0-0.6,0-0.9C241.6,132.8,236.6,116.7,227.5,103.8z"/>
<!-- </g> -->
<!-- <g id="hair-dark"> -->
	<path class="st4" d="M284.8,244.5c-18,45-45.2,1-52.6-27.1c-0.1,0.3-0.2,0.5-0.3,0.8c-0.6,1.3-1.2,2.6-1.9,3.9
		c-0.5,1-1,1.9-1.6,2.9c-0.6,1-1.1,1.9-1.7,2.8c-0.6,1-1.2,1.8-1.8,2.7c-2,3-4.3,5.7-6.7,8.3c-0.6,0.6-1.1,1.2-1.7,1.8
		c-1.7,9.8-1.8,18.9,1.3,24.8C235.8,299.4,290.5,284.2,284.8,244.5z"/>
	<path class="st4" d="M93.7,265.5c3.2-6.1,3.1-15.6,1.2-25.7c-0.2-0.2-0.5-0.4-0.7-0.7c-2.6-2.6-4.9-5.4-7-8.4
		c-0.6-0.9-1.3-1.8-1.9-2.7c-0.6-0.9-1.2-1.9-1.8-2.9c-0.6-1-1.1-1.9-1.7-2.9c-0.7-1.3-1.4-2.6-2-3.9c-0.2-0.4-0.3-0.8-0.5-1.2
		c-7.3,28.1-34.6,72.6-52.7,27.4C21,284.2,75.7,299.4,93.7,265.5z"/>
<!-- </g> -->
	<path id="hair-light" class="st5" d="M242.1,134.6c-2.4-50.3-49.7-78.6-58.5-79.7c-4.1-0.5-7.6,0.4-10.1,1.5c0-0.1,0-0.2,0-0.3
	c0.3-1.8,0.8-3.5,1.4-5.2c1.1-3.4,2.8-6.7,4.9-9.7c1.1-1.5,2.3-2.9,3.6-4.2c1.3-1.3,2.8-2.4,4.3-3.5c3.1-2.1,6.6-3.7,10.3-4.8
	c-3.8,0.5-7.6,1.5-11.2,3.2c-1.8,0.9-3.5,1.8-5.2,3c-1.6,1.2-3.2,2.5-4.6,3.9c-2.6,2.6-4.8,5.7-6.6,8.9c-0.4-1.1-0.9-2.1-1.5-3.1
	c-0.3-0.6-0.8-1.2-1.2-1.8c-0.4-0.6-0.8-1.1-1.3-1.6c-0.5-0.5-1-1-1.4-1.5l-1.6-1.3l-0.8-0.6l-0.9-0.5l-1.7-1
	c-1.2-0.6-2.4-1.1-3.6-1.6c1,0.8,2.1,1.5,3.1,2.4l1.4,1.3l0.7,0.7l0.6,0.7l1.2,1.5l0.9,1.6c0.3,0.5,0.6,1.1,0.8,1.6
	c0.2,0.6,0.5,1.1,0.6,1.7c0.7,2.2,0.9,4.6,0.6,6.9c-0.1,0.6-0.2,1.1-0.3,1.7c-0.1,0.6-0.2,1.1-0.4,1.6c0,0.1-0.1,0.3-0.1,0.4
	c-3.3-1.7-8.8-3.7-16-3.4c-12.4,0.5-57.9,18.1-75,48.1s-4.7,47.1-4.7,47.1s12.9-19.7,51.2-21.7s57.4-27.9,57.4-27.9
	s4.7,10.3,27.4,17.1c22.8,6.7,37.2,35.7,37.2,35.7S242.7,145.5,242.1,134.6z"/>
	<g id="glasses" class="st6">
		<path id="glasses4" class="st7" d="M238.3,158.7c-1.7-5.6-5.3-9.7-10.6-12.1c-5.4-2.4-12.2-3.6-20.4-3.6c-11.2,0-23.1,2.3-25.9,3.5
			c-0.1,0-0.2,0.1-0.4,0.1c-5.7,2.4-9.6,6.1-11.9,10.9c-11.4-4.5-22.8-1.5-27.2,0.1c-2.2-4.8-6.2-8.6-11.9-10.9
			c-0.1-0.1-0.3-0.1-0.4-0.2c-2.8-1.2-14.6-3.5-25.8-3.5c-8.2,0-15,1.2-20.4,3.6c-5.3,2.4-8.9,6.5-10.6,12.1c-2.5-0.1-7-0.2-7,1.2
			c0,1.3,3.7,2,6.3,2.3c0,0.1,0,0.1,0,0.2c-1,7.1,0.8,13.6,1.6,15.9v0.5l0.2,0.8c6.8,16.3,19,26,33.5,26h0.3c0.3,0,27-0.6,34.6-26.5
			c1.7-5.9,2.2-11.3,1.4-15.9c3.6-1.3,13.9-4.3,23.9-0.1c-0.8,4.6-0.3,10.2,1.4,16.1c7.6,25.9,34.3,26.4,34.6,26.4h0.3
			c14.5,0,26.7-9.7,33.4-26.1l0.2-0.6v-0.6c0.8-2.3,2.7-8.8,1.6-15.9c0-0.1,0-0.2,0-0.3c2.5-0.4,5.6-1.1,5.6-2.2
			C244.8,158.6,240.9,158.5,238.3,158.7z M138.8,177.1c-6.3,21.2-27.4,22.6-31.1,22.6s-20.8,0.3-30.3-22.6c0,0-7.4-20.1,7.4-26.6
			c14.7-6.5,41-1.2,43.7,0C131.3,151.7,145.1,156,138.8,177.1z M234.1,177.1c-9.4,22.9-26.5,22.6-30.3,22.6s-24.8-1.4-31.1-22.6
			c-6.3-21.1,7.6-25.4,10.3-26.6c2.7-1.2,29-6.5,43.7,0C241.3,157.1,234.1,177.1,234.1,177.1z"/>
	</g>
</svg>
