<svg xmlns="http://www.w3.org/2000/svg" viewBox="0 0 128.8 119.09">
	<defs>
		<style>.cls-1{fill:#d06133;}.cls-2{fill:#f67944;}.cls-3{fill:#926D4E;}.cls-4{fill:#836347;}.cls-5{fill:#B1B1B1;}.cls-6{fill:#868686;}</style>
	</defs>
	<!-- <title>Personnage.21.04.2017</title> -->
	<g id="SVG">
		<path class="cls-1" id="sweater_dark" d="M81.57,83.39h0a44.55,44.55,0,0,0-4.69-1.79,38,38,0,0,0-23.65,0c-11.74,3.74-21,12.3-22.51,19.29a9.37,9.37,0,0,0-.23,2H99.65C99.65,96.52,92.1,88.13,81.57,83.39Z"/>
		<path class="cls-2" id="sweater_light" d="M95.53,101H30.47C32,94,41.24,85.4,53,81.66c.94,1.75,5,8.63,11.58,8.63s11-6.9,12.07-8.64a44.55,44.55,0,0,1,4.69,1.79h0C89.79,88.31,95.53,95.4,95.53,101Z"/>
		<g id="Visage">
			<path class="cls-3" id="face_light" d="M87.92,40.91h0a2.26,2.26,0,0,0,0-.26c0-13.19-10.24-23.89-22.87-23.89S42.19,27.45,42.19,40.64a2.26,2.26,0,0,0,0,.26h0c-2.79.62-4.9,3.81-4.9,7.65,0,4.29,2.65,7.77,5.92,7.77a2.23,2.23,0,0,0,.35,0c.06.34.13.67.21,1s.14.61.22.91.1.36.16.54a7.5,7.5,0,0,0,.25.76,3.26,3.26,0,0,0,.15.44c.11.3.22.6.35.9s.33.77.52,1.15.28.57.44.85.31.55.47.83.33.53.5.8a20.14,20.14,0,0,0,1.86,2.44c.32.37.66.73,1,1.07.18.18.35.35.53.51a22,22,0,0,0,7.38,4.56v7.35a7,7,0,0,0,6.68,7,7,7,0,0,0,6.67-7V74.15c.13-.13.27-.26.39-.4h0l0,0c.09-.11.18-.22.26-.34a21.94,21.94,0,0,0,8.24-4.86c.18-.16.35-.33.53-.51.34-.34.68-.7,1-1.07a20.14,20.14,0,0,0,1.86-2.44c.17-.27.34-.53.5-.8s.32-.55.47-.83.3-.56.44-.85.36-.76.52-1.15.24-.6.35-.9a3.26,3.26,0,0,0,.15-.44,7.5,7.5,0,0,0,.25-.76c.06-.18.11-.36.16-.54s.16-.6.22-.91.15-.66.21-1v0a2.18,2.18,0,0,0,.36,0c3.27,0,5.92-3.48,5.92-7.77C92.83,44.72,90.71,41.53,87.92,40.91Z"/>
			<path class="cls-4" id="face_dark" d="M92.53,46.18c-.65-2.72-2.43-4.79-4.62-5.29a2.26,2.26,0,0,0,0-.26A24.6,24.6,0,0,0,84,27.25c.77,3.13.37,7.54.37,13.38a2.27,2.27,0,0,1,0,.26h0c0,.22,0,.44,0,.65A24.46,24.46,0,0,1,83,48.66s0,0,0,.05a.34.34,0,0,1,0,.1c.09.51.15,1,.2,1.54s.06.81.08,1.22c0,.26,0,.52,0,.79s0,.54,0,.81,0,.4,0,.6c0,.47-.07.93-.13,1.38,0,.17,0,.33-.07.49s0,.33-.08.5l0,.16c-.06.34-.13.67-.21,1s-.14.61-.22.91-.1.36-.16.54a7.5,7.5,0,0,1-.25.76A3.25,3.25,0,0,1,82,60c-.11.3-.22.6-.35.9s-.33.77-.52,1.15-.28.57-.44.85-.31.55-.47.83-.33.53-.5.8a20.14,20.14,0,0,1-1.86,2.44c-.32.37-.66.73-1,1.07-.18.18-.35.35-.53.51a21.4,21.4,0,0,1-3.9,2.91c-.49.29-1,.56-1.52.81a20.28,20.28,0,0,1-2.82,1.14c-.08.12-.17.23-.26.34l0,0h0a6.44,6.44,0,0,1-1.15,1l-.38.26a8.55,8.55,0,0,1-2.71,1.12,2.6,2.6,0,0,1-.27.06h0a9.36,9.36,0,0,0,1.2.16l.53,0,.53,0a9.36,9.36,0,0,0,1.2-.16l.32-.07a8.55,8.55,0,0,0,2.71-1.12l.38-.26a6,6,0,0,0,.76-.64v6.26a7,7,0,0,1-6.67,7,2.17,2.17,0,0,0,.36,0h.94a7.06,7.06,0,0,0,7-7V73a21.74,21.74,0,0,0,7.26-4.51c.18-.16.35-.33.53-.51.34-.34.68-.7,1-1.07a20.14,20.14,0,0,0,1.86-2.44c.17-.27.34-.53.5-.8s.32-.55.47-.83.3-.56.44-.85.36-.76.52-1.15.24-.6.35-.9a3.25,3.25,0,0,0,.15-.44,7.48,7.48,0,0,0,.25-.76c.06-.18.11-.36.16-.54s.16-.6.22-.91.15-.66.21-1a2.17,2.17,0,0,0,.36,0c3.27,0,5.92-3.48,5.92-7.77A9.62,9.62,0,0,0,92.53,46.18Zm-6,10c0-.17.06-.33.08-.5s0-.32.07-.49c.06-.45.11-.91.13-1.38q0-.3,0-.6c0-.27,0-.54,0-.81s0-.53,0-.79c0-.41,0-.82-.08-1.22s-.11-1-.2-1.54a.34.34,0,0,0,0-.1s0,0,0-.05a24.46,24.46,0,0,0,1.3-7.11A7.48,7.48,0,0,1,91,46.18a9.62,9.62,0,0,1,.29,2.37C91.24,52.28,89.24,55.39,86.57,56.14Z"/>
			<path class="cls-4" id="nose" d="M62.11,54.53a4.08,4.08,0,0,0,5.9,0"/>
		</g>
		<circle class="cls-6" id="hair_dark" cx="65.06" cy="16.29" r="11.5"/>
		<path class="cls-5" id="hair_light" d="M35.77,46.3c0,1.13.05,2.25.15,3.35a.13.13,0,0,1,0,.06,23.33,23.33,0,0,0,6-2.92c.36-.24.71-.49,1-.76,4-3.14,7.49-8.08,9.58-15.75,3.39,4.71,9,12.14,21.51,12.3l-4.36-6.85A58.69,58.69,0,0,0,87.45,47.46l1.13.42A17.9,17.9,0,0,0,94.15,49h.09c.07-.9.11-1.82.11-2.74a35.19,35.19,0,0,0-1.51-10.25C89.08,23.58,78.63,14.49,66.19,13.94l-1,0c-.4,0-.8,0-1.19,0L62.8,14C51,15,41.2,23.71,37.43,35.55A35.11,35.11,0,0,0,35.77,46.3Z"/>
	</g>
</svg>