<!-- <?xml version="1.0" encoding="utf-8"?> -->
<!-- Generator: Adobe Illustrator 23.0.1, SVG Export Plug-In . SVG Version: 6.00 Build 0)  -->
<!-- <svg version="1.1" id="Calque_1" xmlns="http://www.w3.org/2000/svg" xmlns:xlink="http://www.w3.org/1999/xlink" x="0px" y="0px"
	 viewBox="0 0 243 319" style="enable-background:new 0 0 243 319;" xml:space="preserve"> -->
<!-- <svg xmlns="http://www.w3.org/2000/svg" viewBox="0 0 128.8 119.09"> -->
<svg xmlns="http://www.w3.org/2000/svg" viewBox="0 0 243 319">
	<defs>
		<!-- <style type="text/css"> -->
		<!-- <style>
			.st0{fill:#412308;}
			.st1{fill:#9D9C9D;}
			.st2{fill:#BFBABE;}
			.st3{fill:#7C5235;}
			.st4{fill:#52341A;}
			.st5{fill:#66452F;}
		</style> -->
		<style>
			.cls-1{fill:#412308;}
			.cls-2{fill:#9D9C9D;}
			.cls-3{fill:#BFBABE;}
			.cls-4{fill:#7C5235;}
			.cls-5{fill:#52341A;}
			.cls-6{fill:#66452F;}
		</style>
	</defs>
	<g id="SVG">
		<rect x="37" y="146.8" class="cls-1" width="9.33" height="128.67"/>
		<rect x="54.81" y="146.8" class="cls-1" width="9.33" height="128.67"/>
		<rect x="72.63" y="146.8" class="cls-1" width="9.33" height="128.67"/>
		<rect x="90.44" y="146.8" class="cls-1" width="9.33" height="128.67"/>
		<rect x="143.89" y="146.8" class="cls-1" width="9.33" height="128.67"/>
		<rect x="179.51" y="146.8" class="cls-1" width="9.33" height="128.67"/>
		<rect x="161.7" y="146.8" class="cls-1" width="9.33" height="128.67"/>
		<rect x="197.33" y="146.8" class="cls-1" width="9.33" height="128.67"/>
		<path id="Tracé_9712_14_" class="cls-2" d="M242.91,318.8H0.56c0.02-2.36,0.29-4.71,0.81-7.01h227.92
			c0-19.44-20.13-44.28-49.71-61.31C216.46,267.1,242.91,296.49,242.91,318.8"/>
		<path id="Tracé_9713_14_" class="cls-3" d="M229.28,311.82H1.36c5.43-24.52,37.73-54.49,78.86-67.59
			c13.42-4.32,27.42-6.55,41.52-6.62c14.04,0.07,27.98,2.29,41.35,6.59c5.59,1.78,11.08,3.87,16.43,6.27c0.04,0,0.04,0,0.07,0.04
			C209.17,267.54,229.28,292.36,229.28,311.82"/>
		<path id="Tracé_9714_14_" class="cls-2" d="M163.07,244.19c-3.57,6.1-19.3,30.27-42.28,30.27s-37.27-24.12-40.57-30.23
			c13.42-4.32,27.42-6.55,41.51-6.62c14.04,0.07,27.98,2.29,41.35,6.59"/>
		<path class="cls-4" d="M201.61,101.45C201.61,101.45,201.61,101.45,201.61,101.45C201.61,101.44,201.61,101.44,201.61,101.45l0-0.04
			c0.03-0.3,0.04-0.61,0.04-0.91c0-46.21-35.86-83.69-80.12-83.69s-80.12,37.48-80.12,83.69c-0.01,0.3,0.01,0.61,0.04,0.91v0.04
			c0,0,0,0.01,0,0.01c-9.76,2.17-17.17,13.34-17.17,26.78c0,15.03,9.28,27.22,20.74,27.22c0.42,0.01,0.83-0.01,1.24-0.07
			c0.21,1.19,0.45,2.34,0.73,3.5c0.21,1.09,0.49,2.14,0.77,3.19c0.18,0.63,0.35,1.26,0.56,1.89c0.24,0.9,0.54,1.79,0.87,2.66
			c0.14,0.53,0.31,1.04,0.53,1.54c0.38,1.05,0.77,2.1,1.23,3.15c0.57,1.36,1.16,2.69,1.83,4.03c0.49,1.02,1.01,2,1.54,2.98
			c0.53,0.98,1.08,1.96,1.65,2.91c0.56,0.95,1.16,1.86,1.75,2.8c1.95,3.01,4.13,5.87,6.52,8.55c1.12,1.3,2.31,2.56,3.5,3.75
			c0.63,0.63,1.23,1.23,1.86,1.79c7.47,7,16.26,12.4,25.84,15.95v25.75c0.03,13.11,10.31,23.91,23.4,24.59
			c13.08-0.7,23.33-11.48,23.37-24.58v-21.93c0.47-0.46,0.94-0.92,1.37-1.42v-0.04c0.05-0.03,0.1-0.06,0.14-0.11
			c0.31-0.38,0.63-0.77,0.91-1.19c10.76-3.48,20.61-9.3,28.87-17.03c0.63-0.56,1.23-1.16,1.86-1.79c1.19-1.19,2.38-2.45,3.5-3.75
			c2.39-2.68,4.57-5.54,6.52-8.55c0.6-0.95,1.2-1.82,1.75-2.8c0.55-0.98,1.09-1.93,1.65-2.91c0.56-0.98,1.05-1.96,1.54-2.98
			c0.67-1.33,1.27-2.66,1.83-4.03c0.45-1.05,0.84-2.1,1.23-3.15c0.21-0.5,0.39-1.02,0.53-1.54c0.34-0.87,0.63-1.76,0.87-2.66
			c0.19-0.63,0.38-1.26,0.56-1.89c0.28-1.05,0.56-2.09,0.77-3.19c0.28-1.16,0.52-2.31,0.73-3.5c0,0,0-0.01,0-0.01
			c0.42,0.06,0.84,0.08,1.26,0.07c11.45,0,20.74-12.19,20.74-27.22C218.81,114.78,211.38,103.6,201.61,101.45z"/>
		<path class="cls-5" d="M160.57,26.79c1.82-2.07,2.93-4.77,2.93-7.74c0-6.49-5.26-11.75-11.75-11.75c-6.31,0-11.44,4.97-11.72,11.21
			C147.3,20.29,154.2,23.1,160.57,26.79z"/>
		<path class="cls-5" d="M182.76,45.83c3.15-2.11,5.23-5.7,5.23-9.78c0-6.49-5.26-11.75-11.75-11.75c-4.38,0-8.2,2.41-10.22,5.96
			C172.28,34.62,177.91,39.86,182.76,45.83z"/>
		<path class="cls-5" d="M196.98,71.3c4.13-1.82,7.01-5.95,7.01-10.75c0-6.49-5.26-11.75-11.75-11.75c-2.19,0-4.22,0.61-5.98,1.65
			C190.73,56.78,194.36,63.78,196.98,71.3z"/>
		<path class="cls-5" d="M201.81,99.8c6.46-0.03,11.69-5.28,11.69-11.75c0-6.49-5.26-11.75-11.75-11.75c-1.07,0-2.1,0.16-3.09,0.42
			C200.68,84.06,201.79,91.79,201.81,99.8z"/>
		<path class="cls-5" d="M121.7,16.28c3.46,0,6.86,0.25,10.21,0.7c0.7-1.5,1.09-3.17,1.09-4.93c0-6.49-5.26-11.75-11.75-11.75
			S109.5,5.56,109.5,12.05c0,1.81,0.42,3.51,1.15,5.04C114.26,16.57,117.94,16.28,121.7,16.28z"/>
		<path class="cls-5" d="M102.48,18.72C102.3,12.39,97.12,7.3,90.75,7.3C84.26,7.3,79,12.56,79,19.05c0,3.14,1.24,5.98,3.24,8.09
			C88.51,23.43,95.3,20.57,102.48,18.72z"/>
		<path class="cls-5" d="M60.33,46.19c4.75-5.91,10.26-11.12,16.38-15.47c-1.94-3.81-5.89-6.42-10.46-6.42
			c-6.49,0-11.75,5.26-11.75,11.75C54.5,40.38,56.84,44.15,60.33,46.19z"/>
		<path class="cls-5" d="M46.31,71.61c2.58-7.48,6.16-14.45,10.55-20.77c-1.88-1.28-4.16-2.04-6.61-2.04c-6.49,0-11.75,5.26-11.75,11.75
			C38.5,65.66,41.76,69.99,46.31,71.61z"/>
		<path class="cls-5" d="M40.75,99.8c0.28,0,0.56-0.02,0.84-0.04c0.02-7.9,1.1-15.53,3.08-22.77c-1.23-0.43-2.54-0.68-3.92-0.68
			C34.26,76.3,29,81.56,29,88.05S34.26,99.8,40.75,99.8z"/>
		<path id="Tracé_9710_14_" class="cls-6" d="M24.27,128.24c0,15.03,9.28,27.22,20.74,27.22c0.42,0.01,0.84-0.01,1.26-0.07
			c-0.04-0.18-0.07-0.38-0.11-0.56c-9.35-2.63-16.36-13.54-16.36-26.59c-0.01-2.8,0.33-5.6,1.02-8.32c1.37-6.58,5.2-12.38,10.72-16.2
			c-0.04-0.73-0.07-1.51-0.07-2.28v-0.04c-7.69,1.75-13.91,9-16.19,18.52C24.61,122.64,24.26,125.43,24.27,128.24"/>
		<path class="cls-6" d="M217.79,119.93c-2.28-9.53-8.5-16.78-16.19-18.53v0.04c0,0.77-0.03,1.54-0.07,2.28
			c5.52,3.83,9.36,9.63,10.72,16.2c0.68,2.72,1.03,5.51,1.02,8.32c0,13.05-7.01,23.96-16.36,26.59c0.11-0.59,0.18-1.19,0.28-1.74
			c0.11-0.56,0.18-1.12,0.24-1.72c0.21-1.58,0.38-3.19,0.45-4.83c0.07-0.7,0.11-1.4,0.11-2.1c0.07-0.94,0.07-1.9,0.07-2.84
			c0-0.94,0-1.85-0.04-2.77c-0.07-1.44-0.14-2.87-0.28-4.27c-0.17-1.82-0.38-3.61-0.7-5.39l-0.04-0.37l-0.04-0.18
			c2.74-8.03,4.28-16.42,4.55-24.91c0.03-0.74,0.07-1.5,0.07-2.28v-0.04l0.04-0.91c0.04-16.62-4.73-32.9-13.73-46.88
			c2.7,10.97,1.3,26.41,1.3,46.87l-0.04,0.91v0.04c0,0.77-0.03,1.54-0.07,2.28c-0.28,8.48-1.81,16.87-4.55,24.9l0.04,0.18l0.04,0.37
			c0.31,1.79,0.52,3.56,0.7,5.39c0.14,1.4,0.21,2.84,0.28,4.27c0.04,0.91,0.04,1.82,0.04,2.77c0,0.94,0,1.89-0.07,2.84
			c0,0.7-0.04,1.4-0.11,2.1c-0.07,1.65-0.24,3.26-0.45,4.83c-0.07,0.6-0.17,1.12-0.24,1.72c-0.07,0.6-0.18,1.16-0.28,1.75l-0.11,0.56
			c-0.21,1.19-0.45,2.34-0.73,3.5c-0.21,1.09-0.49,2.14-0.77,3.19c-0.18,0.63-0.35,1.26-0.56,1.89c-0.24,0.9-0.54,1.79-0.88,2.66
			c-0.14,0.53-0.31,1.04-0.53,1.54c-0.39,1.05-0.77,2.1-1.23,3.15c-0.57,1.36-1.16,2.69-1.83,4.03c-0.49,1.02-1.01,2-1.54,2.98
			c-0.53,0.98-1.08,1.96-1.65,2.91c-0.56,0.95-1.16,1.86-1.75,2.8c-1.95,3.01-4.13,5.88-6.52,8.56c-1.12,1.3-2.31,2.56-3.5,3.75
			c-0.63,0.63-1.23,1.23-1.85,1.79c-8.25,7.73-18.11,13.55-28.87,17.03c-0.28,0.42-0.6,0.8-0.91,1.19l-0.14,0.11v0.04
			c-1.19,1.38-2.54,2.62-4.02,3.68c-0.42,0.31-0.88,0.63-1.33,0.91c-2.91,1.84-6.13,3.17-9.49,3.92l-0.95,0.21l0.14,0.04
			c1.39,0.28,2.79,0.46,4.2,0.56c0.63,0.03,1.23,0.07,1.86,0.07c0.63,0,1.23-0.03,1.85-0.07c1.41-0.1,2.82-0.28,4.2-0.56
			c0.39-0.07,0.74-0.14,1.12-0.24c3.37-0.75,6.58-2.08,9.49-3.92c0.46-0.28,0.91-0.6,1.33-0.91c0.95-0.68,1.82-1.45,2.65-2.26v21.92
			c-0.03,13.1-10.28,23.9-23.37,24.59c0.41,0.06,0.83,0.09,1.24,0.08h3.29c13.61-0.04,24.63-11.06,24.68-24.66v-25.9
			c9.42-3.55,18.07-8.91,25.44-15.81c0.63-0.56,1.23-1.16,1.85-1.79c1.19-1.18,2.38-2.45,3.5-3.75c2.39-2.68,4.56-5.54,6.51-8.55
			c0.6-0.95,1.2-1.82,1.75-2.8c0.55-0.98,1.09-1.93,1.65-2.91c0.56-0.98,1.05-1.96,1.54-2.98c0.67-1.33,1.27-2.66,1.83-4.03
			c0.45-1.05,0.84-2.1,1.23-3.15c0.21-0.5,0.39-1.01,0.53-1.54c0.34-0.87,0.63-1.76,0.87-2.67c0.19-0.63,0.38-1.26,0.56-1.89
			c0.28-1.05,0.56-2.09,0.77-3.19c0.28-1.16,0.52-2.31,0.73-3.5l0-0.01c0.42,0.06,0.84,0.08,1.26,0.07
			c11.45,0,20.74-12.19,20.74-27.22C218.82,125.44,218.48,122.65,217.79,119.93z"/>
		<path id="Tracé_9722_14_" class="cls-6" d="M111.19,149.16c5.44,5.71,14.47,5.93,20.18,0.49c0.17-0.16,0.33-0.33,0.49-0.49"/>
	</g>
</svg>
