<?xml version="1.0" encoding="utf-8"?>
<svg version="1.1" id="facialHair2" xmlns="http://www.w3.org/2000/svg" xmlns:xlink="http://www.w3.org/1999/xlink" x="0px" y="0px"
	viewBox="0 0 315 350" style="enable-background:new 0 0 315 350;" xml:space="preserve">
	<path id="mustache" class="st8" d="M177.6,186.9c-6.5-1.1-17.4-2.6-23.5,1.2c-6.1-3.8-17.1-2.3-23.5-1.2c-8.1,1.2-13.9,7.6-20,13.4
		c-2.4,2.3-5,4.6-8.3,5.9c5.3,3.4,21.3-2.3,24.1-4c-0.3,0.9-0.2,2.4-0.5,3.2c4.1,1,10.4-2.6,13.4-6.1c-0.3,1.3-0.1,3.2-0.8,4.6
		c3.6,0.6,14.1-2.4,15.5-4.1c1.4,1.8,12,4.8,15.5,4.1c-0.6-1.3-0.5-3.2-0.8-4.6c3.1,3.4,9.3,7.1,13.4,6.1c-0.3-0.9-0.2-2.4-0.5-3.2
		c2.8,1.7,18.8,7.4,24.1,4c-3.2-1.3-5.9-3.6-8.3-5.9C191.5,194.5,185.7,188.1,177.6,186.9z"/>
</svg>
