<?xml version="1.0" encoding="utf-8"?>
<svg version="1.1" id="facialHair1" xmlns="http://www.w3.org/2000/svg" xmlns:xlink="http://www.w3.org/1999/xlink" x="0px" y="0px"
	viewBox="0 0 315 350" style="enable-background:new 0 0 315 350;" xml:space="preserve">
	<path id="beard" class="st8" d="M204.9,218.4c-11.8,8.4-31.8,8.5-37.3,0.4c-1.7-2.5-1.8-5.5-1.5-8c-1.8,0.2-6.8,0.3-11.8,0.3
		c-5,0-10.1-0.1-11.8-0.3c0.3,2.4,0.1,5.1-1.4,7.5c-5.5,8.4-27.9,9.5-38.4-0.7c-12.9-12.5-14.2-48.2-17.9-60.8
		c-0.1-0.2-0.2-0.7-0.3-0.7c-2.3-0.2-9.6,54.9,2.8,69.3c1.6,2.5,11.7,18.6,23.7,26.2c0.4-1.4-1-2.4-0.5-3.7
		c5.7,8.5,11.4,11.9,21.3,16.9c-1-2.3,0,0-0.7-2.3c4.7,7.9,22.5,12.5,23.3,12.4c0.8,0.1,18.6-4.5,23.3-12.4c-0.7,2.3,0.4,0-0.7,2.3
		c9.9-5,15.5-8.4,21.2-16.9c0.5,1.3-0.9,2.3-0.5,3.7c12-7.7,21.1-22.4,23.7-26.2c13.2-15.3,5.8-55.7,3.9-64.9c0-0.1-0.2-1-0.5-1.1
		C222.4,159.2,226.1,203.2,204.9,218.4z"/>
</svg>
