<svg xmlns="http://www.w3.org/2000/svg" viewBox="0 0 128.8 119.09"><defs><style>.cls-1{fill:#dcb184;}.cls-2{fill:#ecbe8e;}.cls-3{fill:#00b9a2;}.cls-4{fill:#2b9e84;}.cls-5{fill:none;stroke:#fdeb9f;stroke-width:2px;}.cls-6{fill:#ffe370;}</style></defs><title>Personnage.21.04.2017</title><g id="Avatar_Bébé" data-name="Avatar Bébé"><path class="cls-1" d="M89.91,99.95c0-5.23-5.44-12.12-13-16l-.14-.1h0a30.28,30.28,0,0,0-3.41-1.48,24.54,24.54,0,0,0-17.24,0c-8.56,3.09-15.28,10.18-16.41,16h0a8.71,8.71,0,0,0-.17,1.65H89.91Zm-2.84-1.65h0Z"/><path class="cls-2" d="M91.93,54.53a19.69,19.69,0,0,0,1-5.32v-.9c0-13-12.62-23.48-28.2-23.48s-28.2,10.51-28.2,23.48v.26c0,.22,0,.43,0,.64a19.62,19.62,0,0,0,1,5.4c-3.27.49-5.73,2.54-5.73,5,0,2.68,2.95,4.88,6.7,5.09a9,9,0,0,0,.26.88c.06.17.13.35.2.53a6.76,6.76,0,0,0,.31.74,2.74,2.74,0,0,0,.18.43c.13.3.27.6.43.89s.41.76.64,1.13.36.56.54.84l.58.81.62.79a20.87,20.87,0,0,0,2.3,2.4c.39.36.81.71,1.23,1l.65.5a29.38,29.38,0,0,0,9.37,4.56c0,.06,0,.13,0,.19v2c-8.42,3.14-15,10.13-16.12,15.84H87.07v0c0-4.59-4.18-10.45-10.34-14.47h0a30.26,30.26,0,0,0-3.09-1.35v-2c0-.06,0-.12,0-.18A29.19,29.19,0,0,0,83,75.7c.23-.16.44-.32.66-.5.42-.34.84-.69,1.23-1a20.85,20.85,0,0,0,2.3-2.4c.21-.27.42-.52.61-.79l.58-.81c.2-.28.37-.55.55-.84s.44-.75.64-1.13.29-.59.43-.89a2.79,2.79,0,0,0,.18-.43,6.85,6.85,0,0,0,.31-.74c.07-.17.14-.35.2-.53s.16-.56.25-.87H91c.19,0,.42,0,.63,0l.62-.06c3.44-.4,6.05-2.5,6.05-5S95.54,54.84,91.93,54.53Z"/><path class="cls-1" d="M90.94,64.72a4.47,4.47,0,0,1-.26.87c-.06.18-.13.36-.2.53a6.83,6.83,0,0,1-.31.74,2.78,2.78,0,0,1-.18.43c-.14.3-.26.6-.43.89s-.41.76-.64,1.13-.35.56-.55.84l-.58.81c-.19.27-.4.52-.61.79a20.85,20.85,0,0,1-2.3,2.4c-.39.36-.81.71-1.23,1-.22.18-.43.34-.66.5a29.18,29.18,0,0,1-10.16,4.78c-.1.11-.2.22-.32.33l0,0a7.5,7.5,0,0,1-1.41,1l-.47.26a12,12,0,0,1-3.34,1.1l-.4.07a14.56,14.56,0,0,1-1.48.16l-.65,0c-.22,0-.43,0-.65,0-.5,0-1-.08-1.49-.16l-.39-.07h0a12.07,12.07,0,0,0,3.3-1.09l.47-.26a7.5,7.5,0,0,0,1.41-1l.05,0c.12-.11.22-.22.32-.33,9.82-2.57,17.52-9.37,19.79-15.34a18.62,18.62,0,0,0,.92-6.34A26.27,26.27,0,0,0,90,54.23c1.05-7.14,0-22.86-27.83-29.3.84-.07,1.7-.1,2.57-.1,15.58,0,28.2,10.51,28.2,23.48v.9a19.29,19.29,0,0,1-1,5.32c-.48,3.5-1.36,4.68-1.36,4.68A23.17,23.17,0,0,1,90.94,64.72Z"/><path id="Tracé_27210" data-name="Tracé 27210" class="cls-1" d="M61.06,63.5a5,5,0,0,0,7.1.17l.17-.17"/><g id="Suce"><path class="cls-3" d="M68.08,66.9a4.91,4.91,0,0,0-3.38,1.35,4.93,4.93,0,1,0-3.38,8.53,8.65,8.65,0,0,0,3.38-.35,9.12,9.12,0,0,0,3.38.35,4.94,4.94,0,1,0,0-9.87Z"/><circle class="cls-4" cx="64.7" cy="72.16" r="3.3"/><path id="Tracé_27215" data-name="Tracé 27215" class="cls-5" d="M67.09,74.47a2.55,2.55,0,0,1-2.39,2.69h0a2.55,2.55,0,0,1-2.39-2.69h0a2.55,2.55,0,0,1,2.39-2.69h0a2.55,2.55,0,0,1,2.39,2.69Z"/><circle class="cls-6" cx="64.7" cy="72.16" r="1.92"/></g></g></svg>