<svg xmlns="http://www.w3.org/2000/svg" viewBox="0 0 128.8 119.09">
	<defs>
		<style>.cls-1{fill:#d06133;}.cls-2{fill:#f67944;}.cls-3{fill:#f4cda5;}.cls-4{fill:#eac39f;}.cls-5{fill:#333;}</style>
	</defs>
	<g id="SVG">
		<path class="cls-6" id="hair_dark" d="M95,67.6c0,1-0.4,1.9-1.2,2.8c-3.6,4.1-15.1,7.2-28.7,7.2c-13.6,0-25-3-28.7-7.1c-0.8-0.9-1.2-1.8-1.2-2.8
			c0-1,0.4-1.9,1.2-2.8c0.5,0.5,1,1,1.7,1.5c0.1,0.1,0.3,0.2,0.4,0.3h0c2.6-4.3,4-9.2,4-14.4c0-1.8-0.3-4.1-0.6-5.9
			c0.4-0.1,0.8-0.3,1.1-0.4c6.4-2.5,13.7-7.7,17.7-11.7L56.3,41c12.5-0.2,18.1-7.6,21.5-12.3c2.1,7.7,5.5,12.6,9.6,15.7
			c0.3,0.3,0.7,0.5,1,0.8c-0.4,3.2-0.7,6.1-0.7,7c0,5.2,1.4,10.1,4,14.3c0.8-0.5,1.5-1.1,2-1.7C94.6,65.7,95,66.6,95,67.6z"/>
		<path class="cls-5" id="hair_light" d="M95,67.6c0,1-0.4,1.9-1.2,2.8c-3.6,4.1-15.1,7.2-28.7,7.2c-13.6,0-25-3-28.7-7.1c-0.8-0.9-1.2-1.8-1.2-2.8
			c0-1,0.4-1.9,1.2-2.8c0.5,0.5,1,1,1.7,1.5c0.1,0.1,0.3,0.2,0.4,0.3c0.5,0.3,1,0.6,1.5,0.8c5.3,2.7,14.6,4.5,25.1,4.5
			c10.6,0,19.9-1.8,25.2-4.6c0.5-0.3,1-0.6,1.5-0.9c0.8-0.5,1.5-1.1,2-1.7C94.6,65.7,95,66.6,95,67.6z"/>
		<g>
			<path class="cls-1" id="sweater_dark" d="M99.7,104.1H30.5c0-0.7,0.1-1.3,0.2-2c1.6-7,10.8-15.6,22.5-19.3c3.8-1.2,7.8-1.9,11.9-1.9
				c4.1,0,8.1,0.7,11.8,1.9c1.6,0.5,3.2,1.1,4.7,1.8c0,0,0,0,0,0C92.1,89.4,99.7,97.8,99.7,104.1z"/>
			<path class="cls-2" id="sweater_light" d="M95.8,102.1H30.7c1.5-7,10.8-15.6,22.5-19.3c0.9,1.8,5,8.6,11.6,8.6c6.6,0,11-6.9,12.1-8.6
				c1.6,0.5,3.2,1.1,4.7,1.8c0,0,0,0,0,0C90,89.5,95.8,96.6,95.8,102.1z"/>
		</g>
		<g id="Visage">
			<path class="cls-3" id="face_light" d="M87.9,40.9L87.9,40.9L87.9,40.9c0-0.1,0-0.2,0-0.3c0-13.2-10.2-23.9-22.9-23.9S42.2,27.4,42.2,40.6
				c0,0.1,0,0.2,0,0.3v0c0,0,0,0,0,0c-2.8,0.6-4.9,3.8-4.9,7.6c0,4.3,2.7,7.8,5.9,7.8c0.1,0,0.2,0,0.4,0c0.1,0.3,0.1,0.7,0.2,1
				c0.1,0.3,0.1,0.6,0.2,0.9c0,0.2,0.1,0.4,0.2,0.5c0.1,0.2,0.2,0.5,0.2,0.8c0,0.2,0.1,0.3,0.2,0.4c0.1,0.3,0.2,0.6,0.3,0.9
				c0.2,0.4,0.3,0.8,0.5,1.1c0.1,0.3,0.3,0.6,0.4,0.9c0.2,0.3,0.3,0.5,0.5,0.8c0.2,0.3,0.3,0.5,0.5,0.8c0.6,0.9,1.2,1.7,1.9,2.4
				c0.3,0.4,0.7,0.7,1,1.1c0.2,0.2,0.3,0.4,0.5,0.5c2.1,2,4.6,3.5,7.4,4.6v7.4c0,3.8,3,6.8,6.7,7c3.7-0.2,6.7-3.3,6.7-7v-6.3
				c0.1-0.1,0.3-0.3,0.4-0.4c0,0,0,0,0,0c0,0,0,0,0,0c0.1-0.1,0.2-0.2,0.3-0.3c3.1-1,5.9-2.7,8.2-4.9c0.2-0.2,0.3-0.3,0.5-0.5
				c0.3-0.3,0.7-0.7,1-1.1c0.7-0.8,1.3-1.6,1.9-2.4c0.2-0.3,0.3-0.5,0.5-0.8c0.2-0.3,0.3-0.5,0.5-0.8c0.2-0.3,0.3-0.6,0.4-0.9
				c0.2-0.4,0.4-0.8,0.5-1.1c0.1-0.3,0.2-0.6,0.3-0.9c0.1-0.1,0.1-0.3,0.2-0.4c0.1-0.2,0.2-0.5,0.2-0.8c0.1-0.2,0.1-0.4,0.2-0.5
				c0.1-0.3,0.2-0.6,0.2-0.9c0.1-0.3,0.2-0.7,0.2-1c0,0,0,0,0,0c0,0,0,0,0,0c0.1,0,0.2,0,0.4,0c3.3,0,5.9-3.5,5.9-7.8
				C92.8,44.7,90.7,41.5,87.9,40.9z"/>
			<path class="cls-4" id="face_dark" d="M92.5,46.2c-0.7-2.7-2.4-4.8-4.6-5.3c0-0.1,0-0.2,0-0.3c0-5-1.5-9.6-3.9-13.4c0.8,3.1,0.4,7.5,0.4,13.4
				c0,0.1,0,0.2,0,0.3v0c0,0.2,0,0.4,0,0.7c-0.1,2.5-0.5,4.9-1.3,7.1c0,0,0,0,0,0.1c0,0,0,0.1,0,0.1c0.1,0.5,0.2,1,0.2,1.5
				c0,0.4,0.1,0.8,0.1,1.2c0,0.3,0,0.5,0,0.8s0,0.5,0,0.8c0,0.2,0,0.4,0,0.6c0,0.5-0.1,0.9-0.1,1.4c0,0.2,0,0.3-0.1,0.5
				c0,0.2,0,0.3-0.1,0.5c0,0,0,0.1,0,0.2c-0.1,0.3-0.1,0.7-0.2,1c-0.1,0.3-0.1,0.6-0.2,0.9c0,0.2-0.1,0.4-0.2,0.5
				c-0.1,0.2-0.2,0.5-0.2,0.8c0,0.1-0.1,0.3-0.2,0.4c-0.1,0.3-0.2,0.6-0.3,0.9c-0.2,0.4-0.3,0.8-0.5,1.2c-0.1,0.3-0.3,0.6-0.4,0.8
				c-0.1,0.3-0.3,0.5-0.5,0.8c-0.2,0.3-0.3,0.5-0.5,0.8c-0.6,0.9-1.2,1.7-1.9,2.4c-0.3,0.4-0.7,0.7-1,1.1c-0.2,0.2-0.4,0.3-0.5,0.5
				c-1.2,1.1-2.5,2.1-3.9,2.9c-0.5,0.3-1,0.6-1.5,0.8c-0.9,0.5-1.9,0.8-2.8,1.1c-0.1,0.1-0.2,0.2-0.3,0.3c0,0,0,0,0,0c0,0,0,0,0,0
				c-0.3,0.4-0.7,0.7-1.2,1c-0.1,0.1-0.2,0.2-0.4,0.3c-0.8,0.5-1.7,0.9-2.7,1.1c-0.1,0-0.2,0-0.3,0.1c0,0,0,0,0,0
				c0.4,0.1,0.8,0.1,1.2,0.2c0.2,0,0.3,0,0.5,0c0.2,0,0.3,0,0.5,0c0.4,0,0.8-0.1,1.2-0.2c0.1,0,0.2,0,0.3-0.1c1-0.2,1.9-0.6,2.7-1.1
				c0.1-0.1,0.3-0.2,0.4-0.3c0.3-0.2,0.5-0.4,0.8-0.6v6.3c0,3.8-3,6.8-6.7,7c0.1,0,0.2,0,0.4,0h0.9c3.9,0,7-3.2,7-7V73
				c2.7-1,5.2-2.6,7.3-4.5c0.2-0.2,0.4-0.3,0.5-0.5c0.3-0.3,0.7-0.7,1-1.1c0.7-0.8,1.3-1.6,1.9-2.4c0.2-0.3,0.3-0.5,0.5-0.8
				c0.2-0.3,0.3-0.5,0.5-0.8c0.2-0.3,0.3-0.6,0.4-0.8c0.2-0.4,0.4-0.8,0.5-1.2c0.1-0.3,0.2-0.6,0.4-0.9c0.1-0.1,0.1-0.3,0.1-0.4
				c0.1-0.2,0.2-0.5,0.2-0.8c0.1-0.2,0.1-0.4,0.2-0.5c0.1-0.3,0.2-0.6,0.2-0.9c0.1-0.3,0.2-0.7,0.2-1c0.1,0,0.2,0,0.4,0
				c3.3,0,5.9-3.5,5.9-7.8C92.8,47.7,92.7,46.9,92.5,46.2z M86.6,56.1c0-0.2,0.1-0.3,0.1-0.5c0-0.2,0-0.3,0.1-0.5
				c0.1-0.4,0.1-0.9,0.1-1.4c0-0.2,0-0.4,0-0.6c0-0.3,0-0.5,0-0.8s0-0.5,0-0.8c0-0.4,0-0.8-0.1-1.2c0-0.5-0.1-1-0.2-1.5
				c0,0,0-0.1,0-0.1c0,0,0,0,0-0.1c0.8-2.2,1.2-4.6,1.3-7.1c1.5,0.9,2.6,2.6,3.1,4.6c0.2,0.8,0.3,1.5,0.3,2.4
				C91.2,52.3,89.2,55.4,86.6,56.1z"/>
			<path class="cls-4" id="nose" d="M62.1,54.5c1.1,1,3.4,2.3,5.9,0"/>
		</g>
		<path class="cls-5" id="hair_light" d="M94.7,44.7c0,1.1-0.1,2.2-0.2,3.3c0,0,0,0,0,0.1c-2.1-0.7-4.1-1.6-6-2.9c-0.4-0.2-0.7-0.5-1-0.8
			c-4-3.1-7.5-8.1-9.6-15.8c-3.4,4.7-9,12.1-21.5,12.3l4.4-6.8c-4,4-11.3,9.2-17.7,11.7c-0.4,0.2-0.8,0.3-1.1,0.4
			c-2,0.7-3.9,1.1-5.6,1.2h-0.1c-0.1-0.9-0.1-1.8-0.1-2.7c0-3.6,0.5-7,1.5-10.2C41.3,22,51.8,12.9,64.2,12.3c0.4,0,0.7,0,1,0
			c0.4,0,0.8,0,1.2,0c0.4,0,0.8,0,1.2,0.1c11.8,1,21.6,9.7,25.4,21.5C94.1,37.3,94.7,40.9,94.7,44.7z"/>
	</g>
</svg>
